<svg width="328" height="328" viewBox="0 0 328 328" fill="none" xmlns="http://www.w3.org/2000/svg">
<path d="M164 314.467C247.372 314.467 314.959 275.452 314.959 227.324C314.959 179.196 247.372 140.181 164 140.181C80.6277 140.181 13.0413 179.196 13.0413 227.324C13.0413 275.452 80.6277 314.467 164 314.467Z" fill="#F5F5F5"/>
<path d="M263.784 266.782C284.627 266.782 301.524 257.026 301.524 244.99C301.524 232.954 284.627 223.197 263.784 223.197C242.941 223.197 226.044 232.954 226.044 244.99C226.044 257.026 242.941 266.782 263.784 266.782Z" fill="#E0E0E0"/>
<path d="M128.668 292.071L35.037 238.017C33.5019 237.131 33.5019 235.694 35.037 234.802L170.396 156.66C171.258 156.22 172.21 155.99 173.178 155.99C174.145 155.99 175.098 156.22 175.959 156.66L269.564 210.7C271.099 211.586 271.099 213.023 269.564 213.908L134.231 292.071C133.369 292.508 132.416 292.735 131.45 292.735C130.483 292.735 129.53 292.508 128.668 292.071Z" fill="#E0E0E0"/>
<path d="M282.834 232.493C282.028 226.956 284.094 205.866 288.784 197.836C293.475 189.807 301.248 181.384 308.018 182.644C314.289 183.811 314.788 191.749 308.294 198.001C301.799 204.252 291.855 212.367 289.978 221.813L284.861 237.892L282.834 232.493Z" fill="#75B6A5"/>
<path opacity="0.1" d="M282.834 232.493C282.028 226.956 284.094 205.866 288.784 197.836C293.475 189.807 301.248 181.384 308.018 182.644C314.289 183.811 314.788 191.749 308.294 198.001C301.799 204.252 291.855 212.367 289.978 221.813L284.861 237.892L282.834 232.493Z" fill="black"/>
<path d="M284.337 230.754C284.423 230.732 284.498 230.682 284.553 230.612C284.607 230.542 284.637 230.456 284.639 230.367C284.927 210.911 297.372 192.884 305.86 187.866C305.953 187.81 306.02 187.721 306.048 187.616C306.075 187.512 306.059 187.401 306.004 187.308C305.95 187.215 305.86 187.147 305.756 187.12C305.651 187.093 305.54 187.109 305.447 187.163C296.794 192.28 284.114 210.602 283.799 230.354C283.798 230.408 283.807 230.46 283.827 230.511C283.847 230.56 283.876 230.605 283.914 230.644C283.951 230.682 283.995 230.713 284.044 230.734C284.093 230.756 284.146 230.767 284.199 230.767C284.245 230.774 284.292 230.77 284.337 230.754Z" fill="white"/>
<path d="M287.38 240.909C287.813 237.668 290.083 232.079 295.213 226.543C301.497 219.76 311.928 216.047 313.384 212.111C315.123 207.375 311.148 204.14 304.364 206.299C295.252 209.199 285.084 220.573 285.216 235.209L287.38 240.909Z" fill="#75B6A5"/>
<path d="M285.551 237.846C285.627 237.827 285.696 237.786 285.751 237.729C285.805 237.673 285.842 237.601 285.859 237.524C289.296 220.468 303.046 211.317 308.661 209.742C308.765 209.719 308.856 209.656 308.915 209.566C308.974 209.478 308.996 209.369 308.976 209.264C308.962 209.212 308.938 209.162 308.906 209.12C308.872 209.077 308.831 209.041 308.784 209.015C308.737 208.988 308.684 208.972 308.631 208.966C308.577 208.961 308.523 208.966 308.471 208.982C302.266 210.72 288.594 220.003 285.091 237.393C285.081 237.446 285.081 237.5 285.091 237.553C285.102 237.605 285.122 237.655 285.152 237.7C285.182 237.744 285.22 237.782 285.266 237.812C285.31 237.841 285.36 237.862 285.412 237.872C285.46 237.872 285.506 237.863 285.551 237.846Z" fill="white"/>
<path d="M95.9797 48.8195L90.9869 51.7059C91.0131 51.4882 91.0262 51.2692 91.0269 51.0499V49.6067C91.0269 47.0287 89.216 45.9856 86.9855 47.2714C86.0284 47.8645 85.208 48.6538 84.5782 49.5871C84.2175 46.3464 81.672 45.1394 78.5891 46.9237C75.2495 48.8523 72.5405 53.5362 72.5405 57.4197V59.5845C72.5213 60.4476 72.6962 61.3039 73.0524 62.0904L68.88 64.452C68.2269 64.8772 67.6834 65.4505 67.2935 66.1252C66.9037 66.8001 66.6786 67.5574 66.6365 68.3356C66.6365 69.7656 67.6402 70.3429 68.88 69.6476L95.9535 54.0151C96.6051 53.5906 97.1484 53.0183 97.5382 52.3447C97.928 51.6711 98.1535 50.9151 98.1964 50.1381C98.2226 48.6883 97.2189 48.1045 95.9797 48.8195Z" fill="#E6E6E6"/>
<path d="M32.892 55.2679L35.6472 53.1359V47.0745C35.6472 42.2594 39.4848 36.6703 43.6504 34.2628C47.8225 31.8553 51.2009 33.8102 51.2009 38.6252V39.5042C52.0783 38.0784 53.2782 36.8785 54.704 36.0012C57.7019 34.2694 60.1357 35.6732 60.1357 39.1369V39.537L63.9798 37.3198C65.9478 36.1783 67.555 37.1033 67.555 39.3862C67.4872 40.6265 67.1281 41.8336 66.507 42.9095C65.8859 43.9853 65.0201 44.8998 63.9798 45.5788L32.892 63.527C30.924 64.6684 29.3102 63.7434 29.3102 61.4606C29.3757 60.2188 29.7345 59.0103 30.357 57.9339C30.9796 56.8575 31.8483 55.9439 32.892 55.2679Z" fill="#E6E6E6"/>
<path d="M40.8163 230.577C40.8911 231.596 41.2044 232.582 41.7309 233.457C42.2574 234.333 42.9822 235.072 43.847 235.615L128.793 284.658C129.733 285.134 130.772 285.381 131.826 285.381C132.881 285.381 133.92 285.134 134.86 284.658L260.753 211.98C261.668 211.494 262.432 210.769 262.966 209.882C263.499 208.996 263.78 207.98 263.78 206.945C263.78 205.91 263.499 204.894 262.966 204.007C262.432 203.121 261.668 202.396 260.753 201.91L175.808 152.848C174.868 152.369 173.828 152.12 172.774 152.12C171.719 152.12 170.68 152.369 169.74 152.848L43.847 225.545C42.9824 226.088 42.2575 226.825 41.731 227.7C41.2045 228.574 40.8911 229.559 40.8163 230.577Z" fill="#37474F"/>
<path d="M131.856 278.8V285.36C130.801 285.383 129.757 285.135 128.825 284.639L43.847 235.615C42.9594 235.147 42.2117 234.452 41.6802 233.6C41.1485 232.749 40.852 231.772 40.8207 230.769C40.7893 229.765 41.0244 228.772 41.5018 227.889C41.9792 227.006 42.6821 226.265 43.5387 225.743C42.1807 226.713 42.2857 228.143 43.847 229.023L128.799 278.072C129.737 278.575 130.791 278.826 131.856 278.8Z" fill="#263238"/>
<path d="M37.9694 225.664C37.1254 225.09 36.4284 224.325 35.935 223.432C35.4415 222.538 35.1654 221.541 35.1288 220.521V119.136C35.1864 118.085 35.4909 117.062 36.0174 116.151C36.544 115.239 37.2778 114.463 38.1596 113.888L164.052 41.2098C164.959 40.7281 165.965 40.4669 166.991 40.4475C168.017 40.4281 169.033 40.6511 169.956 41.0984C170.799 41.6736 171.495 42.4386 171.989 43.3318C172.482 44.2251 172.759 45.2217 172.797 46.2414V147.6C172.74 148.652 172.436 149.675 171.909 150.586C171.383 151.498 170.649 152.273 169.767 152.848L43.8471 225.546C42.9452 226.025 41.9433 226.285 40.9223 226.305C39.9013 226.327 38.8897 226.106 37.9694 225.664Z" fill="#455A64"/>
<path d="M43.4928 225.729C42.6219 226.119 41.6764 226.313 40.7224 226.3C39.7684 226.287 38.8289 226.065 37.9694 225.651C37.1254 225.076 36.4284 224.312 35.935 223.418C35.4415 222.525 35.1654 221.528 35.1288 220.508V119.136C35.1623 118.081 35.4698 117.052 36.021 116.151L41.702 119.431C41.1592 120.333 40.8545 121.358 40.8164 122.409V223.794C40.8164 225.585 41.984 226.392 43.4928 225.729Z" fill="#263238"/>
<path d="M40.8163 122.423V223.794C40.8163 225.762 42.1742 226.51 43.847 225.546L169.74 152.848C170.622 152.273 171.356 151.498 171.883 150.586C172.409 149.674 172.713 148.652 172.771 147.6V46.2414C172.771 44.3128 171.42 43.5256 169.74 44.4965L43.847 117.168C42.9651 117.745 42.2313 118.521 41.7047 119.433C41.1782 120.347 40.8739 121.37 40.8163 122.423Z" fill="#37474F"/>
<path d="M43.8472 229.042L128.793 278.092C129.733 278.567 130.773 278.814 131.826 278.814C132.881 278.814 133.92 278.567 134.861 278.092L260.754 205.413C262.426 204.442 262.426 202.874 260.754 201.91L175.808 152.848C174.869 152.369 173.829 152.12 172.774 152.12C171.719 152.12 170.68 152.369 169.741 152.848L43.8472 225.545C42.1744 226.51 42.1744 228.078 43.8472 229.042Z" fill="#455A64"/>
<path d="M45.4804 121.065L167.201 50.8072C168.205 50.23 169.025 50.7023 169.025 51.8635V145.389C168.99 146.02 168.806 146.635 168.489 147.182C168.173 147.729 167.731 148.193 167.201 148.538L45.4804 218.796C44.4766 219.373 43.6566 218.901 43.6566 217.74V124.214C43.6917 123.583 43.8751 122.968 44.192 122.421C44.5089 121.874 44.9502 121.409 45.4804 121.065Z" fill="#69D8AA"/>
<path opacity="0.4" d="M45.4804 121.065L167.201 50.8072C168.205 50.23 169.025 50.7023 169.025 51.8635V145.389C168.99 146.02 168.806 146.635 168.489 147.182C168.173 147.729 167.731 148.193 167.201 148.538L45.4804 218.796C44.4766 219.373 43.6566 218.901 43.6566 217.74V124.214C43.6917 123.583 43.8751 122.968 44.192 122.421C44.5089 121.874 44.9502 121.409 45.4804 121.065Z" fill="#3EC09E"/>
<path d="M53.7068 226.418L171.262 158.562C171.731 158.322 172.25 158.197 172.778 158.197C173.304 158.197 173.823 158.322 174.292 158.562L179.81 161.743C180.643 162.229 180.643 163.009 179.81 163.495L62.2414 231.345C61.7721 231.585 61.2528 231.71 60.726 231.71C60.1992 231.71 59.6798 231.585 59.2106 231.345L53.7068 228.17C52.8736 227.684 52.8736 226.904 53.7068 226.418Z" fill="#37474F"/>
<path d="M67.9287 234.631L185.478 166.768C185.947 166.529 186.466 166.404 186.993 166.404C187.52 166.404 188.039 166.529 188.508 166.768L222.449 186.363C223.289 186.849 223.289 187.636 222.449 188.114L105.025 255.892C104.555 256.13 104.034 256.254 103.507 256.254C102.98 256.254 102.46 256.13 101.988 255.892L67.9353 236.377C67.0956 235.897 67.0891 235.11 67.9287 234.631Z" fill="#263238"/>
<path d="M171.216 195.626L174.916 193.487C175.074 193.396 175.08 193.251 174.916 193.159L171.032 190.896C170.944 190.854 170.848 190.833 170.751 190.833C170.653 190.833 170.557 190.854 170.469 190.896L166.762 193.035C166.611 193.126 166.605 193.27 166.762 193.356L170.698 195.613C170.779 195.65 170.866 195.67 170.956 195.673C171.045 195.675 171.133 195.659 171.216 195.626ZM164.873 187.688L161.173 189.827C161.14 189.838 161.111 189.86 161.09 189.889C161.07 189.918 161.059 189.952 161.059 189.988C161.059 190.022 161.07 190.057 161.09 190.086C161.111 190.115 161.14 190.137 161.173 190.148L165.109 192.405C165.197 192.446 165.293 192.468 165.391 192.468C165.488 192.468 165.585 192.446 165.673 192.405L169.379 190.266C169.415 190.256 169.447 190.235 169.469 190.205C169.491 190.175 169.503 190.14 169.503 190.102C169.503 190.065 169.491 190.029 169.469 190C169.447 189.97 169.415 189.948 169.379 189.938L165.443 187.681C165.356 187.641 165.261 187.622 165.164 187.622C165.068 187.624 164.973 187.646 164.886 187.688H164.873ZM152.914 194.589L146.655 198.204C146.498 198.296 146.492 198.446 146.655 198.532L150.591 200.788C150.679 200.831 150.776 200.852 150.874 200.852C150.971 200.852 151.068 200.831 151.156 200.788L157.421 197.174C157.578 197.082 157.578 196.938 157.421 196.846L153.485 194.596C153.399 194.55 153.303 194.526 153.207 194.525C153.109 194.524 153.014 194.546 152.927 194.589H152.914ZM159.474 190.811L155.767 192.949C155.61 193.041 155.61 193.185 155.767 193.27L159.703 195.527C159.791 195.569 159.888 195.591 159.986 195.591C160.083 195.591 160.179 195.569 160.268 195.527L163.967 193.389C164.125 193.297 164.125 193.153 163.967 193.061L160.031 190.804C159.946 190.763 159.85 190.741 159.755 190.742C159.659 190.744 159.565 190.767 159.48 190.811H159.474ZM144.976 199.194L141.277 201.326C141.119 201.418 141.119 201.569 141.277 201.654L145.213 203.911C145.301 203.953 145.397 203.974 145.495 203.974C145.592 203.974 145.688 203.953 145.776 203.911L149.477 201.779C149.634 201.687 149.634 201.543 149.477 201.451L145.541 199.194C145.453 199.153 145.356 199.131 145.258 199.131C145.161 199.131 145.064 199.153 144.976 199.194ZM139.571 202.317L135.864 204.456C135.831 204.468 135.802 204.489 135.782 204.518C135.762 204.547 135.751 204.581 135.751 204.617C135.751 204.652 135.762 204.686 135.782 204.715C135.802 204.743 135.831 204.765 135.864 204.777L139.728 207.033C139.815 207.079 139.912 207.102 140.01 207.102C140.109 207.102 140.205 207.079 140.293 207.033L143.992 204.902C144.149 204.81 144.149 204.665 143.992 204.574L140.089 202.317C140.005 202.279 139.913 202.26 139.82 202.26C139.727 202.26 139.636 202.279 139.551 202.317H139.571ZM154.908 211.501L158.608 209.362C158.765 209.27 158.765 209.126 158.608 209.041L154.705 206.785C154.617 206.743 154.52 206.721 154.423 206.721C154.325 206.721 154.229 206.743 154.141 206.785L150.434 208.923C150.399 208.933 150.367 208.955 150.345 208.984C150.322 209.014 150.311 209.05 150.311 209.087C150.311 209.124 150.322 209.16 150.345 209.19C150.367 209.22 150.399 209.241 150.434 209.251L154.338 211.508C154.424 211.547 154.519 211.566 154.613 211.565C154.709 211.564 154.802 211.542 154.888 211.501H154.908ZM149.496 214.624L153.202 212.485C153.36 212.393 153.36 212.249 153.202 212.164L149.279 209.92C149.191 209.878 149.095 209.857 148.997 209.857C148.9 209.857 148.804 209.878 148.715 209.92L145.015 212.059C144.858 212.15 144.858 212.295 145.015 212.387L148.919 214.644C149.007 214.681 149.103 214.699 149.199 214.696C149.296 214.692 149.391 214.668 149.477 214.624H149.496ZM144.09 217.746L147.791 215.608C147.823 215.596 147.853 215.574 147.873 215.545C147.893 215.516 147.904 215.482 147.904 215.447C147.904 215.412 147.893 215.377 147.873 215.348C147.853 215.32 147.823 215.298 147.791 215.287L143.855 213.03C143.767 212.984 143.671 212.961 143.573 212.961C143.474 212.961 143.378 212.984 143.29 213.03L139.604 215.168C139.446 215.26 139.446 215.404 139.604 215.496L143.54 217.753C143.623 217.789 143.714 217.806 143.806 217.806C143.898 217.804 143.988 217.784 144.071 217.746H144.09ZM138.679 220.869L142.378 218.73C142.536 218.645 142.543 218.494 142.378 218.409L138.442 216.152C138.354 216.11 138.258 216.089 138.16 216.089C138.063 216.089 137.967 216.11 137.878 216.152L134.178 218.284C134.021 218.376 134.015 218.52 134.178 218.612L138.082 220.869C138.172 220.913 138.27 220.936 138.37 220.936C138.47 220.936 138.569 220.913 138.659 220.869H138.679ZM165.818 198.768L169.524 196.63C169.559 196.62 169.591 196.598 169.613 196.568C169.635 196.539 169.647 196.503 169.647 196.465C169.647 196.428 169.635 196.393 169.613 196.363C169.591 196.333 169.559 196.312 169.524 196.302L165.588 194.052C165.501 194.006 165.404 193.982 165.306 193.982C165.207 193.982 165.111 194.006 165.023 194.052L161.376 196.144C161.219 196.236 161.219 196.38 161.376 196.465L165.279 198.722C165.361 198.767 165.45 198.795 165.543 198.803C165.636 198.811 165.73 198.799 165.818 198.768ZM160.301 208.398L168.553 203.629C168.71 203.537 168.71 203.393 168.553 203.308L159.067 197.83C158.979 197.788 158.882 197.766 158.785 197.766C158.687 197.766 158.591 197.788 158.503 197.83L154.232 200.297C154.075 200.388 154.075 200.533 154.232 200.625L159.258 203.524C159.29 203.536 159.319 203.558 159.34 203.586C159.36 203.615 159.371 203.649 159.371 203.685C159.371 203.72 159.36 203.754 159.34 203.783C159.319 203.812 159.29 203.833 159.258 203.846L155.839 205.814C155.682 205.905 155.682 206.049 155.839 206.142L159.775 208.392C159.858 208.428 159.949 208.446 160.039 208.444C160.13 208.442 160.219 208.42 160.301 208.378V208.398ZM134.139 205.46L130.439 207.598C130.406 207.609 130.378 207.631 130.357 207.66C130.337 207.689 130.326 207.724 130.326 207.758C130.326 207.794 130.337 207.828 130.357 207.857C130.378 207.886 130.406 207.908 130.439 207.919L134.343 210.176C134.431 210.218 134.527 210.24 134.624 210.24C134.722 210.24 134.818 210.218 134.906 210.176L138.613 208.037C138.649 208.027 138.68 208.006 138.702 207.976C138.725 207.946 138.737 207.91 138.737 207.873C138.737 207.836 138.725 207.8 138.702 207.771C138.68 207.741 138.649 207.719 138.613 207.709L134.71 205.453C134.622 205.408 134.525 205.383 134.426 205.381C134.327 205.379 134.229 205.398 134.139 205.44V205.46ZM128.733 208.582L125.027 210.721C124.87 210.812 124.87 210.956 125.027 211.042L128.963 213.298C129.051 213.34 129.148 213.362 129.245 213.362C129.343 213.362 129.439 213.34 129.527 213.298L133.227 211.16C133.385 211.068 133.385 210.924 133.227 210.832L129.291 208.575C129.206 208.529 129.111 208.505 129.014 208.502C128.917 208.5 128.821 208.521 128.733 208.562V208.582ZM100.231 242.72C100.319 242.762 100.415 242.784 100.512 242.784C100.61 242.784 100.706 242.762 100.794 242.72L104.495 240.582C104.652 240.489 104.658 240.345 104.495 240.254L100.559 238.004C100.471 237.958 100.375 237.935 100.277 237.935C100.178 237.935 100.082 237.958 99.9943 238.004L96.2947 240.142C96.1369 240.234 96.1303 240.378 96.2947 240.463L100.231 242.72ZM85.4576 233.536L81.7572 235.668C81.6002 235.76 81.5936 235.904 81.7572 235.996L85.6605 238.253C85.7485 238.294 85.8452 238.316 85.9427 238.316C86.0402 238.316 86.1369 238.294 86.2249 238.253L89.9245 236.114C90.0823 236.029 90.0889 235.878 89.9245 235.793L85.9885 233.536C85.9056 233.496 85.8147 233.475 85.7231 233.475C85.6307 233.475 85.5398 233.496 85.4576 233.536ZM93.2307 240.319C93.318 240.364 93.4147 240.388 93.5129 240.388C93.6111 240.388 93.7078 240.364 93.7951 240.319L97.4947 238.18C97.6525 238.089 97.6525 237.945 97.4947 237.859L93.5587 235.602C93.4714 235.557 93.3747 235.533 93.2765 235.533C93.1783 235.533 93.0816 235.557 92.9951 235.602L89.2947 237.741C89.1376 237.833 89.1376 237.977 89.2947 238.069L93.2307 240.319ZM109.224 244.295L112.924 242.156C112.957 242.144 112.986 242.122 113.006 242.094C113.026 242.065 113.037 242.031 113.037 241.995C113.037 241.96 113.026 241.926 113.006 241.897C112.986 241.868 112.957 241.847 112.924 241.834L108.988 239.578C108.9 239.536 108.804 239.514 108.706 239.514C108.608 239.514 108.512 239.536 108.424 239.578L104.724 241.71C104.567 241.801 104.567 241.946 104.724 242.038L108.66 244.295C108.747 244.339 108.843 244.363 108.941 244.365C109.038 244.367 109.135 244.348 109.224 244.308V244.295ZM103.248 247.424C103.336 247.465 103.432 247.487 103.53 247.487C103.628 247.487 103.724 247.465 103.812 247.424L107.512 245.285C107.669 245.2 107.676 245.049 107.512 244.964L103.648 242.72C103.56 242.678 103.463 242.657 103.366 242.657C103.269 242.657 103.172 242.678 103.084 242.72L99.3842 244.852C99.2271 244.944 99.2198 245.088 99.3842 245.18L103.248 247.424ZM90.8692 230.407L87.1631 232.545C87.1274 232.556 87.0962 232.577 87.0736 232.607C87.0511 232.636 87.0394 232.673 87.0394 232.71C87.0394 232.747 87.0511 232.783 87.0736 232.812C87.0962 232.842 87.1274 232.863 87.1631 232.873L91.0663 235.13C91.1543 235.172 91.2503 235.194 91.3478 235.194C91.446 235.194 91.542 235.172 91.63 235.13L95.3303 232.992C95.4874 232.9 95.4874 232.756 95.3303 232.671L91.3943 230.414C91.3114 230.376 91.222 230.357 91.1311 230.359C91.0402 230.359 90.9507 230.38 90.8692 230.42V230.407ZM117.909 214.794L114.21 216.933C114.053 217.025 114.053 217.169 114.21 217.255L118.146 219.51C118.233 219.556 118.33 219.58 118.428 219.58C118.526 219.58 118.623 219.556 118.71 219.51L122.41 217.372C122.567 217.281 122.567 217.136 122.41 217.044L118.474 214.794C118.386 214.751 118.288 214.729 118.19 214.732C118.092 214.734 117.996 214.76 117.909 214.807V214.794ZM96.2612 227.258L92.5616 229.397C92.4045 229.489 92.4045 229.633 92.5616 229.725L96.4649 231.974C96.5522 232.02 96.6489 232.044 96.7471 232.044C96.8452 232.044 96.942 232.02 97.0292 231.974L100.735 229.836C100.893 229.745 100.893 229.6 100.735 229.515L96.8322 227.258C96.742 227.223 96.6453 227.209 96.5493 227.215C96.4525 227.222 96.3587 227.25 96.2751 227.297L96.2612 227.258ZM123.328 211.685L119.622 213.856C119.464 213.948 119.458 214.092 119.622 214.177L123.525 216.434C123.612 216.479 123.709 216.503 123.807 216.503C123.906 216.503 124.002 216.479 124.089 216.434L127.789 214.296C127.946 214.204 127.953 214.06 127.789 213.968L123.853 211.718C123.773 211.673 123.685 211.647 123.594 211.641C123.503 211.636 123.413 211.651 123.328 211.685ZM112.511 217.93L108.811 220.068C108.653 220.16 108.647 220.305 108.811 220.396L112.747 222.647C112.834 222.692 112.931 222.716 113.029 222.716C113.127 222.716 113.224 222.692 113.311 222.647L117.011 220.508C117.168 220.416 117.175 220.272 117.011 220.18L113.108 217.93C113.015 217.878 112.911 217.85 112.806 217.85C112.7 217.85 112.596 217.878 112.504 217.93H112.511ZM107.092 221.072L103.392 223.211C103.235 223.303 103.235 223.446 103.392 223.539L107.328 225.789C107.415 225.834 107.512 225.858 107.61 225.858C107.709 225.858 107.805 225.834 107.893 225.789L111.592 223.65C111.75 223.559 111.75 223.414 111.592 223.329L107.656 221.072C107.569 221.027 107.472 221.003 107.374 221.003C107.276 221.003 107.179 221.027 107.092 221.072ZM101.68 224.175L97.9871 226.32C97.8292 226.412 97.8227 226.556 97.9871 226.648L101.89 228.898C101.977 228.943 102.074 228.967 102.172 228.967C102.271 228.967 102.367 228.943 102.454 228.898L106.154 226.76C106.311 226.668 106.318 226.524 106.154 226.438L102.251 224.182C102.162 224.137 102.065 224.114 101.966 224.113C101.868 224.112 101.77 224.133 101.68 224.175ZM127.835 227.114L131.535 224.982C131.692 224.89 131.699 224.745 131.535 224.654L127.645 222.384C127.557 222.342 127.46 222.321 127.362 222.321C127.265 222.321 127.169 222.342 127.08 222.384L123.381 224.516C123.223 224.608 123.217 224.752 123.381 224.844L127.317 227.101C127.399 227.139 127.487 227.16 127.578 227.162C127.668 227.164 127.758 227.148 127.842 227.114H127.835ZM176.838 180.787L173.138 182.919C172.981 183.011 172.974 183.156 173.138 183.247L177.042 185.504C177.13 185.545 177.226 185.567 177.324 185.567C177.421 185.567 177.517 185.545 177.605 185.504L181.306 183.365C181.463 183.28 181.469 183.129 181.306 183.044L177.402 180.787C177.316 180.742 177.221 180.72 177.124 180.72C177.026 180.72 176.931 180.742 176.845 180.787H176.838ZM170.278 184.566L166.624 186.704C166.591 186.716 166.562 186.738 166.542 186.766C166.522 186.796 166.511 186.83 166.511 186.865C166.511 186.9 166.522 186.934 166.542 186.964C166.562 186.992 166.591 187.014 166.624 187.025L170.527 189.282C170.615 189.324 170.712 189.346 170.81 189.346C170.907 189.346 171.003 189.324 171.092 189.282L174.791 187.15C174.949 187.058 174.949 186.914 174.791 186.822L170.855 184.566C170.768 184.525 170.673 184.503 170.577 184.503C170.48 184.503 170.385 184.525 170.298 184.566H170.278ZM182.231 177.658L178.53 179.796C178.373 179.889 178.373 180.033 178.53 180.124L182.466 182.381C182.554 182.423 182.651 182.445 182.749 182.445C182.846 182.445 182.943 182.423 183.031 182.381L186.73 180.243C186.888 180.15 186.888 180.006 186.73 179.921L182.794 177.665C182.709 177.625 182.617 177.604 182.523 177.602C182.429 177.601 182.336 177.62 182.25 177.658H182.231ZM153.294 205.984L156.994 203.846C157.027 203.833 157.056 203.812 157.077 203.783C157.097 203.754 157.108 203.72 157.108 203.685C157.108 203.649 157.097 203.615 157.077 203.586C157.056 203.558 157.027 203.536 156.994 203.524L153.058 201.268C152.97 201.225 152.874 201.204 152.776 201.204C152.679 201.204 152.582 201.225 152.494 201.268L148.788 203.406C148.752 203.416 148.72 203.438 148.698 203.468C148.676 203.497 148.664 203.533 148.664 203.57C148.664 203.607 148.676 203.643 148.698 203.673C148.72 203.702 148.752 203.724 148.788 203.734L152.691 205.99C152.784 206.038 152.888 206.062 152.994 206.061C153.098 206.06 153.202 206.033 153.294 205.984ZM188.226 174.542C188.138 174.5 188.042 174.478 187.944 174.478C187.847 174.478 187.75 174.5 187.662 174.542L183.962 176.681C183.805 176.772 183.798 176.917 183.962 177.009L187.866 179.265C187.954 179.307 188.05 179.329 188.148 179.329C188.245 179.329 188.341 179.307 188.429 179.265L192.13 177.126C192.287 177.035 192.293 176.89 192.13 176.805L188.226 174.542ZM133.253 223.998L136.954 221.866C137.111 221.774 137.111 221.623 136.954 221.538L133.018 219.281C132.929 219.239 132.833 219.217 132.735 219.217C132.637 219.217 132.541 219.239 132.453 219.281L128.754 221.413C128.596 221.505 128.596 221.649 128.754 221.741L132.69 223.998C132.778 224.039 132.874 224.06 132.972 224.058C133.07 224.057 133.166 224.034 133.253 223.991V223.998ZM199.581 185.7L203.288 183.562C203.321 183.55 203.35 183.529 203.37 183.5C203.391 183.47 203.402 183.436 203.402 183.401C203.402 183.366 203.391 183.332 203.37 183.303C203.35 183.274 203.321 183.252 203.288 183.241L199.352 180.984C199.264 180.942 199.167 180.92 199.07 180.92C198.973 180.92 198.876 180.942 198.788 180.984L195.088 183.116C194.93 183.208 194.93 183.352 195.088 183.444L199.024 185.7C199.111 185.743 199.207 185.765 199.303 185.764C199.4 185.763 199.495 185.739 199.581 185.694V185.7ZM188.594 185.602L192.3 183.464C192.333 183.452 192.362 183.43 192.382 183.401C192.402 183.372 192.413 183.338 192.413 183.303C192.413 183.268 192.402 183.233 192.382 183.204C192.362 183.176 192.333 183.154 192.3 183.142L188.397 180.886C188.309 180.844 188.213 180.822 188.115 180.822C188.017 180.822 187.921 180.844 187.833 180.886L184.133 183.024C183.975 183.116 183.969 183.26 184.133 183.352L188.036 185.609C188.125 185.648 188.22 185.667 188.317 185.665C188.413 185.662 188.507 185.638 188.594 185.596V185.602ZM193.802 177.776C193.716 177.732 193.621 177.71 193.524 177.71C193.426 177.71 193.331 177.732 193.245 177.776L189.538 179.915C189.503 179.925 189.471 179.946 189.449 179.976C189.426 180.006 189.415 180.041 189.415 180.078C189.415 180.116 189.426 180.152 189.449 180.181C189.471 180.211 189.503 180.233 189.538 180.243L193.442 182.5C193.53 182.541 193.626 182.563 193.724 182.563C193.821 182.563 193.917 182.541 194.005 182.5L197.706 180.361C197.738 180.349 197.767 180.327 197.788 180.298C197.808 180.27 197.819 180.235 197.819 180.2C197.819 180.165 197.808 180.13 197.788 180.102C197.767 180.073 197.738 180.051 197.706 180.039L193.802 177.776ZM194.943 177.12L204.429 182.598C204.517 182.64 204.614 182.662 204.711 182.662C204.809 182.662 204.906 182.64 204.994 182.598L208.693 180.459C208.851 180.374 208.858 180.223 208.693 180.137L199.207 174.66C199.119 174.618 199.023 174.596 198.925 174.596C198.828 174.596 198.732 174.618 198.644 174.66L194.943 176.798C194.793 176.864 194.793 177.009 194.943 177.12ZM182.421 184.008L178.721 186.14C178.563 186.232 178.563 186.376 178.721 186.468L182.657 188.725C182.745 188.766 182.842 188.788 182.939 188.788C183.037 188.788 183.133 188.766 183.221 188.725L186.921 186.593C187.078 186.501 187.078 186.35 186.921 186.265L182.985 184.008C182.897 183.966 182.8 183.945 182.703 183.945C182.605 183.945 182.509 183.966 182.421 184.008ZM141.696 207.513L137.997 209.644C137.839 209.737 137.839 209.881 137.997 209.972L141.933 212.229C142.021 212.271 142.117 212.293 142.215 212.293C142.312 212.293 142.408 212.271 142.496 212.229L146.197 210.097C146.354 210.005 146.354 209.855 146.197 209.769L142.261 207.513C142.173 207.47 142.076 207.449 141.978 207.449C141.881 207.449 141.784 207.47 141.696 207.513ZM193.599 188.823C193.687 188.865 193.783 188.886 193.881 188.886C193.978 188.886 194.075 188.865 194.163 188.823L197.863 186.691C198.021 186.599 198.021 186.449 197.863 186.363L193.959 184.106C193.871 184.065 193.775 184.043 193.677 184.043C193.58 184.043 193.484 184.065 193.396 184.106L189.689 186.238C189.653 186.249 189.622 186.27 189.599 186.3C189.578 186.329 189.565 186.365 189.565 186.402C189.565 186.439 189.578 186.476 189.599 186.505C189.622 186.534 189.653 186.556 189.689 186.566L193.599 188.823ZM147.108 204.39L143.408 206.522C143.251 206.614 143.251 206.758 143.408 206.85L147.311 209.107C147.399 209.148 147.496 209.17 147.594 209.17C147.691 209.17 147.788 209.148 147.876 209.107L151.582 206.968C151.615 206.956 151.644 206.934 151.664 206.905C151.685 206.877 151.695 206.843 151.695 206.807C151.695 206.772 151.685 206.737 151.664 206.709C151.644 206.68 151.615 206.658 151.582 206.646L147.646 204.39C147.564 204.351 147.474 204.331 147.383 204.331C147.293 204.331 147.203 204.351 147.122 204.39H147.108ZM105.616 239.611C105.704 239.652 105.801 239.674 105.898 239.674C105.996 239.674 106.093 239.652 106.181 239.611L109.88 237.472C110.037 237.38 110.037 237.236 109.88 237.144L105.944 234.887C105.858 234.844 105.762 234.821 105.666 234.821C105.568 234.821 105.473 234.844 105.386 234.887L101.68 237.026C101.523 237.118 101.523 237.263 101.68 237.348L105.616 239.611ZM98.4002 232.493L94.7005 234.632C94.5427 234.724 94.5362 234.868 94.7005 234.953L98.6365 237.209C98.7231 237.255 98.8205 237.279 98.9187 237.279C99.0169 237.279 99.1136 237.255 99.2002 237.209L102.901 235.071C103.058 234.98 103.064 234.835 102.901 234.743L98.9645 232.493C98.8823 232.454 98.7929 232.433 98.702 232.433C98.6111 232.433 98.5216 232.454 98.4394 232.493H98.4002ZM111.573 236.481L115.279 234.35C115.314 234.34 115.346 234.318 115.368 234.288C115.391 234.259 115.403 234.223 115.403 234.185C115.403 234.148 115.391 234.113 115.368 234.083C115.346 234.053 115.314 234.032 115.279 234.022L111.376 231.765C111.287 231.723 111.191 231.701 111.094 231.701C110.997 231.701 110.9 231.723 110.812 231.765L107.112 233.903C107.079 233.916 107.05 233.937 107.029 233.966C107.01 233.995 106.999 234.029 106.999 234.064C106.999 234.1 107.01 234.134 107.029 234.163C107.05 234.191 107.079 234.213 107.112 234.225L111.015 236.481C111.106 236.532 111.209 236.559 111.314 236.559C111.418 236.559 111.521 236.532 111.612 236.481H111.573ZM116.985 233.359L120.685 231.227C120.842 231.135 120.848 230.99 120.685 230.899L116.781 228.642C116.693 228.601 116.597 228.579 116.499 228.579C116.402 228.579 116.305 228.601 116.217 228.642L112.511 230.781C112.477 230.793 112.449 230.815 112.429 230.844C112.408 230.872 112.397 230.906 112.397 230.942C112.397 230.977 112.408 231.011 112.429 231.04C112.449 231.069 112.477 231.091 112.511 231.102L116.414 233.359C116.506 233.412 116.612 233.441 116.719 233.441C116.826 233.441 116.931 233.412 117.024 233.359H116.985ZM122.397 230.236L126.096 228.105C126.254 228.012 126.254 227.868 126.096 227.777L122.16 225.52C122.072 225.478 121.976 225.456 121.879 225.456C121.781 225.456 121.685 225.478 121.597 225.52L117.969 227.632C117.811 227.724 117.811 227.875 117.969 227.96L121.905 230.217C121.986 230.26 122.074 230.286 122.166 230.293C122.258 230.3 122.349 230.287 122.436 230.256L122.397 230.236ZM103.805 229.37L100.106 231.509C99.9485 231.601 99.9485 231.745 100.106 231.831L104.042 234.087C104.129 234.132 104.226 234.156 104.324 234.156C104.422 234.156 104.519 234.132 104.606 234.087L108.306 231.948C108.463 231.857 108.463 231.713 108.306 231.62L104.37 229.37C104.288 229.332 104.198 229.311 104.107 229.311C104.017 229.311 103.927 229.332 103.845 229.37H103.805ZM109.218 226.248L105.518 228.386C105.36 228.479 105.354 228.622 105.518 228.708L109.421 230.964C109.509 231.006 109.605 231.028 109.703 231.028C109.801 231.028 109.897 231.006 109.985 230.964L113.692 228.826C113.842 228.734 113.849 228.59 113.692 228.498L109.756 226.248C109.677 226.213 109.592 226.195 109.506 226.195C109.421 226.195 109.335 226.213 109.257 226.248H109.218ZM130.866 213.784L127.166 215.916C127.008 216.008 127.008 216.158 127.166 216.244L131.102 218.5C131.19 218.542 131.286 218.564 131.384 218.564C131.482 218.564 131.578 218.542 131.666 218.5L135.366 216.369C135.523 216.277 135.523 216.132 135.366 216.041L131.43 213.784C131.347 213.742 131.256 213.718 131.164 213.713C131.071 213.708 130.978 213.724 130.892 213.758L130.866 213.784ZM125.46 216.906L121.76 219.045C121.603 219.13 121.597 219.281 121.76 219.366L125.696 221.623C125.783 221.668 125.88 221.692 125.978 221.692C126.077 221.692 126.173 221.668 126.261 221.623L129.96 219.491C130.118 219.399 130.125 219.255 129.96 219.163L126.057 216.906C125.97 216.86 125.874 216.833 125.775 216.828C125.676 216.823 125.578 216.841 125.487 216.88L125.46 216.906ZM136.277 210.661L132.578 212.793C132.421 212.885 132.414 213.03 132.578 213.121L136.514 215.378C136.602 215.42 136.698 215.441 136.796 215.441C136.893 215.441 136.99 215.42 137.078 215.378L140.778 213.246C140.935 213.154 140.942 213.01 140.778 212.918L136.842 210.661C136.759 210.619 136.669 210.595 136.575 210.591C136.483 210.586 136.39 210.601 136.304 210.635L136.277 210.661ZM114.629 223.125L110.923 225.264C110.766 225.356 110.766 225.5 110.923 225.585L114.826 227.842C114.914 227.884 115.011 227.905 115.109 227.905C115.206 227.905 115.303 227.884 115.391 227.842L119.09 225.703C119.248 225.612 119.248 225.468 119.09 225.375L115.154 223.118C114.998 223.059 114.824 223.061 114.669 223.125H114.629ZM120.035 220.003L116.335 222.141C116.302 222.153 116.274 222.175 116.253 222.204C116.233 222.233 116.222 222.267 116.222 222.302C116.222 222.337 116.233 222.372 116.253 222.401C116.274 222.429 116.302 222.451 116.335 222.462L120.271 224.719C120.357 224.764 120.453 224.786 120.55 224.786C120.647 224.786 120.743 224.764 120.829 224.719L124.535 222.581C124.693 222.489 124.693 222.345 124.535 222.253L120.599 219.996C120.512 219.957 120.418 219.937 120.323 219.939C120.228 219.94 120.134 219.962 120.048 220.003H120.035ZM114.59 241.185L118.297 239.047C118.33 239.035 118.359 239.013 118.379 238.984C118.399 238.956 118.41 238.921 118.41 238.886C118.41 238.851 118.399 238.816 118.379 238.788C118.359 238.759 118.33 238.737 118.297 238.725L114.394 236.468C114.306 236.423 114.21 236.399 114.111 236.399C114.013 236.399 113.917 236.423 113.829 236.468L110.13 238.601C109.972 238.692 109.972 238.836 110.13 238.929L114.033 241.185C114.125 241.232 114.227 241.257 114.331 241.257C114.435 241.257 114.537 241.232 114.629 241.185H114.59ZM84.4802 238.922L80.5442 236.665C80.4554 236.623 80.3594 236.601 80.262 236.601C80.1638 236.601 80.0678 236.623 79.9798 236.665L76.3456 238.784C76.1878 238.876 76.1878 239.02 76.3456 239.112L80.2816 241.369C80.3696 241.411 80.4656 241.433 80.5638 241.433C80.6613 241.433 80.7573 241.411 80.8453 241.369L84.5456 239.23C84.574 239.214 84.5965 239.19 84.6118 239.161C84.6271 239.132 84.6336 239.1 84.6307 239.068C84.6278 239.035 84.6162 239.004 84.5965 238.978C84.5762 238.953 84.55 238.933 84.5194 238.922H84.4802ZM92.0503 240.995L88.1471 238.738C88.0598 238.693 87.9631 238.669 87.8649 238.669C87.7667 238.669 87.67 238.693 87.5827 238.738L81.8889 242.018C81.7311 242.11 81.7245 242.255 81.8889 242.346L85.8249 244.603C85.9129 244.645 86.0089 244.667 86.1071 244.667C86.2045 244.667 86.3005 244.645 86.3885 244.603L92.0831 241.323C92.2402 241.225 92.2467 241.08 92.0896 240.995H92.0503ZM78.5631 234.52L74.6271 232.263C74.5383 232.222 74.4423 232.2 74.3449 232.2C74.2467 232.2 74.1507 232.222 74.0627 232.263L69.5099 234.887C69.3524 234.98 69.3459 235.124 69.5099 235.215L73.446 237.472C73.534 237.514 73.6307 237.536 73.7282 237.536C73.8256 237.536 73.9216 237.514 74.0103 237.472L78.6023 234.848C78.7529 234.75 78.7529 234.605 78.6023 234.52H78.5631ZM82.0525 232.5C82.1398 232.545 82.2365 232.569 82.3347 232.569C82.4329 232.569 82.5296 232.545 82.6169 232.5L86.3165 230.361C86.4743 230.269 86.4743 230.125 86.3165 230.033L82.3805 227.783C82.2947 227.737 82.1987 227.714 82.102 227.714C82.0045 227.714 81.9092 227.737 81.8227 227.783L78.1165 229.921C77.9594 230.013 77.9594 230.158 78.1165 230.243L82.0525 232.5ZM99.0954 243.376L95.1594 241.126C95.0722 241.081 94.9754 241.057 94.8772 241.057C94.7791 241.057 94.6823 241.081 94.5951 241.126L87.478 245.233C87.3202 245.324 87.3202 245.476 87.478 245.561L91.414 247.817C91.502 247.859 91.598 247.881 91.6962 247.881C91.7936 247.881 91.8896 247.859 91.9776 247.817L99.0954 243.71C99.2467 243.625 99.2467 243.481 99.0954 243.376ZM102.113 248.08L98.1769 245.823C98.0889 245.781 97.9929 245.759 97.8947 245.759C97.7972 245.759 97.7013 245.781 97.6133 245.823L93.0605 248.447C93.0271 248.459 92.9987 248.481 92.9783 248.509C92.958 248.538 92.9471 248.572 92.9471 248.608C92.9471 248.643 92.958 248.677 92.9783 248.706C92.9987 248.735 93.0271 248.756 93.0605 248.769L96.9965 251.025C97.0831 251.071 97.1805 251.095 97.2787 251.095C97.3769 251.095 97.4736 251.071 97.5602 251.025L102.113 248.401C102.264 248.329 102.264 248.185 102.113 248.093V248.08ZM122.311 209.264C122.399 209.306 122.496 209.328 122.594 209.328C122.691 209.328 122.787 209.306 122.876 209.264L126.575 207.126C126.609 207.113 126.637 207.092 126.658 207.063C126.678 207.034 126.689 207 126.689 206.965C126.689 206.929 126.678 206.895 126.658 206.866C126.637 206.838 126.609 206.816 126.575 206.804L122.639 204.548C122.551 204.505 122.455 204.484 122.357 204.484C122.26 204.484 122.163 204.505 122.075 204.548L118.375 206.679C118.218 206.772 118.218 206.916 118.375 207.007L122.311 209.264ZM111.52 215.529C111.607 215.572 111.702 215.596 111.799 215.596C111.896 215.596 111.991 215.572 112.078 215.529L115.784 213.397C115.82 213.387 115.851 213.365 115.874 213.336C115.896 213.306 115.908 213.27 115.908 213.233C115.908 213.196 115.896 213.16 115.874 213.13C115.851 213.1 115.82 213.079 115.784 213.069L111.848 210.812C111.76 210.77 111.663 210.748 111.566 210.748C111.469 210.748 111.372 210.77 111.284 210.812L107.584 212.944C107.427 213.036 107.427 213.18 107.584 213.272L111.52 215.529ZM87.5238 229.377C87.6111 229.423 87.7078 229.447 87.806 229.447C87.9042 229.447 88.0009 229.423 88.0882 229.377L91.7943 227.239C91.83 227.228 91.8612 227.206 91.8838 227.177C91.9056 227.148 91.918 227.111 91.918 227.074C91.918 227.038 91.9056 227.001 91.8838 226.972C91.8612 226.942 91.83 226.921 91.7943 226.911L87.8911 224.66C87.8038 224.615 87.7071 224.591 87.6089 224.591C87.5107 224.591 87.414 224.615 87.3267 224.66L83.6271 226.799C83.4692 226.891 83.4692 227.035 83.6271 227.121L87.5238 229.377ZM116.925 212.406C117.014 212.448 117.11 212.47 117.207 212.47C117.306 212.47 117.402 212.448 117.49 212.406L121.189 210.274C121.347 210.183 121.354 210.032 121.189 209.946L117.253 207.689C117.165 207.648 117.069 207.626 116.972 207.626C116.874 207.626 116.778 207.648 116.69 207.689L112.989 209.822C112.832 209.913 112.826 210.058 112.989 210.15L116.925 212.406ZM106.108 218.652C106.197 218.693 106.293 218.715 106.39 218.715C106.488 218.715 106.584 218.693 106.672 218.652L110.372 216.519C110.53 216.428 110.53 216.284 110.372 216.191L106.469 213.934C106.381 213.893 106.285 213.871 106.187 213.871C106.09 213.871 105.993 213.893 105.905 213.934L102.199 216.073C102.165 216.085 102.136 216.107 102.116 216.136C102.096 216.164 102.085 216.198 102.085 216.234C102.085 216.269 102.096 216.304 102.116 216.332C102.136 216.361 102.165 216.383 102.199 216.395L106.108 218.652ZM104.96 248.401C104.872 248.359 104.775 248.337 104.678 248.337C104.581 248.337 104.484 248.359 104.396 248.401L98.702 251.681C98.5442 251.773 98.5376 251.917 98.702 252.002L102.605 254.259C102.693 254.301 102.789 254.323 102.887 254.323C102.985 254.323 103.081 254.301 103.17 254.259L108.863 250.979C108.897 250.967 108.925 250.945 108.946 250.917C108.966 250.888 108.977 250.854 108.977 250.818C108.977 250.783 108.966 250.749 108.946 250.72C108.925 250.692 108.897 250.67 108.863 250.657L104.96 248.401ZM98.3543 223.132C98.4423 223.174 98.5391 223.196 98.6365 223.196C98.734 223.196 98.83 223.174 98.9187 223.132L102.618 220.993C102.775 220.902 102.775 220.757 102.618 220.665L98.6823 218.409C98.5943 218.367 98.4976 218.345 98.4002 218.345C98.3027 218.345 98.206 218.367 98.118 218.409L94.4183 220.548C94.2605 220.639 94.2605 220.783 94.4183 220.869L98.3543 223.132ZM92.942 226.255C93.0292 226.3 93.126 226.324 93.2242 226.324C93.3223 226.324 93.4191 226.3 93.5063 226.255L97.206 224.116C97.3638 224.024 97.3703 223.88 97.206 223.788L93.3027 221.538C93.2162 221.492 93.1194 221.469 93.0212 221.469C92.9231 221.469 92.8256 221.492 92.7391 221.538L89.006 223.696C88.8554 223.788 88.8489 223.932 89.006 224.017L92.942 226.255ZM205.171 190.542C205.082 190.5 204.986 190.478 204.889 190.478C204.791 190.478 204.695 190.5 204.607 190.542L195.495 195.79C195.461 195.801 195.433 195.823 195.413 195.852C195.392 195.881 195.381 195.916 195.381 195.95C195.381 195.986 195.392 196.02 195.413 196.049C195.433 196.078 195.461 196.1 195.495 196.111L199.431 198.368C199.518 198.413 199.615 198.437 199.713 198.437C199.811 198.437 199.908 198.413 199.995 198.368L209.1 193.12C209.258 193.028 209.264 192.884 209.1 192.792L205.171 190.542ZM193.179 197.456C193.092 197.411 192.995 197.387 192.897 197.387C192.799 197.387 192.702 197.411 192.615 197.456L188.928 199.588C188.771 199.68 188.771 199.824 188.928 199.916L192.831 202.166C192.919 202.212 193.015 202.236 193.114 202.236C193.212 202.236 193.309 202.212 193.396 202.166L197.102 200.028C197.138 200.017 197.169 199.996 197.191 199.966C197.213 199.937 197.226 199.9 197.226 199.864C197.226 199.827 197.213 199.79 197.191 199.761C197.169 199.732 197.138 199.71 197.102 199.7L193.179 197.456ZM120.048 238.062L123.748 235.924C123.906 235.832 123.912 235.688 123.748 235.602L119.845 233.346C119.757 233.304 119.661 233.282 119.563 233.282C119.465 233.282 119.369 233.304 119.281 233.346L115.574 235.504C115.423 235.596 115.417 235.74 115.574 235.832L119.477 238.089C119.568 238.128 119.667 238.145 119.766 238.141C119.865 238.137 119.961 238.11 120.048 238.062ZM182.368 203.694C182.28 203.652 182.183 203.631 182.086 203.631C181.989 203.631 181.892 203.652 181.804 203.694L178.104 205.833C177.947 205.925 177.94 206.069 178.104 206.161L182.007 208.412C182.095 208.457 182.191 208.481 182.29 208.481C182.388 208.481 182.485 208.457 182.572 208.412L186.271 206.273C186.429 206.181 186.435 206.036 186.271 205.951L182.368 203.694ZM210.576 187.42C210.488 187.377 210.391 187.356 210.294 187.356C210.197 187.356 210.1 187.377 210.012 187.42L206.279 189.584C206.246 189.596 206.218 189.617 206.197 189.646C206.177 189.675 206.166 189.71 206.166 189.745C206.166 189.78 206.177 189.814 206.197 189.843C206.218 189.872 206.246 189.894 206.279 189.905L210.215 192.162C210.303 192.204 210.4 192.226 210.498 192.226C210.595 192.226 210.691 192.204 210.78 192.162L214.479 190.03C214.637 189.938 214.637 189.794 214.479 189.702L210.576 187.42ZM219.891 186.553L210.373 181.056C210.285 181.014 210.189 180.993 210.091 180.993C209.993 180.993 209.897 181.014 209.809 181.056L206.109 183.188C205.951 183.28 205.951 183.424 206.109 183.516L215.594 188.993C215.682 189.036 215.779 189.057 215.877 189.057C215.974 189.057 216.071 189.036 216.159 188.993L219.858 186.862C220.01 186.79 220.016 186.645 219.858 186.553H219.891ZM162.163 215.365C162.077 215.319 161.98 215.296 161.882 215.296C161.783 215.296 161.686 215.319 161.599 215.365L157.04 217.989C156.882 218.081 156.882 218.225 157.04 218.317L160.976 220.574C161.064 220.615 161.16 220.637 161.258 220.637C161.356 220.637 161.452 220.615 161.541 220.574L166.093 217.95C166.25 217.857 166.257 217.713 166.093 217.628L162.163 215.365ZM175.828 207.493C175.74 207.451 175.643 207.429 175.546 207.429C175.448 207.429 175.352 207.451 175.263 207.493L169.57 210.773C169.412 210.865 169.405 211.009 169.57 211.094L173.506 213.351C173.594 213.393 173.69 213.415 173.788 213.415C173.885 213.415 173.982 213.393 174.07 213.351L179.764 210.071C179.922 209.985 179.928 209.835 179.764 209.75L175.828 207.493ZM149.634 222.614C149.546 222.572 149.45 222.55 149.351 222.55C149.254 222.55 149.158 222.572 149.069 222.614L118.612 240.201C118.454 240.293 118.447 240.437 118.612 240.522L122.515 242.779C122.602 242.825 122.698 242.848 122.797 242.848C122.895 242.848 122.991 242.825 123.079 242.779L153.504 225.179C153.54 225.169 153.571 225.147 153.594 225.117C153.616 225.088 153.628 225.052 153.628 225.014C153.628 224.977 153.616 224.942 153.594 224.912C153.571 224.882 153.54 224.861 153.504 224.851L149.634 222.614ZM117.49 241.192C117.402 241.146 117.306 241.122 117.207 241.122C117.109 241.122 117.013 241.146 116.925 241.192L112.373 243.816C112.215 243.908 112.209 244.052 112.373 244.144L116.309 246.393C116.396 246.439 116.493 246.462 116.591 246.462C116.69 246.462 116.786 246.439 116.873 246.393L121.465 243.769C121.501 243.759 121.532 243.738 121.554 243.708C121.577 243.679 121.589 243.643 121.589 243.606C121.589 243.569 121.577 243.532 121.554 243.503C121.532 243.473 121.501 243.452 121.465 243.441L117.49 241.192ZM155.925 218.999C155.838 218.953 155.741 218.93 155.643 218.93C155.544 218.93 155.447 218.953 155.361 218.999L150.808 221.623C150.65 221.715 150.644 221.86 150.808 221.951L154.744 224.208C154.832 224.249 154.928 224.271 155.026 224.271C155.124 224.271 155.22 224.249 155.309 224.208L159.861 221.584C160.018 221.498 160.025 221.348 159.861 221.262L155.925 218.999ZM111.225 244.807C111.137 244.764 111.04 244.743 110.943 244.743C110.845 244.743 110.749 244.764 110.661 244.807L106.108 247.431C105.951 247.522 105.951 247.666 106.108 247.759L110.044 250.015C110.13 250.059 110.226 250.081 110.323 250.081C110.42 250.081 110.515 250.059 110.602 250.015L115.161 247.39C115.319 247.299 115.319 247.155 115.161 247.069L111.225 244.807ZM168.448 211.77C168.361 211.724 168.264 211.701 168.166 211.701C168.068 211.701 167.971 211.724 167.884 211.77L163.331 214.394C163.173 214.486 163.173 214.631 163.331 214.722L167.267 216.972C167.354 217.017 167.451 217.041 167.549 217.041C167.647 217.041 167.744 217.017 167.831 216.972L172.384 214.348C172.541 214.256 172.541 214.112 172.384 214.02L168.448 211.77ZM187.807 200.618C187.719 200.572 187.623 200.549 187.525 200.549C187.426 200.549 187.33 200.572 187.242 200.618L183.503 202.704C183.346 202.796 183.346 202.94 183.503 203.032L187.439 205.282C187.526 205.327 187.623 205.351 187.721 205.351C187.819 205.351 187.916 205.327 188.003 205.282L191.703 203.144C191.861 203.052 191.861 202.908 191.703 202.822L187.807 200.618ZM199.791 192.09L203.498 189.958C203.655 189.866 203.655 189.722 203.498 189.63L199.562 187.373C199.474 187.332 199.378 187.31 199.28 187.31C199.182 187.31 199.086 187.332 198.998 187.373L195.298 189.505C195.141 189.597 195.141 189.748 195.298 189.833L199.234 192.09C199.319 192.12 199.41 192.13 199.499 192.121C199.589 192.112 199.675 192.084 199.752 192.038L199.791 192.09ZM176.681 192.549L180.381 190.417C180.538 190.325 180.538 190.181 180.381 190.089L176.445 187.833C176.357 187.79 176.26 187.769 176.162 187.769C176.065 187.769 175.968 187.79 175.88 187.833L172.181 189.971C172.023 190.063 172.023 190.207 172.181 190.292L176.117 192.549C176.202 192.58 176.294 192.592 176.385 192.582C176.476 192.574 176.563 192.544 176.642 192.497L176.681 192.549ZM163.344 213.082L174.162 206.83C174.195 206.819 174.223 206.797 174.244 206.768C174.264 206.739 174.275 206.705 174.275 206.67C174.275 206.634 174.264 206.6 174.244 206.572C174.223 206.542 174.195 206.521 174.162 206.509L170.226 204.252C170.138 204.206 170.042 204.183 169.943 204.183C169.845 204.183 169.749 204.206 169.661 204.252L158.844 210.497C158.811 210.509 158.782 210.531 158.762 210.56C158.741 210.588 158.73 210.622 158.73 210.658C158.73 210.693 158.741 210.728 158.762 210.756C158.782 210.785 158.811 210.807 158.844 210.819L162.78 213.076C162.868 213.118 162.964 213.141 163.061 213.143C163.159 213.144 163.255 213.123 163.344 213.082ZM193.809 195.166C193.897 195.209 193.994 195.23 194.091 195.23C194.189 195.23 194.285 195.209 194.373 195.166L198.073 193.035C198.23 192.942 198.23 192.798 198.073 192.707L194.137 190.45C194.049 190.408 193.952 190.386 193.855 190.386C193.757 190.386 193.661 190.408 193.573 190.45L189.866 192.588C189.833 192.601 189.805 192.622 189.784 192.651C189.764 192.68 189.753 192.714 189.753 192.749C189.753 192.785 189.764 192.819 189.784 192.848C189.805 192.876 189.833 192.898 189.866 192.91L193.809 195.166ZM188.791 191.939L192.497 189.807C192.647 189.716 192.654 189.571 192.497 189.479L188.594 187.222C188.506 187.18 188.409 187.158 188.311 187.158C188.214 187.158 188.117 187.18 188.029 187.222L184.336 189.361C184.179 189.453 184.172 189.597 184.336 189.689L188.239 191.945C188.322 191.981 188.412 191.998 188.503 191.997C188.593 191.996 188.682 191.976 188.764 191.939H188.791ZM157.959 216.211L161.658 214.073C161.815 213.981 161.815 213.836 161.658 213.745L157.722 211.488C157.634 211.446 157.538 211.424 157.44 211.424C157.343 211.424 157.246 211.446 157.158 211.488L153.452 213.626C153.294 213.718 153.294 213.863 153.452 213.948L157.355 216.204C157.441 216.244 157.535 216.265 157.631 216.265C157.725 216.265 157.82 216.244 157.906 216.204L157.959 216.211ZM181.823 202.048C181.911 202.094 182.007 202.117 182.106 202.117C182.204 202.117 182.301 202.094 182.388 202.048L186.087 199.91C186.245 199.817 186.252 199.673 186.087 199.582L182.184 197.332C182.098 197.286 182.001 197.262 181.903 197.262C181.805 197.262 181.707 197.286 181.621 197.332L177.92 199.47C177.763 199.562 177.757 199.706 177.92 199.798L181.823 202.048ZM130.859 231.798L134.559 229.659C134.717 229.567 134.723 229.423 134.559 229.337L130.655 227.081C130.569 227.036 130.472 227.012 130.373 227.012C130.275 227.012 130.178 227.036 130.092 227.081L126.391 229.22C126.234 229.311 126.228 229.456 126.391 229.548L130.327 231.798C130.409 231.841 130.499 231.865 130.591 231.868C130.683 231.872 130.775 231.854 130.859 231.817V231.798ZM136.271 228.675L139.971 226.537C140.128 226.445 140.128 226.3 139.971 226.215L136.035 223.958C135.948 223.913 135.851 223.889 135.753 223.889C135.655 223.889 135.558 223.913 135.471 223.958L131.771 226.097C131.613 226.189 131.613 226.333 131.771 226.425L135.707 228.675C135.792 228.724 135.888 228.75 135.986 228.754C136.085 228.758 136.183 228.737 136.271 228.694V228.675ZM125.453 234.92L129.154 232.782C129.311 232.69 129.311 232.545 129.154 232.46L125.218 230.204C125.13 230.161 125.033 230.14 124.935 230.14C124.838 230.14 124.741 230.161 124.653 230.204L120.954 232.343C120.796 232.434 120.796 232.578 120.954 232.671L124.89 234.926C124.977 234.971 125.072 234.995 125.17 234.997C125.268 234.999 125.365 234.98 125.453 234.94V234.92ZM147.101 222.456L150.802 220.318C150.959 220.226 150.959 220.081 150.802 219.99L146.866 217.74C146.78 217.694 146.684 217.67 146.586 217.67C146.49 217.67 146.394 217.694 146.308 217.74L142.602 219.879C142.444 219.97 142.444 220.114 142.602 220.2L146.538 222.456C146.623 222.498 146.718 222.52 146.814 222.519C146.909 222.518 147.004 222.494 147.088 222.449L147.101 222.456ZM141.696 225.572L145.396 223.433C145.554 223.342 145.56 223.198 145.396 223.105L141.46 220.856C141.373 220.81 141.276 220.786 141.178 220.786C141.079 220.786 140.983 220.81 140.896 220.856L137.196 222.994C137.039 223.086 137.032 223.23 137.196 223.322L141.132 225.572C141.219 225.617 141.316 225.641 141.414 225.641C141.512 225.641 141.609 225.617 141.696 225.572ZM152.514 219.327L156.22 217.188C156.255 217.178 156.287 217.157 156.309 217.127C156.332 217.097 156.343 217.062 156.343 217.025C156.343 216.988 156.332 216.951 156.309 216.922C156.287 216.892 156.255 216.871 156.22 216.86L152.284 214.61C152.197 214.565 152.1 214.541 152.002 214.541C151.903 214.541 151.807 214.565 151.72 214.61L148.02 216.749C147.863 216.841 147.863 216.985 148.02 217.07L151.923 219.327C152.011 219.374 152.109 219.398 152.209 219.398C152.308 219.398 152.406 219.374 152.494 219.327H152.514ZM179.653 174.496C179.739 174.542 179.837 174.565 179.935 174.565C180.033 174.565 180.13 174.542 180.216 174.496L183.923 172.358C184.08 172.265 184.08 172.121 183.923 172.036L182.887 171.433C182.798 171.39 182.702 171.369 182.605 171.369C182.507 171.369 182.41 171.39 182.322 171.433L178.623 173.571C178.465 173.663 178.465 173.807 178.623 173.899L179.653 174.496ZM152.907 191.617C152.994 191.662 153.089 191.684 153.186 191.684C153.283 191.684 153.378 191.662 153.465 191.617L157.171 189.479C157.329 189.388 157.329 189.243 157.171 189.151L153.235 186.894C153.147 186.852 153.051 186.83 152.953 186.83C152.855 186.83 152.759 186.852 152.671 186.894L148.971 189.033C148.938 189.045 148.909 189.067 148.889 189.095C148.869 189.124 148.858 189.158 148.858 189.193C148.858 189.229 148.869 189.263 148.889 189.292C148.909 189.321 148.938 189.342 148.971 189.354L152.907 191.617ZM163.725 185.372C163.813 185.414 163.909 185.436 164.007 185.436C164.104 185.436 164.201 185.414 164.289 185.372L167.989 183.241C168.146 183.149 168.146 183.004 167.989 182.913L164.053 180.656C163.965 180.614 163.868 180.592 163.77 180.592C163.673 180.592 163.577 180.614 163.488 180.656L159.789 182.794C159.756 182.806 159.727 182.828 159.706 182.857C159.686 182.886 159.675 182.92 159.675 182.955C159.675 182.99 159.686 183.025 159.706 183.054C159.727 183.082 159.756 183.104 159.789 183.116L163.725 185.372ZM146.288 195.429C146.375 195.474 146.472 195.498 146.57 195.498C146.669 195.498 146.765 195.474 146.853 195.429L150.552 193.29C150.709 193.198 150.709 193.054 150.552 192.962L146.616 190.713C146.529 190.667 146.432 190.644 146.334 190.644C146.236 190.644 146.139 190.667 146.052 190.713L142.398 192.864C142.241 192.956 142.241 193.1 142.398 193.192L146.288 195.429ZM158.3 188.495C158.386 188.54 158.483 188.564 158.581 188.564C158.68 188.564 158.777 188.54 158.863 188.495L162.564 186.363C162.721 186.271 162.727 186.127 162.564 186.035L158.628 183.778C158.539 183.737 158.443 183.715 158.346 183.715C158.248 183.715 158.151 183.737 158.063 183.778L154.364 185.917C154.206 186.002 154.199 186.153 154.364 186.238L158.3 188.495ZM135.471 201.674C135.557 201.719 135.653 201.743 135.749 201.743C135.847 201.743 135.943 201.719 136.029 201.674L139.735 199.536C139.892 199.444 139.892 199.3 139.735 199.215L135.799 196.958C135.711 196.912 135.615 196.889 135.517 196.889C135.418 196.889 135.322 196.912 135.234 196.958L131.535 199.096C131.378 199.188 131.378 199.332 131.535 199.424L135.471 201.674ZM140.876 198.552C140.963 198.597 141.06 198.621 141.158 198.621C141.256 198.621 141.353 198.597 141.44 198.552L145.14 196.413C145.298 196.321 145.304 196.177 145.14 196.092L141.237 193.835C141.15 193.79 141.053 193.766 140.955 193.766C140.857 193.766 140.76 193.79 140.673 193.835L136.973 195.974C136.815 196.065 136.809 196.209 136.973 196.302L140.876 198.552ZM168.822 180.761C168.909 180.806 169.006 180.83 169.104 180.83C169.202 180.83 169.299 180.806 169.386 180.761L173.093 178.622C173.243 178.53 173.25 178.386 173.093 178.301L172.056 177.697C171.967 177.655 171.871 177.633 171.774 177.633C171.677 177.633 171.58 177.655 171.492 177.697L167.792 179.829C167.634 179.921 167.628 180.065 167.792 180.157L168.822 180.761ZM185.051 171.393C185.138 171.438 185.235 171.462 185.333 171.462C185.431 171.462 185.528 171.438 185.615 171.393L189.315 169.254C189.473 169.163 189.479 169.018 189.315 168.926L188.272 168.329C188.184 168.288 188.087 168.266 187.99 168.266C187.893 168.266 187.796 168.288 187.708 168.329L184.002 170.468C183.966 170.478 183.935 170.5 183.912 170.529C183.89 170.559 183.878 170.595 183.878 170.632C183.878 170.669 183.89 170.705 183.912 170.735C183.935 170.764 183.966 170.786 184.002 170.796L185.051 171.393ZM193.258 176.129C193.345 176.175 193.442 176.198 193.54 176.198C193.638 176.198 193.735 176.175 193.822 176.129L197.522 173.991C197.679 173.899 197.679 173.755 197.522 173.67L193.586 171.413C193.5 171.367 193.404 171.344 193.307 171.344C193.21 171.344 193.114 171.367 193.028 171.413L189.322 173.551C189.165 173.644 189.165 173.788 189.322 173.879L193.258 176.129ZM205.164 188.928L208.864 186.796C209.021 186.704 209.028 186.56 208.864 186.468L204.961 184.212C204.873 184.169 204.776 184.148 204.679 184.148C204.581 184.148 204.485 184.169 204.397 184.212L200.736 186.337C200.579 186.429 200.572 186.573 200.736 186.665L204.639 188.921C204.722 188.958 204.811 188.978 204.901 188.98C204.991 188.981 205.081 188.963 205.164 188.928ZM174.247 177.652C174.334 177.697 174.431 177.721 174.529 177.721C174.627 177.721 174.724 177.697 174.811 177.652L178.511 175.513C178.669 175.421 178.669 175.277 178.511 175.191L177.468 174.588C177.381 174.542 177.284 174.518 177.186 174.518C177.087 174.518 176.991 174.542 176.903 174.588L173.184 176.713C173.027 176.805 173.027 176.95 173.184 177.041L174.247 177.652ZM130.072 204.81C130.159 204.855 130.255 204.879 130.354 204.879C130.452 204.879 130.549 204.855 130.636 204.81L134.336 202.671C134.493 202.58 134.493 202.435 134.336 202.35L130.439 200.08C130.351 200.038 130.255 200.017 130.157 200.017C130.06 200.017 129.963 200.038 129.875 200.08L126.169 202.219C126.018 202.31 126.011 202.455 126.169 202.547L130.072 204.81Z" fill="#455A64"/>
<path d="M149.883 236.6L183.221 217.353C183.784 217.068 184.407 216.919 185.038 216.919C185.669 216.919 186.292 217.068 186.855 217.353L205.984 228.386C206.988 228.97 206.988 229.908 205.984 230.492L172.652 249.733C172.089 250.02 171.466 250.171 170.832 250.171C170.199 250.171 169.575 250.02 169.012 249.733L149.896 238.699C148.912 238.128 148.912 237.177 149.883 236.6Z" fill="#263238"/>
<path d="M144.241 90.6859C133.825 100.047 124.824 99.555 119.196 95.219C113.574 106.056 104.573 116.932 94.1564 119.602L88.2066 135.674C88.2066 135.674 91.3942 139.348 91.3942 148.138C91.3629 151.822 90.8669 155.487 89.9186 159.047C88.8364 163.383 87.4386 167.871 87.4386 175.369C87.4386 180.446 88.0946 185.386 90.6793 189.879C92.2393 192.599 94.4851 194.86 97.1935 196.439L88.1469 191.191C85.2946 189.614 82.9251 187.29 81.2924 184.468C78.7208 179.967 78.0648 175.034 78.0648 169.95C78.0648 162.459 79.4619 157.965 80.544 153.623C81.4873 150.064 81.9768 146.401 82.0008 142.719C82.0008 133.93 78.8124 130.255 78.8124 130.255L84.7557 114.183C95.1731 111.514 104.173 100.637 109.795 89.8001C115.424 94.1361 124.424 94.6284 134.841 85.267L144.241 90.6859Z" fill="#69D8AA"/>
<path opacity="0.8" d="M113.108 91.7091L109.828 89.8C110.832 90.5782 111.935 91.2196 113.108 91.7091Z" fill="white"/>
<path opacity="0.85" d="M134.854 85.2799C126.28 92.9817 118.671 94.0115 113.108 91.7221L119.195 95.2319C124.824 99.5679 133.824 100.06 144.241 90.6988L134.854 85.2799Z" fill="white"/>
<path opacity="0.65" d="M109.808 89.8C104.186 100.637 95.1853 111.513 84.7679 114.183L94.1555 119.602C104.573 116.932 113.573 106.056 119.195 95.2189L109.808 89.8Z" fill="white"/>
<path opacity="0.55" d="M84.768 114.183L78.8248 130.255L88.2058 135.674L94.1557 119.602L84.768 114.183Z" fill="white"/>
<path opacity="0.4" d="M90.6783 189.879C88.1074 185.386 87.4383 180.447 87.4383 175.369C87.4383 167.871 88.8354 163.384 89.9176 159.047C90.8667 155.487 91.362 151.823 91.394 148.138C91.394 139.348 88.2056 135.674 88.2056 135.674L78.8245 130.256C78.8245 130.256 82.0129 133.929 82.0129 142.72C81.9809 146.402 81.4827 150.065 80.5307 153.623C79.4478 157.965 78.0507 162.459 78.0507 169.951C78.0507 175.034 78.7067 179.967 81.2914 184.461C82.9242 187.283 85.2936 189.607 88.1467 191.185L97.1925 196.433C94.4856 194.856 92.2391 192.596 90.6783 189.879Z" fill="white"/>
<path opacity="0.05" d="M90.6783 189.879C88.1074 185.386 87.4383 180.447 87.4383 175.369C87.4383 167.871 88.8354 163.384 89.9176 159.047C90.8667 155.487 91.362 151.823 91.394 148.138C91.394 139.348 88.2056 135.674 88.2056 135.674L78.8245 130.256C78.8245 130.256 82.0129 133.929 82.0129 142.72C81.9809 146.402 81.4827 150.065 80.5307 153.623C79.4478 157.965 78.0507 162.459 78.0507 169.951C78.0507 175.034 78.7067 179.967 81.2914 184.461C82.9242 187.283 85.2936 189.607 88.1467 191.185L97.1925 196.433C94.4856 194.856 92.2391 192.596 90.6783 189.879Z" fill="black"/>
<path d="M119.195 200.887C103.635 201.064 94.7199 196.951 90.6719 189.879C88.1075 185.386 87.4384 180.447 87.4384 175.362C87.4384 167.871 88.829 163.391 89.9177 159.047C90.8661 155.489 91.3621 151.827 91.3941 148.145C91.3941 139.354 88.2057 135.681 88.2057 135.681L94.1555 119.602C104.573 116.932 113.573 106.049 119.195 95.2189C124.824 99.5549 133.824 100.047 144.241 90.6859L150.191 99.8699C148.147 105.01 147.064 110.482 146.996 116.014C146.941 119.139 147.444 122.249 148.479 125.198C149.561 128.281 150.958 131.161 150.958 138.652C150.942 144.879 149.845 151.057 147.718 156.909C143.664 168.691 134.762 183.09 119.195 200.887Z" fill="#69D8AA"/>
<path opacity="0.75" d="M119.195 200.887C103.635 201.064 94.7199 196.951 90.6719 189.879C88.1075 185.386 87.4384 180.447 87.4384 175.362C87.4384 167.871 88.829 163.391 89.9177 159.047C90.8661 155.489 91.3621 151.827 91.3941 148.145C91.3941 139.354 88.2057 135.681 88.2057 135.681L94.1555 119.602C104.573 116.932 113.573 106.049 119.195 95.2189C124.824 99.5549 133.824 100.047 144.241 90.6859L150.191 99.8699C148.147 105.01 147.064 110.482 146.996 116.014C146.941 119.139 147.444 122.249 148.479 125.198C149.561 128.281 150.958 131.161 150.958 138.652C150.942 144.879 149.845 151.057 147.718 156.909C143.664 168.691 134.762 183.09 119.195 200.887Z" fill="white"/>
<path d="M117.352 196.846C105.301 196.702 97.5077 193.684 94.1885 187.879C92.3121 184.598 91.4794 180.742 91.4794 175.362C91.4786 170.672 92.1412 166.006 93.4474 161.501C93.5717 161.002 93.7034 160.517 93.8212 160.025C94.8583 156.149 95.3965 152.157 95.4219 148.145C95.4219 141.736 93.8866 137.544 92.6663 135.222L97.2583 122.889C108.41 119.012 116.473 107.998 120.743 100.775C123.044 101.753 125.519 102.253 128.018 102.244C133.057 102.244 138.18 100.368 143.297 96.6617L145.691 100.374C143.947 105.417 143.026 110.706 142.962 116.04C142.904 119.628 143.482 123.196 144.668 126.582C144.792 126.936 144.924 127.291 145.055 127.645C146.012 130.269 146.918 132.742 146.918 138.692C146.896 144.47 145.875 150.2 143.9 155.63C139.919 167.188 130.99 181.056 117.352 196.846Z" fill="#69D8AA"/>
<path opacity="0.4" d="M117.352 196.846C105.301 196.702 97.5077 193.684 94.1885 187.879C92.3121 184.598 91.4794 180.742 91.4794 175.362C91.4786 170.672 92.1412 166.006 93.4474 161.501C93.5717 161.002 93.7034 160.517 93.8212 160.025C94.8583 156.149 95.3965 152.157 95.4219 148.145C95.4219 141.736 93.8866 137.544 92.6663 135.222L97.2583 122.889C108.41 119.012 116.473 107.998 120.743 100.775C123.044 101.753 125.519 102.253 128.018 102.244C133.057 102.244 138.18 100.368 143.297 96.6617L145.691 100.374C143.947 105.417 143.026 110.706 142.962 116.04C142.904 119.628 143.482 123.196 144.668 126.582C144.792 126.936 144.924 127.291 145.055 127.645C146.012 130.269 146.918 132.742 146.918 138.692C146.896 144.47 145.875 150.2 143.9 155.63C139.919 167.188 130.99 181.056 117.352 196.846Z" fill="white"/>
<path opacity="0.15" d="M117.352 196.846C105.301 196.702 97.5077 193.684 94.1885 187.879C92.3121 184.598 91.4794 180.742 91.4794 175.362C91.4786 170.672 92.1412 166.006 93.4474 161.501C93.5717 161.002 93.7034 160.517 93.8212 160.025C94.8583 156.149 95.3965 152.157 95.4219 148.145C95.4219 141.736 93.8866 137.544 92.6663 135.222L97.2583 122.889C108.41 119.012 116.473 107.998 120.743 100.775C123.044 101.753 125.519 102.253 128.018 102.244C133.057 102.244 138.18 100.368 143.297 96.6617L145.691 100.374C143.947 105.417 143.026 110.706 142.962 116.04C142.904 119.628 143.482 123.196 144.668 126.582C144.792 126.936 144.924 127.291 145.055 127.645C146.012 130.269 146.918 132.742 146.918 138.692C146.896 144.47 145.875 150.2 143.9 155.63C139.919 167.188 130.99 181.056 117.352 196.846Z" fill="black"/>
<path opacity="0.8" d="M96.9507 191.217C101.057 194.838 107.879 196.734 117.352 196.846L111.31 193.402C106.436 193.468 101.584 192.73 96.9507 191.217Z" fill="white"/>
<path opacity="0.15" d="M142.536 98.5577L145.684 100.374L143.29 96.6617L141.919 97.6065L142.536 98.5577Z" fill="black"/>
<path d="M141.512 124.765C140.326 121.379 139.748 117.81 139.806 114.223C139.87 108.889 140.792 103.599 142.536 98.5578L141.919 97.6065C137.261 100.683 132.604 102.244 128.012 102.244C125.512 102.253 123.037 101.753 120.737 100.775C116.466 107.991 108.404 119.012 97.2516 122.889L92.6596 135.222C93.88 137.544 95.4152 141.736 95.4152 148.145C95.389 152.157 94.8516 156.149 93.8145 160.025C93.6967 160.517 93.5651 161.002 93.4407 161.501C92.1345 166.006 91.472 170.672 91.4727 175.362C91.4727 180.741 92.3054 184.599 94.1818 187.879C95.1694 189.568 96.5127 191.023 98.1178 192.143C102.145 193.98 107.512 194.942 114.216 195.029C127.848 179.233 136.776 165.372 140.758 153.812C142.733 148.383 143.754 142.652 143.775 136.875C143.775 130.925 142.864 128.452 141.906 125.828C141.768 125.473 141.637 125.119 141.512 124.765Z" fill="#455A64"/>
<path d="M97.2516 122.889L92.6596 135.221C93.88 137.544 95.4152 141.735 95.4152 148.145C95.389 152.156 94.8516 156.149 93.8145 160.025C93.6967 160.517 93.5651 161.002 93.4407 161.501C92.1345 166.005 91.472 170.672 91.4727 175.362C91.4727 180.741 92.3054 184.599 94.1818 187.879C95.1694 189.568 96.5127 191.023 98.1178 192.143C102.145 193.98 107.512 194.941 114.216 195.029V149.568L120.776 147.6V100.775C118.839 104.057 116.646 107.18 114.216 110.116C109.841 115.384 104.133 120.495 97.2516 122.889Z" fill="#37474F"/>
<path d="M129.966 132.788C129.897 132.659 129.813 132.538 129.717 132.427L129.684 132.388C129.493 132.179 129.272 132 129.028 131.856L126.844 130.596C126.449 130.375 126.025 130.212 125.585 130.111C125.321 130.053 125.053 130.012 124.784 129.987V123.519C124.784 120.271 123.558 117.706 121.419 116.473C119.281 115.24 116.827 115.45 114.314 116.919C109.644 119.615 105.99 126.195 105.99 131.895V139.532L101.634 142.044C101.505 142.119 101.382 142.204 101.267 142.3L101.148 142.391C100.97 142.534 100.825 142.714 100.722 142.917C100.619 143.121 100.561 143.344 100.552 143.572V169.767C100.554 169.879 100.569 169.991 100.598 170.101C100.734 170.542 101.026 170.919 101.417 171.164L101.66 171.322L102.729 171.938L103.852 172.594C104.289 172.836 104.764 173.007 105.255 173.099C106.597 173.396 108.001 173.215 109.224 172.587L129.054 161.14C129.361 161.004 129.626 160.789 129.822 160.517C130.018 160.245 130.138 159.926 130.17 159.592V133.411C130.154 133.19 130.084 132.975 129.966 132.788ZM110.254 131.895C110.254 127.724 113.088 122.567 116.44 120.632C117.581 119.976 118.605 119.806 119.254 120.186C120.022 120.626 120.474 121.872 120.474 123.519V131.154L114.839 134.434L110.247 137.058L110.254 131.895Z" fill="#263238"/>
<path d="M132.434 134.566C132.402 134.231 132.282 133.912 132.087 133.64C131.89 133.367 131.625 133.153 131.318 133.018L129.134 131.751C128.302 131.327 127.381 131.105 126.447 131.105C125.514 131.105 124.593 131.327 123.761 131.751L103.93 143.199C103.623 143.335 103.358 143.552 103.162 143.825C102.966 144.098 102.846 144.418 102.815 144.754V170.948C102.844 171.283 102.963 171.604 103.159 171.878C103.356 172.151 103.622 172.367 103.93 172.502L106.114 173.768C106.948 174.189 107.868 174.407 108.801 174.407C109.734 174.407 110.654 174.189 111.487 173.768L131.318 162.314C131.625 162.178 131.89 161.964 132.085 161.692C132.282 161.42 132.402 161.1 132.434 160.767V134.566Z" fill="#69D8AA"/>
<path opacity="0.4" d="M106.114 147.6L103.93 146.288C102.441 145.436 102.441 144.044 103.93 143.186L123.761 131.738C124.593 131.313 125.513 131.092 126.447 131.092C127.381 131.092 128.302 131.313 129.134 131.738L131.318 133.004C132.801 133.857 132.801 135.248 131.318 136.1L111.52 147.6C110.683 148.026 109.756 148.248 108.817 148.248C107.878 148.248 106.952 148.026 106.114 147.6Z" fill="white"/>
<path opacity="0.1" d="M108.804 148.21V174.404C107.866 174.418 106.94 174.193 106.114 173.748L103.924 172.528C103.615 172.392 103.349 172.175 103.154 171.9C102.959 171.626 102.842 171.303 102.815 170.967V144.754C102.844 145.087 102.963 145.406 103.158 145.679C103.354 145.951 103.618 146.166 103.924 146.301L106.114 147.567C106.94 148.01 107.867 148.231 108.804 148.21Z" fill="black"/>
<path d="M123.236 161.167L118.5 163.902L119.234 155.335C118.671 155.033 118.31 154.298 118.31 153.242C118.31 151.353 119.451 149.162 120.868 148.348C122.285 147.535 123.426 148.394 123.426 150.316C123.397 151.432 123.079 152.522 122.501 153.478L123.236 161.167Z" fill="#455A64"/>
<path d="M123.236 161.167L118.946 158.693L118.5 163.902L123.236 161.167Z" fill="#37474F"/>
<path d="M120.868 148.348C119.837 149.044 119.068 150.065 118.684 151.247L122.501 153.452C123.079 152.496 123.397 151.406 123.426 150.289C123.426 148.394 122.285 147.528 120.868 148.348Z" fill="#37474F"/>
<path d="M127.074 135.136V124.64C127.074 121.36 125.847 118.828 123.709 117.595C121.57 116.361 119.117 116.578 116.604 118.041C111.933 120.737 108.279 127.316 108.279 133.017V143.546C108.298 143.738 108.37 143.922 108.485 144.077C108.601 144.232 108.757 144.352 108.935 144.425C109.405 144.661 109.922 144.784 110.447 144.784C110.973 144.784 111.49 144.661 111.959 144.425C112.138 144.352 112.294 144.232 112.41 144.077C112.525 143.922 112.597 143.738 112.615 143.546V133.05C112.615 128.878 115.45 123.722 118.802 121.787C119.943 121.131 120.973 120.967 121.623 121.34C122.383 121.78 122.842 123.026 122.842 124.673V135.169C122.863 135.359 122.935 135.54 123.051 135.693C123.167 135.845 123.321 135.964 123.498 136.035C123.968 136.271 124.486 136.393 125.011 136.393C125.536 136.393 126.054 136.271 126.523 136.035C126.699 135.961 126.852 135.842 126.967 135.69C127.082 135.538 127.156 135.359 127.179 135.169L127.074 135.136Z" fill="#E0E0E0"/>
<path d="M152.566 181.194L155.452 179.527L156.593 178.137L153.708 179.803L152.566 181.194Z" fill="#69D8AA"/>
<path opacity="0.4" d="M152.566 181.194L155.452 179.527L156.593 178.137L153.708 179.803L152.566 181.194Z" fill="black"/>
<path d="M160.418 185.727L163.305 184.06L165.719 181.922L162.832 183.588L160.418 185.727Z" fill="#69D8AA"/>
<path opacity="0.4" d="M160.418 185.727L163.305 184.06L165.719 181.922L162.832 183.588L160.418 185.727Z" fill="black"/>
<path d="M184.992 191.487C185.675 192.402 186.089 193.49 186.186 194.628C185.509 193.71 185.095 192.623 184.992 191.487ZM191.703 191.572C190.732 184.959 187.183 178.452 182.946 175.972C180.912 174.798 179.01 174.759 177.527 175.637L174.811 177.205L174.653 177.297C174.533 177.363 174.416 177.437 174.306 177.52C174.074 177.672 173.854 177.844 173.65 178.032L173.558 178.117C173.473 178.202 173.388 178.3 173.309 178.393C173.23 178.484 173.106 178.628 173.02 178.747C172.824 179.005 172.647 179.277 172.489 179.56C172.41 179.705 172.325 179.855 172.253 180.013L148.512 166.309L145.626 167.969V169.812L145.875 169.95L146.104 170.087V170.474L145.626 170.75V171.82L149.116 179.199L152.566 181.167L153.708 179.777L156.751 181.6L158.496 184.592L160.425 185.7L162.832 183.562L165.791 185.274L166.788 189.374L171.748 192.241C171.999 193.286 172.313 194.316 172.685 195.324L172.797 195.645C174.45 199.975 177.074 203.688 180.013 205.4C180.371 205.605 180.743 205.783 181.128 205.932C181.333 206.012 181.541 206.082 181.751 206.141C181.933 206.192 182.117 206.234 182.303 206.266C182.884 206.375 183.479 206.375 184.061 206.266L184.303 206.207C184.418 206.187 184.53 206.154 184.638 206.108L184.894 206.01C184.986 205.975 185.077 205.934 185.163 205.885L185.405 205.761L185.53 205.689L185.589 205.656L188.311 204.088C190.503 202.815 191.926 199.601 191.926 195.055C191.928 193.882 191.843 192.711 191.67 191.552L191.703 191.572Z" fill="#69D8AA"/>
<path d="M184.113 197.063C182.978 196.407 182.053 194.439 182.053 192.7C182.053 190.961 182.978 190.076 184.113 190.732C185.248 191.388 186.179 193.356 186.179 195.101C186.179 196.846 185.254 197.719 184.113 197.063ZM188.79 193.238C187.819 186.625 184.264 180.085 180.026 177.639C178.058 176.51 176.254 176.425 174.778 177.205L174.62 177.297C174.499 177.363 174.383 177.437 174.273 177.52C174.041 177.672 173.821 177.844 173.617 178.032L173.525 178.117C173.44 178.202 173.355 178.301 173.275 178.393C173.197 178.484 173.073 178.629 172.987 178.747C172.791 179.005 172.614 179.277 172.456 179.56C172.377 179.705 172.291 179.855 172.219 180.013C171.793 180.905 171.485 181.849 171.301 182.82L145.632 167.969V169.812L145.881 169.95L146.11 170.088V170.475L145.632 170.751V171.82L149.122 179.199L152.572 181.167L153.714 179.777L156.758 181.601L158.502 184.592L160.431 185.7L162.838 183.562L165.798 185.274L166.795 189.374L171.754 192.241C172.006 193.286 172.319 194.316 172.692 195.324L172.803 195.645C174.457 199.975 177.081 203.688 180.019 205.4C180.377 205.605 180.75 205.783 181.134 205.932C181.339 206.012 181.547 206.082 181.758 206.141C181.939 206.192 182.123 206.234 182.309 206.266C182.89 206.375 183.486 206.375 184.067 206.266L184.31 206.207C184.425 206.188 184.537 206.154 184.644 206.108L184.9 206.01C184.993 205.975 185.083 205.934 185.169 205.886L185.411 205.761L185.537 205.689L185.595 205.656C187.694 204.344 189.046 201.162 189.046 196.721C189.044 195.556 188.958 194.391 188.79 193.238Z" fill="#69D8AA"/>
<path opacity="0.4" d="M186.18 195.075C186.18 196.833 185.255 197.699 184.119 197.043C182.985 196.387 182.053 194.419 182.053 192.68C182.053 190.942 182.978 190.056 184.119 190.712C184.458 190.911 184.755 191.174 184.992 191.487C185.092 192.624 185.505 193.711 186.186 194.628C186.193 194.777 186.191 194.927 186.18 195.075Z" fill="black"/>
<path opacity="0.4" d="M191.939 195.074C191.939 199.62 190.516 202.835 188.324 204.108L185.602 205.676C187.701 204.364 189.052 201.182 189.052 196.74C189.049 195.568 188.961 194.398 188.791 193.238C187.82 186.625 184.264 180.085 180.026 177.638C178.058 176.51 176.254 176.425 174.778 177.205L177.494 175.637C179.003 174.758 180.879 174.798 182.913 175.972C187.151 178.432 190.699 184.992 191.67 191.552C191.848 192.718 191.938 193.895 191.939 195.074Z" fill="white"/>
<path d="M189.052 196.741C189.052 201.182 187.701 204.35 185.602 205.676L188.324 204.108C190.516 202.835 191.939 199.621 191.939 195.075C191.939 194.904 191.939 194.734 191.939 194.569L189.059 196.236C189.046 196.4 189.052 196.57 189.052 196.741Z" fill="#69D8AA"/>
<path opacity="0.1" d="M189.052 196.741C189.052 201.182 187.701 204.35 185.602 205.676L188.324 204.108C190.516 202.835 191.939 199.621 191.939 195.075C191.939 194.904 191.939 194.734 191.939 194.569L189.059 196.236C189.046 196.4 189.052 196.57 189.052 196.741Z" fill="black"/>
<path opacity="0.15" d="M171.439 184.71V185.648L145.626 170.75L146.104 170.475V170.081L171.439 184.71Z" fill="black"/>
<path opacity="0.15" d="M171.439 185.103V185.648L145.626 170.75L146.104 170.475V170.468L171.439 185.103Z" fill="black"/>
<path opacity="0.15" d="M182.67 204.134C181.692 204.107 180.74 203.822 179.908 203.307C175.697 200.873 172.272 193.644 172.272 187.189C172.272 183.424 173.414 180.629 175.402 179.462C176.792 178.661 178.432 178.76 180.151 179.75C184.356 182.184 187.78 189.413 187.78 195.868C187.78 199.633 186.639 202.428 184.651 203.596C184.051 203.95 183.367 204.136 182.67 204.134ZM177.422 179.409C176.81 179.408 176.207 179.569 175.677 179.875C173.866 180.918 172.791 183.653 172.791 187.189C172.791 193.493 176.071 200.532 180.183 202.887C181.745 203.793 183.215 203.891 184.447 203.182C186.258 202.14 187.334 199.404 187.334 195.868C187.334 189.564 184.054 182.518 179.941 180.17C179.173 179.694 178.292 179.431 177.389 179.409H177.422Z" fill="black"/>
<path opacity="0.5" d="M172.252 180.013C171.826 180.906 171.518 181.849 171.334 182.82L145.632 167.969L148.518 166.309L172.252 180.013Z" fill="white"/>
<path d="M270.272 252.56C270.37 253.459 270.495 255.977 275.061 256.607C279.626 257.237 282.5 255.722 283.72 253.524C284.94 251.327 284.658 249.536 284.848 247.502C285.039 245.468 286.724 244.386 287.21 243.337C287.919 241.795 286.882 239.401 286.882 239.401L270.272 252.56Z" fill="#263238"/>
<path d="M236.927 245.436C236.82 245.804 236.791 246.19 236.842 246.569C236.893 246.949 237.023 247.313 237.223 247.64C238.245 248.449 239.422 249.041 240.68 249.379C241.939 249.717 243.254 249.795 244.544 249.608C247.33 249.228 249.984 248.187 252.284 246.571C254.049 245.389 256.138 244.786 258.26 244.846C260.458 244.774 262.066 244.288 262.236 243.71C262.524 242.694 262.524 242.057 262.046 242.084L236.927 245.436Z" fill="#263238"/>
<path d="M285.793 235.884C285.222 240.05 277.147 239.716 277.803 236.39L276.366 226.281L285.504 226.563L285.793 235.884Z" fill="#FFA8A7"/>
<path d="M270.574 250.513C270.98 249.758 272.155 248.683 272.673 248.007C275.411 244.522 277.062 240.308 277.422 235.891C277.422 235.648 277.468 235.176 277.718 235.025C277.966 234.874 278.209 235.084 278.472 235.202C278.923 235.393 279.401 235.517 279.889 235.569C281.502 235.753 283.294 235.366 283.694 235.419C284.094 235.471 284.107 236.436 284.081 237.485C284.658 237.124 284.848 236.403 285.36 235.982C285.642 235.753 285.766 235.747 285.76 235.372C285.76 235.13 285.76 234.907 285.76 234.664C286.18 234.546 286.528 236.134 286.869 237.348C287.262 238.758 287.754 240.345 287.203 241.775C286.846 242.555 286.406 243.294 285.891 243.98C285.019 245.172 284.451 246.558 284.238 248.02C284.172 248.676 284.238 249.332 284.133 249.949C283.982 251.022 283.526 252.029 282.821 252.851C282.115 253.673 281.189 254.275 280.151 254.587C277.363 255.453 273.185 255.315 270.731 253.373C269.878 252.697 270.167 251.248 270.574 250.513Z" fill="#37474F"/>
<path d="M260.183 235.189C257.965 236.908 255.302 237.919 252.58 236.679L251.924 219.668L261.108 221.315L260.183 235.189Z" fill="#FFA8A7"/>
<path d="M238.784 242.497C239.394 242.3 239.991 242.084 240.581 241.841C242.23 241.17 243.823 240.367 245.344 239.44C246 239.034 246.656 238.607 247.312 238.128C247.968 237.65 248.624 237.131 249.28 236.607C249.622 236.306 249.932 235.972 250.205 235.609C250.757 234.932 251.22 234.187 251.582 233.392C251.637 233.204 251.758 233.044 251.924 232.939C252.035 232.9 252.154 232.892 252.27 232.915C252.385 232.938 252.492 232.992 252.58 233.071C252.737 233.199 252.907 233.314 253.085 233.412L253.622 233.634C254.197 233.869 254.803 234.018 255.42 234.074C257.743 234.277 257.815 233.812 257.913 234.559C257.935 234.839 257.935 235.12 257.913 235.399C259.14 235.196 260.104 234.802 260.156 234.337L260.301 232.854C261.521 232.743 261.613 234.927 262.007 237.38C262.328 239.348 262.806 240.798 262.256 242.261C260.412 243.868 257.159 243.481 255.308 243.783C252.684 244.216 251.458 246.158 247.817 247.417C241.913 249.451 238.233 247.109 237.131 246.105C236.416 244.839 236.271 243.298 238.784 242.497Z" fill="#37474F"/>
<path d="M283.215 134.598C283.681 141.814 284.527 152.382 284.822 160.72C285.373 176.385 285.157 194.249 285.157 194.249C286.033 197.534 286.597 200.894 286.843 204.285C287.217 214.296 287.151 236.77 287.151 236.77C287.151 236.77 282.999 240.949 276.793 237.669C276.793 237.669 271.289 206.181 269.754 196.289C268.285 186.875 265.418 168.081 265.418 168.081L264.106 194.793C265.101 198.99 265.431 203.318 265.083 207.617C264.749 212.209 262.131 234.848 262.131 234.848C259.743 237.085 252.79 235.865 251.268 234.087C251.268 234.087 248.834 200.631 248.559 195.79C247.975 185.34 246.42 146.367 247.201 140.318C247.981 134.27 283.215 134.598 283.215 134.598Z" fill="#263238"/>
<path d="M265.417 168.054L263.594 155.997C263.594 155.997 258.588 155.052 254.928 152.336C254.928 152.336 256.352 155.557 261.888 157.853L263.712 169.084L264.145 194.766L265.417 168.054Z" fill="black"/>
<path d="M275.644 86.2182C275.979 87.576 278.268 87.3658 279.292 87.1105C279.899 86.9825 280.439 86.6378 280.808 86.1396C281.178 85.6415 281.353 85.0255 281.3 84.4073C281.818 84.2691 282.284 83.9847 282.644 83.5876C282.887 83.2676 283.025 82.8815 283.042 82.48C283.058 82.0793 282.951 81.6829 282.736 81.344C283.151 81.0487 283.478 80.6444 283.679 80.176C283.881 79.7069 283.949 79.192 283.877 78.6873C283.738 77.9564 283.336 77.3011 282.749 76.8436C282.181 76.384 281.473 76.1316 280.742 76.1287C280.506 76.1287 280.269 76.6014 280.611 76.6407C281.143 76.744 281.643 76.968 282.074 77.2967C282.522 77.6102 282.868 78.048 283.071 78.5564C283.196 78.9593 283.196 79.392 283.07 79.7956C282.943 80.1985 282.696 80.5534 282.362 80.8131C282.242 80.6625 282.108 80.5244 281.962 80.3993C281.506 79.9913 280.907 79.7789 280.296 79.8087C280.07 79.8036 279.847 79.8618 279.653 79.9782C279.459 80.0945 279.302 80.2633 279.2 80.4647C279.043 80.9767 279.574 81.4095 279.968 81.6327C280.253 81.7942 280.57 81.8931 280.898 81.9222C281.224 81.952 281.554 81.9113 281.863 81.8036C281.915 81.7862 281.965 81.7665 282.015 81.744C282.049 81.8124 282.079 81.8822 282.106 81.9542C282.46 82.8924 281.89 83.4764 281.122 83.7382C280.657 82.7745 279.397 82.072 278.387 82.5775C278.258 82.6335 278.146 82.72 278.06 82.8298C277.973 82.9404 277.916 83.0698 277.892 83.2073C277.868 83.3455 277.878 83.4865 277.922 83.6196C277.966 83.752 278.042 83.872 278.144 83.968C278.564 84.3651 279.121 84.5862 279.699 84.5847C279.963 84.6044 280.228 84.6044 280.492 84.5847C280.551 85.0051 280.453 85.432 280.217 85.7855C279.979 86.0545 279.684 86.2669 279.354 86.4073C279.024 86.5484 278.667 86.6138 278.308 86.5985C277.493 86.664 276.686 86.4073 276.058 85.8836C275.868 85.7193 275.592 86.0145 275.644 86.2182ZM281.634 81.1804C281.42 81.2407 281.196 81.2531 280.978 81.2175C280.759 81.1811 280.551 81.0967 280.368 80.9702C280.092 80.7862 279.784 80.5178 280.276 80.4851C280.54 80.488 280.801 80.552 281.036 80.6727C281.272 80.7935 281.477 80.9673 281.634 81.1804ZM280.263 83.9025C279.985 83.9142 279.707 83.8873 279.436 83.824C279.239 83.7782 278.38 83.3382 278.82 83.168C279.154 83.0167 279.745 83.3513 279.981 83.5615C280.09 83.6618 280.185 83.7767 280.263 83.9025Z" fill="#263238"/>
<path d="M277.239 60.8441C277.383 60.8645 277.525 60.893 277.666 60.9294C277.565 60.4966 277.614 60.0425 277.804 59.6411C277.995 59.2397 278.316 58.9146 278.715 58.7187C279.225 58.5142 279.794 58.5163 280.302 58.7245C280.81 58.9326 281.218 59.3306 281.437 59.8339L278.466 61.1918C279.431 61.5355 280.237 62.2219 280.729 63.1205C281.542 64.7998 280.466 68.3685 279.384 72.7637C278.774 75.5353 277.974 78.2619 276.989 80.9244C276.491 82.2364 275.592 82.2364 275.592 82.2364V77.8473L275.783 74.2066C275.783 74.2066 273.447 71.0122 273.191 68.3947C272.857 65.0294 273.565 63.6518 273.565 63.6518L277.239 60.8441Z" fill="#263238"/>
<path d="M261.088 57.0722C262.555 57.0747 263.988 57.5124 265.205 58.3296C266.423 59.1469 267.372 60.3071 267.929 61.6634C268.488 63.0197 268.631 64.511 268.342 65.9488C268.052 67.3866 267.342 68.7061 266.302 69.7405C265.262 70.7748 263.94 71.4774 262.5 71.7594C261.061 72.0414 259.57 71.8901 258.217 71.3246C256.863 70.7592 255.708 69.805 254.897 68.5828C254.087 67.3606 253.657 65.9253 253.662 64.4587C253.665 63.4861 253.859 62.5235 254.233 61.6259C254.608 60.7284 255.156 59.9133 255.845 59.2274C256.534 58.5416 257.353 57.9982 258.252 57.6284C259.152 57.2586 260.116 57.0696 261.088 57.0722Z" fill="#263238"/>
<path d="M275.644 73.6291C276.524 74.3905 277.239 72.4224 277.98 71.6614C278.722 70.9005 281.122 69.8444 282.316 72.3765C283.51 74.9084 281.214 78.4575 279.41 79.2909C276.786 80.5171 275.592 77.8604 275.592 77.8604V88.8487C272.818 93.8473 266.815 92.68 263.975 93.3818C263.551 92.104 263.551 90.7236 263.975 89.4458V85.8705C262.78 86.0996 261.559 86.1636 260.347 86.0604C257.946 85.68 256.66 83.7055 255.945 81.1076C254.791 76.936 254.548 69.923 256.155 61.8214C258.844 59.7485 267.93 60.0896 273.552 63.632C273.159 70.848 274.766 72.8684 275.644 73.6291Z" fill="#FFA8A7"/>
<path d="M263.981 85.8706C263.981 85.8706 269.334 84.8146 271.197 83.8241C272.312 83.2612 273.228 82.371 273.821 81.2721C273.535 82.3674 273.031 83.3943 272.338 84.2896C270.967 86.035 263.988 87.3005 263.988 87.3005L263.981 85.8706Z" fill="#F28F8F"/>
<path d="M252.488 69.2934C252.533 69.7167 252.705 70.1167 252.98 70.4414C253.071 70.5655 253.138 70.7057 253.177 70.8547C253.315 71.9022 253.534 72.9375 253.833 73.9513C254.074 74.624 254.52 75.2044 255.108 75.6102C255.697 76.016 256.398 76.2276 257.113 76.2145C257.49 76.2327 257.869 76.208 258.241 76.1418C258.269 76.1462 258.298 76.1462 258.327 76.1418C258.652 76.0778 258.967 75.9622 259.257 75.8007H259.311L259.396 75.7484L259.487 75.6764C259.522 75.6604 259.553 75.6385 259.579 75.6109C259.618 75.5905 259.654 75.5636 259.684 75.5316L259.776 75.44L259.96 75.2633C260.271 74.9178 260.525 74.5265 260.714 74.1018C261.219 73.0327 261.121 71.5172 261.908 71.3664C261.941 71.3695 261.974 71.3695 262.007 71.3664H262.111C263.187 71.4057 263.03 73.0458 263.607 74.2327C263.927 74.9847 264.469 75.6204 265.161 76.0545C265.853 76.4887 266.662 76.6996 267.478 76.6604H267.772H268.015C268.202 76.6502 268.388 76.6284 268.573 76.5949L268.75 76.5556L268.921 76.5091H269.025C269.252 76.4356 269.472 76.3418 269.681 76.2276C269.753 76.1746 269.826 76.1353 269.898 76.0895C270.026 75.992 270.149 75.8865 270.265 75.7745C270.573 75.4633 270.818 75.096 270.987 74.6924C271.307 73.6996 271.542 72.6811 271.689 71.6484C271.723 71.4919 271.785 71.343 271.873 71.2089C272.159 70.9087 272.349 70.5292 272.417 70.12C272.435 69.906 272.38 69.6923 272.26 69.5136C272.142 69.335 271.966 69.2019 271.761 69.136L271.197 69.0441C269.367 68.7883 266.979 68.644 265.543 69.0048C263.732 69.4574 263.095 70.0216 262.098 69.9888C261.101 69.956 260.576 69.3328 258.877 68.7489C257.565 68.2766 255.295 68.2569 253.59 68.375C253.4 68.375 253.236 68.375 253.059 68.4144C252.777 68.3619 252.462 68.8014 252.488 69.2934ZM264.263 70.6448C264.404 70.4751 264.581 70.3385 264.781 70.2446C264.812 70.2246 264.846 70.2071 264.88 70.1921H264.926C265.012 70.1593 265.098 70.122 265.181 70.0806C265.254 70.0806 265.339 70.0281 265.417 69.9953C265.671 69.9023 265.929 69.8257 266.192 69.7657L266.5 69.7001C266.756 69.6542 267.025 69.6148 267.287 69.5886H267.478C269.203 69.4836 270.272 69.91 270.652 70.2446C271.033 70.5792 270.836 72.2126 270.652 73.0131C270.652 73.0131 270.652 73.0589 270.652 73.072C270.658 73.0931 270.658 73.1164 270.652 73.1375C270.634 73.2466 270.608 73.3542 270.574 73.4589C270.56 73.5287 270.54 73.5964 270.515 73.6626C270.476 73.7738 270.436 73.8851 270.39 74.0036C270.38 74.0436 270.361 74.0815 270.337 74.1149C270.332 74.1411 270.321 74.1658 270.305 74.1869C270.305 74.1869 270.305 74.2327 270.305 74.2596L270.252 74.3578C270.252 74.3971 270.213 74.4298 270.187 74.4625C270.169 74.5033 270.145 74.5411 270.115 74.5745C270.095 74.6138 270.071 74.6509 270.042 74.6858C269.767 75.0633 269.397 75.3629 268.97 75.5549C268.543 75.7469 268.074 75.8247 267.609 75.7811C267.132 75.8109 266.653 75.7375 266.207 75.5651C265.761 75.3935 265.358 75.1265 265.024 74.784C264.615 74.3135 264.337 73.7433 264.217 73.1309C264.02 72.1929 263.916 71.1302 264.263 70.6448ZM254.128 69.6083C254.249 69.4908 254.395 69.4013 254.554 69.3459L254.738 69.2738H254.849H254.948H255.013H255.112C255.244 69.2467 255.377 69.227 255.512 69.2147H255.729H255.853C255.888 69.2211 255.924 69.2211 255.958 69.2147C256.049 69.2082 256.142 69.2082 256.233 69.2147H256.431C256.696 69.2286 256.961 69.2571 257.224 69.3C258.451 69.5033 259.73 70.1003 260.052 70.612C260.373 71.1236 260.281 72.1667 260.104 73.072C260.063 73.2742 260.008 73.4742 259.94 73.6691C259.935 73.6836 259.935 73.6996 259.94 73.7149C259.943 73.7367 259.943 73.7585 259.94 73.7804C259.94 73.7804 259.94 73.7804 259.94 73.8196C259.93 73.8444 259.919 73.8684 259.907 73.8916C259.907 73.9447 259.861 73.9906 259.835 74.0364C259.816 74.0815 259.794 74.1251 259.769 74.1673V74.2065L259.717 74.2989L259.665 74.3709C259.378 74.7775 258.986 75.0975 258.53 75.2953C258.074 75.4931 257.572 75.5615 257.08 75.4924C256.622 75.4815 256.173 75.3651 255.768 75.1513C254.561 74.4953 254.279 73.1309 254.141 72.5275C253.957 71.5566 253.754 69.9428 254.128 69.6083Z" fill="#263238"/>
<path d="M271.649 69.077L279.521 70.8416C278.811 71.0246 278.178 71.4318 277.718 72.0028L271.643 70.8482L271.649 69.077Z" fill="#263238"/>
<path d="M264.217 73.1047C264.332 73.7266 264.61 74.3062 265.024 74.784C265.349 75.1244 265.743 75.392 266.18 75.5687C266.617 75.7447 267.086 75.8262 267.556 75.8073C268.022 75.8509 268.491 75.7731 268.918 75.5811C269.344 75.3891 269.713 75.0895 269.99 74.712C270.017 74.6771 270.042 74.64 270.062 74.6007C270.092 74.5673 270.116 74.5302 270.134 74.4887C270.134 74.456 270.174 74.4233 270.2 74.384L270.252 74.2858C270.252 74.2858 270.252 74.24 270.252 74.2138C270.268 74.192 270.28 74.1673 270.285 74.1411C270.309 74.1077 270.326 74.0698 270.337 74.0298C270.383 73.912 270.422 73.8 270.462 73.6887C270.488 73.6226 270.508 73.5549 270.521 73.4851C270.555 73.3804 270.582 73.2727 270.6 73.1637C270.606 73.1426 270.606 73.12 270.6 73.0982C270.6 73.0982 270.6 73.0589 270.6 73.0393C270.777 72.2389 270.993 70.6383 270.6 70.2709C270.206 69.9036 269.15 69.4772 267.425 69.6149H267.235C266.972 69.6149 266.703 69.6805 266.447 69.7265L266.139 69.7921C265.876 69.852 265.618 69.9287 265.365 70.0217C265.286 70.0217 265.201 70.0741 265.129 70.1069C265.046 70.1484 264.96 70.1856 264.873 70.2185H264.827C264.793 70.2333 264.76 70.2509 264.729 70.2709C264.529 70.3648 264.352 70.5014 264.211 70.6711C263.916 71.1303 264.02 72.193 264.217 73.1047Z" fill="#37474F"/>
<path d="M253.748 72.2933C253.786 73.0218 253.994 73.7192 254.351 74.3156C254.637 74.7432 255.001 75.0945 255.419 75.3454C255.837 75.5963 256.3 75.7418 256.777 75.7723C257.241 75.8734 257.724 75.8356 258.179 75.6611C258.633 75.4872 259.044 75.1825 259.369 74.7781C259.402 74.7418 259.431 74.7011 259.457 74.6581C259.491 74.6232 259.52 74.5825 259.543 74.5374C259.548 74.4996 259.591 74.4661 259.623 74.424L259.688 74.3163C259.688 74.3163 259.694 74.2632 259.697 74.2334C259.716 74.2109 259.73 74.1832 259.739 74.1534C259.767 74.1178 259.79 74.0763 259.806 74.0312C259.867 73.9003 259.921 73.776 259.975 73.6523C260.009 73.5789 260.037 73.5032 260.06 73.4247C260.107 73.3069 260.147 73.1861 260.179 73.0632C260.188 73.0392 260.191 73.0131 260.188 72.9876C260.188 72.9876 260.193 72.9425 260.195 72.9192C260.474 72.0176 260.893 70.1987 260.543 69.7325C260.191 69.2663 259.18 68.6592 257.422 68.6282L257.23 68.6072C256.966 68.5784 256.686 68.6243 256.422 68.6491L256.103 68.6907C255.831 68.7308 255.56 68.7907 255.293 68.8699C255.214 68.8613 255.121 68.9123 255.044 68.9422C254.955 68.9807 254.864 69.0141 254.772 69.0424L254.726 69.0373C254.689 69.0507 254.655 69.0673 254.62 69.0869C254.407 69.173 254.211 69.3108 254.047 69.4907C253.692 69.9869 253.664 71.2219 253.748 72.2933Z" fill="#37474F"/>
<path d="M254.337 56.0947C254.337 56.0094 254.337 55.9175 254.37 55.8257C254.382 55.6562 254.443 55.4939 254.548 55.3599C254.908 54.986 255.63 55.9307 255.86 56.1471C256.105 56.3611 256.361 56.5626 256.627 56.7507C256.878 56.8754 257.119 57.0178 257.349 57.1771C257.188 56.2855 257.188 55.3724 257.349 54.481C257.46 53.8906 257.624 52.5129 258.359 52.3751C258.792 52.2833 259.172 52.6507 259.494 52.9524C262.426 55.6945 266.257 54.4284 269.787 54.5399C272.745 54.6318 276.307 55.8519 277.659 58.7121C278.268 60.0241 278.374 61.4083 277.166 62.3135C276.393 62.9039 275.631 62.8777 275.199 63.8158C275.094 64.0454 274.418 66.8399 274.818 66.8137C274.094 66.8876 273.367 66.702 272.766 66.29C272.165 65.878 271.73 65.2663 271.538 64.5636C271.466 64.2553 271.302 63.6977 271.236 63.3828C271.22 63.2905 271.185 63.2028 271.132 63.1255C271.079 63.0481 271.009 62.983 270.929 62.9346C270.849 62.886 270.76 62.8554 270.667 62.8444C270.574 62.8335 270.479 62.8425 270.39 62.8711C269.492 63.0679 268.908 63.4353 268.061 63.6649C265.644 64.3599 263.104 64.51 260.622 64.1044C258.845 63.7671 257.215 62.8924 255.951 61.5985C255.31 60.8464 254.835 59.9674 254.557 59.0189C254.279 58.0705 254.204 57.074 254.337 56.0947Z" fill="#263238"/>
<path d="M265.864 67.6273L268.488 68.0274C268.533 67.6763 268.441 67.321 268.231 67.0361C268.021 66.7512 267.708 66.5587 267.359 66.499C267.187 66.4731 267.011 66.4819 266.841 66.5248C266.673 66.5678 266.514 66.644 266.375 66.749C266.236 66.8541 266.118 66.9859 266.031 67.1367C265.943 67.2875 265.886 67.4542 265.864 67.6273Z" fill="#263238"/>
<path d="M265.26 79.6843L263.076 80.2552C263.106 80.4006 263.167 80.5381 263.252 80.6603C263.337 80.7824 263.446 80.8857 263.572 80.965C263.698 81.0435 263.839 81.0966 263.985 81.1199C264.132 81.1432 264.283 81.1366 264.427 81.101C264.722 81.0181 264.973 80.8239 265.129 80.5599C265.284 80.2959 265.331 79.9824 265.26 79.6843Z" fill="#F28F8F"/>
<path d="M256.037 67.7782L258.661 67.4895C258.65 67.3174 258.605 67.1493 258.527 66.9953C258.45 66.8412 258.342 66.7046 258.21 66.5935C258.078 66.4825 257.925 66.3994 257.76 66.3493C257.595 66.2993 257.422 66.2832 257.25 66.3022C256.898 66.3466 256.575 66.5243 256.35 66.7987C256.124 67.0732 256.012 67.4237 256.037 67.7782Z" fill="#263238"/>
<path d="M262.4 71.3862L262.046 77.5069L258.635 76.6145L262.039 71.314C262.164 71.31 262.286 71.3346 262.4 71.3862Z" fill="#F28F8F"/>
<path d="M277.055 75.637C277.054 75.9541 277.146 76.2639 277.321 76.5279C277.497 76.7919 277.746 76.9985 278.038 77.1207C278.331 77.2429 278.653 77.2756 278.964 77.2145C279.275 77.1534 279.561 77.0014 279.785 76.7774C280.009 76.5541 280.163 76.269 280.225 75.9585C280.287 75.6479 280.256 75.3258 280.135 75.0327C280.014 74.7396 279.809 74.4894 279.545 74.3134C279.282 74.1367 278.972 74.0429 278.656 74.0429C278.446 74.0421 278.238 74.0829 278.044 74.1621C277.849 74.2421 277.673 74.3592 277.524 74.5076C277.375 74.6559 277.257 74.832 277.177 75.0254C277.097 75.2196 277.055 75.4269 277.055 75.637Z" fill="#263238"/>
<path d="M276.884 72.7176C277.022 72.2337 277.264 71.7858 277.593 71.4056C277.76 71.246 277.96 71.1246 278.178 71.0498C278.397 70.9751 278.629 70.9487 278.859 70.9726C278.859 70.9726 278.905 71.0251 278.859 71.0382C278.682 71.1432 278.557 71.2022 278.38 71.3268C278.204 71.4463 278.041 71.5849 277.895 71.7401C277.767 71.889 277.663 72.0573 277.586 72.2387C277.492 72.4468 277.431 72.668 277.403 72.8945C277.359 73.2516 277.412 73.6137 277.553 73.9439C277.627 74.1272 277.729 74.2981 277.855 74.4494C277.992 74.5606 278.111 74.6908 278.209 74.8363C278.308 75.0399 278.026 75.3876 277.809 75.2697C277.399 75.0116 277.091 74.6196 276.937 74.1606C276.745 73.7017 276.726 73.189 276.884 72.7176Z" fill="#263238"/>
<path d="M254.148 94.5098C251.93 95.9665 248.867 97.8552 248.119 99.909C247.371 101.962 245.213 113.868 244.977 117.706C246.943 118.632 249.049 119.226 251.209 119.464L254.148 94.5098Z" fill="#455A64"/>
<path d="M280.342 88.8356C285.957 91.9185 291.494 96.5236 292.687 98.2952C292.687 98.2952 289.407 109.23 286.515 114.42C283.622 119.609 282.073 134.953 282.073 134.953C282.073 134.953 262.289 141.513 256.089 142.03C249.89 142.549 249.102 139.912 249.102 139.912C249.102 139.912 248.971 122.757 250.414 111.31C251.858 99.8632 251.543 96.4581 254.167 94.5098C255.866 93.2567 263.187 90.0821 263.187 90.0821V93.3621C267.189 93.4407 280.342 88.8356 280.342 88.8356Z" fill="#37474F"/>
<path d="M261.646 95.12C261.282 94.3804 261.137 93.552 261.226 92.7324L262.879 91.5317V93.6117L261.646 95.12Z" fill="#69D8AA"/>
<path opacity="0.25" d="M261.646 95.12C261.282 94.3804 261.137 93.552 261.226 92.7324L262.879 91.5317V93.6117L261.646 95.12Z" fill="black"/>
<path d="M264.86 93.8538L269.137 91.4138L272.351 93.9593L265.857 96.6553L264.86 93.8538Z" fill="#69D8AA"/>
<path opacity="0.25" d="M264.86 93.8538L269.137 91.4138L272.351 93.9593L265.857 96.6553L264.86 93.8538Z" fill="black"/>
<path d="M275.592 84.1913V85.0567C275.428 85.8771 273.815 87.7797 269.74 89.6029C265.667 91.4269 263.975 93.3753 263.975 93.3753C265.075 93.4044 266.164 93.6058 267.202 93.9724C269.058 94.6284 272.142 96.9898 273.02 96.9637C273.9 96.9375 275.113 94.5098 277.416 92.0895C279.384 90.056 280.342 88.8095 280.342 88.8095C280.342 88.8095 277.18 84.2109 275.592 84.1913Z" fill="#455A64"/>
<path d="M263.975 93.3753C262.498 93.5389 261.114 94.5622 260.753 94.0312C260.393 93.4996 261.646 88.56 263.961 87.0582L263.975 93.3753Z" fill="#455A64"/>
<path d="M249.673 119.261C249.673 119.261 249.497 122.324 249.45 123.374C249.404 124.424 251.156 142.398 251.156 142.398L244.977 145.022C244.977 145.022 244.229 138.095 243.986 134.238C243.786 130.266 243.964 126.283 244.517 122.344C245.003 119.064 245.173 117.804 245.173 117.804C246.62 118.444 248.127 118.932 249.673 119.261Z" fill="#F28F8F"/>
<path d="M245.475 153.806C245.475 153.806 245.475 154.081 245.475 155.118C245.63 156.852 245.977 158.564 246.512 160.222C246.899 161.193 247.824 163.324 248.309 163.574C248.768 163.83 249.299 163.924 249.818 163.843C250.796 163.751 251.819 164.256 252.744 163.81C253.102 163.615 253.48 163.458 253.872 163.344C254.443 163.207 255.099 163.377 255.61 163.075C255.938 162.885 256.142 162.531 256.463 162.334C256.935 162.045 257.559 162.151 258.064 161.921C258.263 161.819 258.439 161.679 258.582 161.507C258.725 161.336 258.832 161.137 258.897 160.924C259.185 160.057 258.897 159.08 258.727 158.215C259.03 157.788 259.184 157.274 259.166 156.751C259.185 155.631 259.055 154.512 258.779 153.425C258.562 152.769 254.076 150.217 254.076 150.217L253.19 149.634C251.307 149.215 249.335 149.532 247.679 150.519C245.049 152.192 245.475 153.806 245.475 153.806Z" fill="#FFA8A7"/>
<path d="M246.689 153.682C245.502 155.65 246.197 159.198 246.203 159.238C245.831 157.895 245.587 156.52 245.475 155.131C245.475 154.082 245.475 153.819 245.475 153.819C245.475 153.819 245.049 152.179 247.646 150.539C249.302 149.551 251.274 149.234 253.157 149.653C253.157 149.653 247.876 151.694 246.689 153.682Z" fill="#F28F8F"/>
<path d="M258.694 158.194C258.275 156.915 257.628 155.721 256.785 154.672C256.286 154.212 255.866 153.628 256.365 153.825C256.863 154.022 257.559 154.134 257.834 153.786C258.11 153.438 258.169 154.042 257.834 154.514C257.5 154.987 257.782 155.348 258.143 156.121C258.42 156.784 258.605 157.481 258.694 158.194Z" fill="#F28F8F"/>
<path d="M290.975 98.512C292.845 99.168 293.095 104.284 292.687 108.876C292.281 113.468 288.699 124.325 287.065 128.104C285.236 132.348 284.127 134.795 282.907 136.127C281.687 137.458 279.135 138.554 275.868 140.247C272.916 141.775 270.895 142.549 265.857 144.111C260.176 145.875 257.985 145.98 256.778 146.826C255.571 147.673 255.23 149.509 254.043 150.198L253.157 149.614C251.16 150.094 249.253 150.891 247.509 151.976C246.727 152.46 246.039 153.08 245.475 153.806V155.118C245.475 155.118 244.039 155.721 242.818 153.15C241.599 150.578 241.041 146.721 242.444 145.035C243.848 143.349 248.296 141.04 251.904 139.912C255.512 138.783 257.303 137.603 261.514 135.057C266.001 132.348 269.117 130.544 271.354 129.324C272.201 128.832 272.772 128.235 273.152 126.7C273.454 125.467 274.352 121.82 274.903 119.077C275.783 114.492 277.757 100.624 290.975 98.512Z" fill="#FFA8A7"/>
<path d="M292.687 98.2953C292.687 98.2953 293.56 98.4459 293.678 102.08C293.833 105.519 293.668 108.965 293.186 112.373C292.707 115.161 289.906 123.394 289.906 123.394C289.906 123.394 281.857 126.018 273.617 122.889C273.617 122.889 275.553 111.015 276.281 107.866C277.009 104.718 287.21 95.0022 292.687 98.2953Z" fill="#455A64"/>
<path d="M264.204 98.5316C263.745 101.484 263.115 108.496 263.115 118.395C263.115 120.823 259.572 125.749 258.74 125.644C257.906 125.539 256.378 120.908 256.161 118.218C256.496 111.711 260.432 101.615 262.151 98.1644L264.204 98.5316Z" fill="#69D8AA"/>
<path opacity="0.15" d="M262.02 98.4458C262.058 98.3498 262.102 98.2553 262.151 98.1644L264.204 98.5316L264.079 99.3971C263.307 99.3149 262.583 98.9811 262.02 98.4458Z" fill="black"/>
<path d="M264.86 93.8538C264.215 93.7025 263.555 93.6233 262.892 93.6182C262.369 94.0247 261.94 94.5396 261.633 95.1265C261.575 96.1636 261.747 97.2014 262.137 98.1636C262.433 98.3709 262.769 98.5112 263.124 98.5745C263.479 98.6378 263.842 98.6233 264.191 98.5316C264.914 98.0814 265.489 97.4291 265.844 96.6552C265.895 95.6291 265.541 94.6232 264.86 93.8538Z" fill="#69D8AA"/>
</svg>
