<svg xmlns="http://www.w3.org/2000/svg" xmlns:xlink="http://www.w3.org/1999/xlink" viewBox="0 0 200 40"><defs><style>.cls-1{fill:#930;}.cls-2{fill:url(#linear-gradient);}.cls-3{fill:url(#linear-gradient-2);}.cls-4{fill:url(#linear-gradient-3);}.cls-5{fill:#fff;}</style><linearGradient id="linear-gradient" x1="-559.95" y1="-204.23" x2="-528.83" y2="-204.23" gradientUnits="userSpaceOnUse"><stop offset="0" stop-color="#930"/><stop offset="0.01" stop-color="#a53900"/><stop offset="0.05" stop-color="#c14700"/><stop offset="0.1" stop-color="#d85200"/><stop offset="0.15" stop-color="#e95b00"/><stop offset="0.22" stop-color="#f66100"/><stop offset="0.3" stop-color="#fd6500"/><stop offset="0.5" stop-color="#f60"/><stop offset="0.66" stop-color="#ff6900"/><stop offset="0.79" stop-color="#ff7300"/><stop offset="0.9" stop-color="#ff8400"/><stop offset="1" stop-color="#f90"/></linearGradient><linearGradient id="linear-gradient-2" x1="-560" y1="-216.4" x2="-523.49" y2="-216.4" xlink:href="#linear-gradient"/><linearGradient id="linear-gradient-3" x1="-559.6" y1="-232.21" x2="-515.48" y2="-232.21" xlink:href="#linear-gradient"/></defs><title>Asset 138</title><g id="Layer_2" data-name="Layer 2"><g id="Layer_1-2" data-name="Layer 1"><path class="cls-1" d="M-542.43-208.47h-6.05a14.38,14.38,0,0,0-6.6,1.53,21.91,21.91,0,0,1-3.91-2.9l-1-.94h7.89A35.84,35.84,0,0,0-542.43-208.47Z" transform="translate(560 240)"/><polygon class="cls-1" points="28.02 31.52 28.01 31.53 27.89 31.53 28.02 31.52"/><path class="cls-2" d="M-528.83-208.47c-1.6,4.9-4.5,8.51-13.44,8.47h-17.67c-.14-2.77,1.8-5.37,4.86-6.94a14.38,14.38,0,0,1,6.6-1.53Z" transform="translate(560 240)"/><path class="cls-1" d="M-543.55-222h-2.75a15.34,15.34,0,0,0-8.35,2.42,24.58,24.58,0,0,1-3.83-3.52l-1.12-1.28v0h9.17A33,33,0,0,0-543.55-222Z" transform="translate(560 240)"/><path class="cls-3" d="M-523.49-222c-2.4,6.54-7.74,11-14.51,11.24h-22c0-3.44,2.08-6.7,5.35-8.81A15.34,15.34,0,0,1-546.3-222Z" transform="translate(560 240)"/><path class="cls-4" d="M-515.48-240c-3.74,9.15-10.3,15.58-20.56,15.58H-559.6c.28-8.05,7.89-15.58,17-15.58Z" transform="translate(560 240)"/><path class="cls-5" d="M-507.9-208v-24h18.54v4.71h-13.17v4.87h11.59v4.71h-11.59v5h13.35V-208Z" transform="translate(560 240)"/><path class="cls-5" d="M-463.06-208v-15.69L-470-213.41h-.14L-477-223.57V-208h-5.31v-24h5.83l6.46,10.17,6.46-10.17h5.83v24Z" transform="translate(560 240)"/><path class="cls-5" d="M-440.87-215.19H-445V-208h-5.4v-24h10c5.86,0,9.41,3.4,9.41,8.31v.07C-430.93-218.08-435.35-215.19-440.87-215.19Zm4.46-8.42c0-2.36-1.68-3.64-4.39-3.64H-445v7.35h4.29c2.7,0,4.28-1.58,4.28-3.64Z" transform="translate(560 240)"/><path class="cls-5" d="M-410.39-208l-2.25-5.39H-423l-2.25,5.39h-5.51l10.54-24.21h5L-404.73-208Zm-7.44-17.86-3.27,7.8h6.53Z" transform="translate(560 240)"/><path class="cls-5" d="M-391.85-207.64a15.88,15.88,0,0,1-10.43-3.84l3.2-3.75a11.39,11.39,0,0,0,7.34,2.92c2.21,0,3.54-.86,3.54-2.26v-.07c0-1.34-.84-2-4.95-3.06-5-1.24-8.14-2.57-8.14-7.35v-.07c0-4.36,3.58-7.24,8.6-7.24a14.47,14.47,0,0,1,9.13,3.05l-2.81,4a11.68,11.68,0,0,0-6.39-2.37c-2.07,0-3.16.93-3.16,2.09v.07c0,1.58,1.05,2.1,5.3,3.16,5,1.27,7.8,3,7.8,7.21v.07C-382.82-210.32-386.55-207.64-391.85-207.64Z" transform="translate(560 240)"/><path class="cls-5" d="M-369-207.64a15.86,15.86,0,0,1-10.43-3.84l3.19-3.75a11.39,11.39,0,0,0,7.34,2.92c2.21,0,3.55-.86,3.55-2.26v-.07c0-1.34-.84-2-4.95-3.06-4.95-1.24-8.15-2.57-8.15-7.35v-.07c0-4.36,3.58-7.24,8.6-7.24a14.47,14.47,0,0,1,9.13,3.05l-2.81,4a11.65,11.65,0,0,0-6.39-2.37c-2.07,0-3.16.93-3.16,2.09v.07c0,1.58,1.06,2.1,5.31,3.16,5,1.27,7.79,3,7.79,7.21v.07C-360-210.32-363.72-207.64-369-207.64Z" transform="translate(560 240)"/></g></g></svg>