<svg width="273" height="269" viewBox="0 0 273 269" fill="none" xmlns="http://www.w3.org/2000/svg">
<path d="M191.596 198.996L205.62 219.308C205.862 219.55 205.379 218.341 205.62 217.978L227.625 181.828H227.504L229.438 178.805L236.33 167.44C231.373 162.242 230.043 150.877 230.164 150.877L227.746 143.139C227.262 141.688 227.867 140.116 229.196 139.512C230.768 138.786 232.461 139.633 232.944 141.204C232.944 141.204 234.395 145.678 235.242 148.58C235.604 149.789 237.297 149.909 237.901 148.7C238.627 147.008 238.627 144.952 238.385 143.381C238.385 143.26 234.153 123.432 234.153 123.432C233.791 121.86 234.758 120.409 236.33 120.046C237.902 120.046 239.473 121.255 239.836 122.827L242.738 136.731C242.859 137.336 243.463 137.819 244.068 137.819H244.551C245.277 137.819 245.881 137.215 246.002 136.489L247.211 118.716C247.332 117.266 248.42 115.936 249.871 115.936C251.564 115.936 252.893 117.266 252.773 118.958L251.564 136.247C251.443 137.094 252.047 137.94 253.014 138.182C254.103 138.424 255.312 137.698 255.553 136.61L258.939 121.497C259.301 120.046 260.631 118.958 262.082 119.2C263.775 119.442 264.863 121.014 264.5 122.585L260.873 138.182C260.631 139.27 260.752 140.358 261.115 141.325C261.599 142.534 263.291 142.534 263.775 141.325L266.918 134.797C267.523 133.467 269.095 132.741 270.424 133.225C271.996 133.829 272.722 135.643 271.996 137.094L265.588 151.481C260.873 164.418 255.674 172.035 253.861 174.332L248.057 186.543L246.727 189.324L216.502 252.556C211.786 262.47 198.729 264.768 190.991 257.03L165.36 228.013L191.596 198.996Z" fill="#F9DCD2"/>
<path d="M248.055 158.13C248.538 158.13 248.78 157.768 248.659 157.405C248.297 154.14 247.087 151.722 244.911 150.272C241.405 147.853 236.811 148.821 236.69 148.942C236.327 149.063 236.085 149.425 236.206 149.667C236.327 150.03 236.69 150.272 236.932 150.151C236.932 150.151 241.163 149.183 244.186 151.36C245.999 152.569 246.967 154.745 247.329 157.526C247.45 157.888 247.692 158.13 248.055 158.13Z" fill="#37474F"/>
<path d="M156.654 228.254L164.755 230.914L196.069 197.061C173.218 154.02 145.169 137.819 128.847 131.774C122.439 129.356 115.789 128.267 108.898 128.267H86.1678C80.0018 128.267 73.9566 129.235 68.1532 131.411C18.5829 150.393 0.568359 226.804 0.568359 226.804L7.33891 227.892L39.9828 233.332V268.273H156.654V228.254Z" fill="#37474F"/>
<path d="M39.4987 233.333L7.70114 228.255L7.58023 268.395H39.4987V233.333Z" fill="#F9DCD2"/>
<path d="M156.533 247.116C156.895 247.116 157.137 246.874 157.137 246.511V218.099C157.137 217.736 156.895 217.494 156.533 217.494C156.17 217.494 155.928 217.736 155.928 218.099V246.511C155.807 246.874 156.17 247.116 156.533 247.116Z" fill="#124CA0"/>
<path d="M39.6192 247.72C39.9819 247.72 40.2237 247.478 40.2237 247.115V218.703C40.2237 218.34 39.9819 218.099 39.6192 218.099C39.2565 218.099 39.0147 218.34 39.0147 218.703V247.115C39.0147 247.357 39.2565 247.72 39.6192 247.72Z" fill="#124CA0"/>
<path d="M143.236 29.4905C136.465 14.4985 124.375 20.5436 124.375 20.5436C120.869 11.7177 110.955 1.32005 97.2928 0.11102C87.3788 -0.735303 82.4217 3.49629 79.1574 4.70533C71.4196 0.352811 63.8026 0.111012 58.2411 6.03527C50.1406 14.7403 53.405 22.599 55.5812 25.9843C56.1858 27.3142 59.0874 31.7876 61.7473 33.2385C57.2739 43.878 53.7677 61.288 77.5856 62.8598L127.398 65.3987C127.398 65.3987 131.146 62.1343 135.256 57.2982C141.181 50.044 147.709 39.1627 143.236 29.4905Z" fill="#373449"/>
<path d="M135.254 57.2991C131.264 62.2561 127.395 65.3996 127.395 65.3996L125.702 46.2969C118.327 45.8133 116.393 40.4935 116.272 35.6574L103.577 35.5365C85.4417 37.8336 69.9661 35.1738 66.4599 34.4484L65.6136 34.5693C65.4927 34.6902 65.3718 34.932 65.2509 35.0529V56.09H64.4045C58.9639 56.09 54.4904 60.4426 54.4904 66.0041V67.0922C54.4904 72.5329 58.843 77.0063 64.4045 77.0063H65.2509V91.2729C65.2509 102.154 72.9886 109.408 79.8801 110.617L77.4621 138.546C77.4621 146.042 83.5072 152.208 91.1241 152.208H100.192C108.292 152.208 114.942 145.679 114.942 137.458L112.524 110.859C122.438 110.859 130.539 102.759 130.539 92.8446V77.0063H130.78C136.221 77.0063 140.694 72.6538 140.694 67.0922V66.0041C140.574 62.1352 138.397 58.8708 135.254 57.2991Z" fill="#F9DCD2"/>
<path opacity="0.27" d="M112.16 110.737L113.369 122.949L80.7254 110.495C81.3299 110.616 82.0553 110.737 82.7807 110.737H112.16Z" fill="#37474F"/>
<path d="M100.675 99.2514C100.796 99.2514 100.917 99.2514 101.038 99.1305C101.4 99.0096 101.4 98.5259 101.28 98.2841C100.312 96.5915 98.6197 95.6243 96.6853 95.6243C94.7508 95.6243 93.0581 96.5915 92.0909 98.2841C91.97 98.6469 91.97 99.0096 92.3327 99.1305C92.6954 99.2514 93.0581 99.2514 93.179 98.8887C93.9044 97.6796 95.2344 96.8333 96.6853 96.8333C98.1361 96.8333 99.466 97.5587 100.191 98.8887C100.312 99.1305 100.433 99.2514 100.675 99.2514Z" fill="#37474F"/>
<path d="M136.828 66.6076C137.07 66.6076 137.191 66.3658 137.191 66.2449C137.191 61.7715 133.08 61.6506 132.959 61.6506C132.717 61.6506 132.596 61.8924 132.596 62.0133C132.596 62.2552 132.838 62.3761 132.959 62.3761C133.08 62.3761 136.344 62.4969 136.344 66.124C136.344 66.4867 136.586 66.6076 136.828 66.6076Z" fill="#37474F"/>
<path d="M58.12 66.6071C57.8782 66.6071 57.7573 66.3653 57.7573 66.2444C57.7573 61.771 61.868 61.771 61.9889 61.771C62.2307 61.771 62.3516 62.0128 62.3516 62.1337C62.3516 62.3755 62.1098 62.4964 61.9889 62.4964C61.868 62.4964 58.6036 62.4964 58.6036 66.2444C58.4827 66.3653 58.2409 66.6071 58.12 66.6071Z" fill="#37474F"/>
<path d="M80.7283 66.1242C79.7611 66.1242 78.9148 65.2779 78.9148 64.3107V60.8045C78.9148 59.8373 79.7611 58.991 80.7283 58.991C81.6956 58.991 82.5419 59.8373 82.5419 60.8045V64.3107C82.421 65.2779 81.6956 66.1242 80.7283 66.1242Z" fill="black"/>
<path d="M107.929 66.1242C106.962 66.1242 106.115 65.2779 106.115 64.3107V60.8045C106.115 59.8373 106.962 58.991 107.929 58.991C108.896 58.991 109.743 59.8373 109.743 60.8045V64.3107C109.743 65.2779 108.896 66.1242 107.929 66.1242Z" fill="black"/>
<path d="M87.2548 52.462C86.4085 53.0666 85.3204 53.0666 84.2322 53.0666C83.1441 53.0666 82.056 53.1875 81.0887 53.3084C80.1215 53.4293 79.0334 53.5502 77.9453 53.792C76.8571 53.9129 75.769 54.2756 74.8018 53.792C73.9555 53.4293 73.4719 52.2203 74.3182 50.5276C75.0436 48.9559 77.3407 47.0214 80.4842 46.6587C83.6277 46.296 86.1667 47.7468 87.1339 49.0768C88.3429 50.6485 88.1011 51.9784 87.2548 52.462Z" fill="#373449"/>
<path d="M116.997 55.3644C115.908 55.6062 114.82 55.2435 113.732 55.0017C112.644 54.639 111.435 54.3972 110.468 54.1554C109.501 53.9136 108.291 53.7927 107.082 53.5509C105.873 53.3091 104.664 53.3091 103.939 52.5836C103.214 51.9791 103.214 50.5283 104.785 49.1983C106.236 47.8684 109.259 46.6594 112.523 47.3848C115.787 48.1102 117.843 50.2865 118.206 51.9791C118.81 53.9136 118.085 55.1226 116.997 55.3644Z" fill="#373449"/>
<path d="M80.4855 66.8494C81.4527 66.8494 82.5409 66.6076 83.8708 66.0031C84.2335 65.8822 84.3544 65.3986 84.1126 65.1568C83.9917 64.7941 83.5081 64.6732 83.2663 64.915C80.2437 66.3658 78.0675 65.0359 77.9466 64.915C77.7048 64.6732 77.2212 64.7941 77.1002 65.1568C76.8584 65.3986 76.9794 65.8822 77.2212 66.0031C77.3421 66.0031 78.5511 66.8494 80.4855 66.8494Z" fill="#37474F"/>
<path d="M107.688 66.8494C108.656 66.8494 109.744 66.6076 111.074 66.0031C111.436 65.8822 111.557 65.3986 111.315 65.1568C111.195 64.7941 110.711 64.6732 110.469 64.915C107.447 66.3658 105.27 65.0359 105.149 64.915C104.908 64.6732 104.424 64.7941 104.303 65.1568C104.061 65.3986 104.182 65.8822 104.424 66.0031C104.545 66.0031 105.754 66.8494 107.688 66.8494Z" fill="#37474F"/>
<path d="M95.962 77.6104H102.853C103.095 77.6104 103.337 77.3686 103.337 77.1268C103.337 76.885 103.095 76.6431 102.853 76.6431H95.962C93.3022 76.6431 91.2468 74.4669 91.2468 71.9279V70.598C91.2468 69.8726 91.8513 69.2681 92.5767 69.2681C94.753 69.2681 96.0829 67.5754 96.0829 65.0364L96.3247 58.2658C96.3247 58.024 96.0829 57.7822 95.8411 57.7822C95.5993 57.7822 95.3575 58.024 95.3575 58.2658L95.1157 65.0364C95.1157 65.7619 94.8739 68.3008 92.5767 68.3008C91.2468 68.3008 90.1587 69.389 90.1587 70.7189V72.0488C90.2796 74.9505 92.8185 77.6104 95.962 77.6104Z" fill="#37474F"/>
<path d="M97.0491 93.9317H94.1474C92.6966 93.9317 91.6085 92.8436 91.6085 91.3927V84.6221L107.447 80.6323V83.4131C107.447 89.2165 102.852 93.9317 97.0491 93.9317Z" fill="white"/>
<path d="M78.6719 76.642C72.0222 76.642 66.5816 71.2013 66.5816 64.5516C66.5816 57.9019 72.0222 52.4613 78.6719 52.4613C85.3216 52.4613 90.7622 57.9019 90.7622 64.5516C90.7622 71.3222 85.3216 76.7629 78.6719 76.642ZM78.6719 53.6703C72.6268 53.6703 67.7906 58.5065 67.7906 64.5516C67.7906 70.5968 72.6268 75.4329 78.6719 75.4329C84.7171 75.4329 89.5532 70.5968 89.5532 64.5516C89.5532 58.6274 84.7171 53.6703 78.6719 53.6703Z" fill="#3E479B"/>
<path d="M112.403 75.4332C109.139 75.4332 106.116 74.2242 103.819 71.927C101.522 69.6299 100.313 66.6073 100.313 63.3429C100.313 60.0785 101.522 57.0559 103.819 54.7588C106.116 52.4616 109.139 51.2526 112.403 51.2526C115.668 51.2526 118.69 52.4616 120.987 54.7588C123.285 57.0559 124.494 60.0785 124.494 63.3429C124.494 66.6073 123.285 69.6299 120.987 71.927C118.69 74.2242 115.668 75.5541 112.403 75.4332ZM112.403 52.4616C109.502 52.4616 106.721 53.5497 104.666 55.6051C102.61 57.6604 101.522 60.4412 101.522 63.3429C101.522 66.2446 102.61 69.0253 104.666 71.0807C106.721 73.1361 109.502 74.2242 112.403 74.2242C115.305 74.2242 118.086 73.1361 120.141 71.0807C122.197 69.0253 123.285 66.2446 123.285 63.3429C123.285 60.4412 122.197 57.6604 120.141 55.6051C118.086 53.6706 115.305 52.4616 112.403 52.4616Z" fill="#3E479B"/>
<path d="M89.7955 62.3759C89.6746 62.3759 89.4328 62.255 89.3119 62.1341C89.0701 61.8923 89.191 61.5296 89.4328 61.2878C89.5537 61.2878 96.0825 56.0889 101.402 61.2878C101.644 61.5296 101.644 61.8923 101.402 62.1341C101.16 62.3759 100.798 62.3759 100.556 62.1341C96.0825 57.6607 90.4 62.0132 90.1582 62.1341C90.0373 62.3759 89.9164 62.3759 89.7955 62.3759Z" fill="#3E479B"/>
</svg>
