<svg width="304" height="195" viewBox="0 0 304 195" fill="none" xmlns="http://www.w3.org/2000/svg">
<path d="M1.20488 8.32515V8.32481C1.20488 4.49031 4.2453 1.44982 8.07977 1.44971C8.07984 1.44971 8.07991 1.44971 8.07998 1.44971L296.192 1.57062C300.027 1.57062 303.067 4.61114 303.067 8.44536L302.947 187.624C302.947 191.459 299.906 194.499 296.072 194.499L7.95928 194.378C4.1245 194.378 1.08398 191.338 1.08398 187.503L1.20488 8.32515Z" fill="white" stroke="#58CEA5"/>
<path d="M303.446 14.1283V8.56673C303.446 4.45602 300.182 1.19163 296.071 1.19163L8.07994 0.949829C3.96923 0.949829 0.704834 4.21422 0.704834 8.32493V14.0074L303.446 14.1283Z" fill="#58CEA5"/>
<path d="M276.726 8.44557C276.726 9.41279 276.001 10.1382 275.034 10.1382C274.066 10.1382 273.341 9.41279 273.341 8.44557C273.341 7.47834 274.066 6.75293 275.034 6.75293C276.001 6.75293 276.726 7.47834 276.726 8.44557Z" fill="white"/>
<path d="M283.618 8.44557C283.618 9.41279 282.893 10.1382 281.926 10.1382C280.959 10.1382 280.233 9.41279 280.233 8.44557C280.233 7.47834 280.959 6.75293 281.926 6.75293C282.772 6.75293 283.618 7.47834 283.618 8.44557Z" fill="white"/>
<path d="M290.389 8.44557C290.389 9.41279 289.663 10.1382 288.696 10.1382C287.729 10.1382 287.003 9.41279 287.003 8.44557C287.003 7.47834 287.729 6.75293 288.696 6.75293C289.663 6.75293 290.389 7.47834 290.389 8.44557Z" fill="white"/>
<path opacity="0.81" d="M275.155 35.4077H26.3359V169.973H275.155V35.4077Z" fill="#AFF5DA"/>
</svg>
