<svg width="59" height="53" viewBox="0 0 59 53" fill="none" xmlns="http://www.w3.org/2000/svg">
<path d="M58.6216 51.4974L55.245 32.8792C55.1617 32.4194 54.7214 32.1143 54.2617 32.1977C53.802 32.281 53.497 32.7213 53.5803 33.1809L55.008 41.0531L44.001 28.2678L51.4041 26.6155L52.5003 27.2257L52.9762 29.8503C53.0595 30.3101 53.4997 30.615 53.9595 30.5318C54.4192 30.4485 54.7241 30.0081 54.6409 29.5485L54.0934 26.5302C54.0483 26.281 53.8938 26.0652 53.6726 25.942L51.9455 24.9806C51.9455 24.9806 51.9455 24.9806 51.9454 24.9806L46.4873 21.9423H46.4872L42.2758 19.598C42.2757 19.598 42.2756 19.5979 42.2756 19.5979C42.2753 19.5978 42.2751 19.5976 42.2747 19.5973C42.2422 19.5793 42.2089 19.5638 42.1748 19.5504C42.1641 19.5462 42.1532 19.5434 42.1422 19.5397C42.1185 19.5314 42.0946 19.5234 42.0704 19.5172C42.0567 19.5137 42.0428 19.5117 42.0289 19.509C42.0072 19.5047 41.9853 19.5004 41.9634 19.4978C41.9485 19.496 41.9338 19.4955 41.9188 19.4946C41.8975 19.4932 41.8762 19.4921 41.855 19.4923C41.8398 19.4924 41.8247 19.4935 41.8095 19.4944C41.7885 19.4958 41.7676 19.4977 41.7467 19.5006C41.7315 19.5028 41.7163 19.5055 41.7012 19.5085C41.6807 19.5126 41.6604 19.5173 41.6402 19.5228C41.625 19.527 41.6099 19.5315 41.5949 19.5364C41.5753 19.5431 41.556 19.5506 41.5367 19.5587C41.5219 19.565 41.5071 19.5712 41.4924 19.5784C41.486 19.5816 41.4793 19.5837 41.473 19.587L39.5405 20.5943C40.9782 17.9136 41.7045 15.3172 41.7045 12.8333C41.7045 6.30841 36.3961 1 29.8711 1C23.3462 1 18.0385 6.30841 18.0385 12.8333C18.0385 15.3413 18.7783 17.964 20.2441 20.6725L18.1618 19.587C18.1553 19.5836 18.1485 19.5813 18.1419 19.5782C18.1278 19.5712 18.1131 19.5651 18.0987 19.5591C18.0792 19.5508 18.0595 19.5432 18.0396 19.5364C18.0249 19.5315 18.0099 19.5271 17.9949 19.5229C17.9747 19.5174 17.9543 19.5126 17.9338 19.5085C17.9186 19.5055 17.9033 19.5028 17.888 19.5006C17.8674 19.4977 17.8467 19.4959 17.826 19.4946C17.8104 19.4935 17.7949 19.4925 17.7795 19.4923C17.7588 19.4921 17.7382 19.4932 17.7175 19.4944C17.7019 19.4955 17.6864 19.496 17.6709 19.4979C17.6498 19.5004 17.629 19.5046 17.6082 19.5086C17.5934 19.5116 17.5785 19.5137 17.5639 19.5174C17.5408 19.5233 17.5182 19.531 17.4956 19.5388C17.4838 19.5428 17.4717 19.546 17.4599 19.5506C17.4259 19.564 17.3927 19.5795 17.3603 19.5974C17.3599 19.5976 17.3597 19.5978 17.3594 19.598C17.3593 19.598 17.3593 19.5981 17.3592 19.5981L5.96259 25.942C5.74128 26.0652 5.58684 26.281 5.54182 26.5302L2.33176 44.2296C2.24846 44.6892 2.55352 45.1295 3.01324 45.2128C3.47307 45.2965 3.91321 44.9911 3.99651 44.5314L4.95951 39.2215L15.9078 33.434L15.0273 44.8025L2.96506 50.2187L3.38955 47.8773C3.47285 47.4177 3.1679 46.9774 2.70818 46.894C2.2488 46.8109 1.80833 47.1158 1.72491 47.5755L1.01361 51.4975C0.957549 51.8064 1.07732 52.121 1.32452 52.3145C1.47614 52.4332 1.66019 52.4943 1.84592 52.4943C1.96333 52.4943 2.08141 52.4699 2.19229 52.4201L15.8317 46.296L29.4655 52.4175C29.4658 52.4177 29.4661 52.4179 29.4665 52.418L29.4711 52.42C29.4787 52.4235 29.4867 52.4259 29.4946 52.4291C29.5071 52.4343 29.5197 52.4392 29.5325 52.4438C29.5448 52.4482 29.5572 52.4525 29.5698 52.4564C29.5779 52.4589 29.586 52.461 29.5941 52.4632C29.6047 52.4662 29.6152 52.469 29.626 52.4715C29.6435 52.4755 29.6613 52.4787 29.679 52.4816C29.6874 52.4829 29.6958 52.485 29.7043 52.4861C29.7101 52.4869 29.7158 52.4877 29.7215 52.4883C29.7498 52.4916 29.7784 52.4933 29.8068 52.4936C29.8104 52.4936 29.814 52.4943 29.8176 52.4943C29.8194 52.4943 29.8212 52.494 29.823 52.494C29.8572 52.4937 29.8912 52.4909 29.9253 52.4865C29.9294 52.486 29.9337 52.4862 29.938 52.4855C29.9444 52.4846 29.9507 52.4825 29.9573 52.4815C29.9837 52.4771 30.0102 52.4713 30.0363 52.4643C30.0435 52.4623 30.0508 52.4612 30.058 52.4592C30.0588 52.459 30.0595 52.459 30.0603 52.4587C30.0626 52.4581 30.0648 52.4568 30.0671 52.456C30.1 52.4459 30.1323 52.4343 30.1642 52.42L43.8032 46.2958L57.4425 52.4199C57.4557 52.4258 57.4692 52.4301 57.4827 52.4353C57.496 52.4405 57.509 52.4462 57.5226 52.4507C57.5403 52.4566 57.5584 52.461 57.5764 52.4656C57.5876 52.4685 57.5984 52.4721 57.6098 52.4745C57.6315 52.4792 57.6534 52.4823 57.6754 52.4853C57.6833 52.4863 57.6909 52.4881 57.6988 52.489C57.7289 52.4923 57.7589 52.494 57.789 52.494H57.7891C57.7892 52.494 57.7893 52.494 57.7893 52.494C57.8304 52.494 57.8715 52.4898 57.9125 52.4838C57.9219 52.4825 57.9314 52.481 57.9408 52.4792C57.9812 52.4719 58.0213 52.4625 58.0609 52.4489C58.0634 52.448 58.0659 52.4468 58.0684 52.446C58.0945 52.4369 58.1205 52.4269 58.1459 52.4148C58.1533 52.4114 58.1598 52.4064 58.1671 52.4027C58.1884 52.392 58.2088 52.3797 58.2293 52.367C58.2498 52.3545 58.2702 52.3419 58.2894 52.3276C58.2961 52.3226 58.3035 52.3192 58.3102 52.3141C58.325 52.3025 58.338 52.2891 58.3519 52.2765C58.3631 52.2665 58.3746 52.257 58.3853 52.2466C58.411 52.2212 58.4344 52.1942 58.4562 52.1662C58.4602 52.1609 58.465 52.1563 58.4691 52.1509C58.4943 52.1166 58.5166 52.0807 58.5363 52.0434C58.5418 52.0329 58.546 52.0218 58.5512 52.0109C58.5642 51.9835 58.5763 51.9558 58.5864 51.9271C58.5915 51.9127 58.5955 51.898 58.5998 51.8832C58.6074 51.8568 58.6139 51.8302 58.6189 51.803C58.6218 51.7875 58.6245 51.7719 58.6266 51.7561C58.6303 51.7274 58.632 51.6982 58.6328 51.6691C58.6331 51.6552 58.6342 51.6415 58.6339 51.6274C58.6332 51.5844 58.6296 51.5409 58.6216 51.4974ZM43.7524 22.3561L42.8852 22.559L42.8297 21.8425L43.7524 22.3561ZM41.907 31.8371L38.3742 29.0787C38.1297 28.8879 37.8005 28.846 37.516 28.9697L30.667 31.9507V31.0237C31.1787 30.6069 32.3414 29.6242 33.735 28.2138L41.3666 24.8612L41.907 31.8371ZM41.1201 21.6791L41.2282 23.0741L36.4607 25.1686C36.934 24.5818 37.3754 23.9981 37.785 23.4176L41.1201 21.6791ZM18.5151 21.6791L22.0215 23.507C22.5408 24.2372 23.1096 24.9727 23.7295 25.7131C24.2715 26.3603 24.8117 26.9618 25.3314 27.5123L18.143 26.4837L18.5151 21.6791ZM16.0623 31.4386L5.34325 37.1048L5.86533 34.226L5.87873 34.1518L16.2765 28.672L16.0623 31.4386ZM16.431 26.6782L6.26236 32.0374L7.13497 27.2258L16.8056 21.8426L16.5625 24.981L16.431 26.6782ZM16.7212 44.8407L17.5222 34.4993L27.5147 49.687L16.7212 44.8407ZM28.9716 41.5803L23.7606 33.3677L28.9716 33.9916V41.5803ZM28.9716 32.2876L22.1919 31.4759C21.8678 31.4377 21.5498 31.5885 21.3756 31.8649C21.2015 32.1413 21.2021 32.4932 21.3771 32.7692L28.9716 44.7381V48.8236L17.7354 31.7456L18.012 28.1741L27.3453 29.5096C28.0491 30.1628 28.6197 30.6479 28.9715 30.9375V32.2876H28.9716ZM29.8718 29.4828C27.7356 27.6812 19.7304 20.4219 19.7304 12.8334C19.7303 7.24136 24.2797 2.69187 29.8718 2.69187C35.4639 2.69187 40.0134 7.24136 40.0134 12.8334C40.0134 20.4219 32.008 27.6813 29.8718 29.4828ZM30.6635 50.3413V46.5864L33.1924 49.2057L30.6635 50.3413ZM34.833 48.469L30.6635 44.1505V33.7971L37.7295 30.7218L42.0837 34.1217L42.9139 44.8407L34.833 48.469ZM43.0172 24.2653L45.9501 23.5795L48.0301 24.7373L49.181 25.3781L43.2065 26.7114L43.0172 24.2653ZM44.6079 44.8025L43.9475 36.2756L54.8146 49.3856L44.6079 44.8025ZM43.7211 33.3515L43.4912 30.3831L43.4815 30.2574L55.6038 44.3383L56.3811 48.6241L43.7211 33.3515Z" fill="black" stroke="black" stroke-width="0.3"/>
<path d="M29.8719 7.60489C29.4047 7.60489 29.0259 7.98356 29.0259 8.45083C29.0259 8.91809 29.4047 9.29676 29.8719 9.29676C31.8219 9.29676 33.4083 10.8832 33.4083 12.8332C33.4083 14.783 31.8219 16.3695 29.8719 16.3695C27.9219 16.3695 26.3355 14.7831 26.3355 12.8332C26.3355 11.9003 26.6955 11.0202 27.3492 10.3547C27.6767 10.0215 27.672 9.48587 27.3387 9.15853C27.0054 8.83108 26.4698 8.83569 26.1424 9.16911C25.1759 10.1528 24.6437 11.4541 24.6437 12.8332C24.6437 15.716 26.989 18.0614 29.872 18.0614C32.7549 18.0614 35.1002 15.716 35.1002 12.8332C35.1001 9.95021 32.7548 7.60489 29.8719 7.60489Z" fill="black" stroke="black" stroke-width="0.3"/>
</svg>
