<svg width="57" height="58" viewBox="0 0 57 58" fill="none" xmlns="http://www.w3.org/2000/svg">
<path d="M28.126 38.2296C27.7252 38.629 27.181 38.8536 26.6154 38.8536C26.6004 38.8536 26.5854 38.8536 26.5697 38.853C25.9877 38.8409 25.4357 38.5919 25.0413 38.1633L55.3717 11.0552L28.126 38.2296ZM28.126 38.2296L27.9495 38.0525M28.126 38.2296L27.9495 38.0526L27.9495 38.0525M27.9495 38.0525C27.5956 38.4052 27.1149 38.6036 26.6154 38.6036C26.5997 38.6036 26.5899 38.6036 26.5804 38.6032L26.5804 38.6031L26.5749 38.603C26.0609 38.5923 25.5735 38.3725 25.2252 37.994L25.2252 37.9939L14.4553 26.2976C13.7485 25.5296 13.7977 24.3342 14.5654 23.6275C15.334 22.9207 16.529 22.9705 17.2357 23.7377L26.4971 33.7965L26.6734 33.9879L26.8576 33.8041L52.527 8.2025L52.5271 8.20234C53.2645 7.4656 54.4613 7.4666 55.199 8.20566M27.9495 38.0525L55.1952 10.8782L55.1953 10.8782C55.9347 10.1413 55.936 8.94458 55.199 8.20566M55.199 8.20566L55.3759 8.02906L55.199 8.20559C55.199 8.20561 55.199 8.20564 55.199 8.20566Z" fill="black" stroke="white" stroke-width="0.5"/>
<path d="M52.9709 28.6545C52.9709 27.6106 53.8168 26.7647 54.8605 26.7647C55.9044 26.7647 56.7503 27.6107 56.7503 28.6545C56.7503 44.1684 44.1274 56.7913 28.6134 56.7913C13.0988 56.7913 0.476562 44.1684 0.476562 28.6545C0.476562 13.1398 13.0988 0.517578 28.6134 0.517578C29.6572 0.517578 30.5032 1.36349 30.5032 2.40735C30.5032 3.45109 29.6572 4.29701 28.6134 4.29701C15.1828 4.29701 4.25599 15.2238 4.25599 28.6545C4.25599 42.0859 15.1828 53.0119 28.6134 53.0119C42.0449 53.0119 52.9709 42.0859 52.9709 28.6545Z" fill="black" stroke="white" stroke-width="0.5"/>
</svg>
