<svg width="58" height="58" viewBox="0 0 58 58" fill="none" xmlns="http://www.w3.org/2000/svg">
<path d="M57.3326 43.1448C56.0563 41.5209 54.652 40.0376 53.1443 38.6942C54.8408 35.1467 55.7114 31.3415 55.7114 27.3665C55.7114 12.8508 43.9026 1.04199 29.3869 1.04199C14.8712 1.04199 3.06239 12.8508 3.06239 27.3665C3.06239 31.3415 3.93291 35.1467 5.62948 38.6942C4.12172 40.0376 2.71654 41.5209 1.44116 43.1448L1 43.7058L1.44116 44.2668C7.95965 52.5635 17.7505 57.3219 28.3021 57.3219H30.4725C41.0241 57.3219 50.815 52.5635 57.3335 44.2668L57.7737 43.7058L57.3326 43.1448ZM4.87787 27.3665C4.87787 13.852 15.8724 2.85747 29.3869 2.85747C42.9013 2.85747 53.8959 13.852 53.8959 27.3665C53.8959 30.9085 53.1561 34.3052 51.71 37.4832C51.2226 37.0947 50.726 36.7198 50.2195 36.3595C51.4495 33.5182 52.0804 30.4982 52.0804 27.3665C52.0804 14.8533 41.9001 4.67296 29.3869 4.67296C16.8737 4.67296 6.69335 14.8533 6.69335 27.3665C6.69335 30.4982 7.32423 33.5182 8.55422 36.3595C8.0477 36.7189 7.55117 37.0947 7.06371 37.4832C5.61768 34.3052 4.87787 30.9085 4.87787 27.3665ZM40.8544 25.6055L46.4942 18.5559L38.034 17.1462L39.0407 20.1663L26.001 24.5125L22.2865 20.7981L11.705 26.5695L12.5746 28.1635L13.9553 27.41V33.2368C12.6227 33.8532 11.3274 34.5458 10.0838 35.3319C9.03986 32.8093 8.50883 30.1351 8.50883 27.3665C8.50883 15.8545 17.8749 6.48844 29.3869 6.48844C40.8988 6.48844 50.2649 15.8545 50.2649 27.3665C50.2649 30.1351 49.7339 32.8093 48.69 35.3319C45.2896 33.1833 41.5252 31.6655 37.5565 30.8331V22.5745L39.6153 21.8883L40.8544 25.6055ZM40.71 19.4319L43.1428 19.8377L41.5206 21.8656L40.71 19.4319ZM35.7411 23.18V30.5027C34.5456 30.3185 33.3346 30.1932 32.1101 30.136V24.39L35.7411 23.18ZM30.2946 24.9946V30.0897H28.3021C27.7529 30.0897 27.2083 30.1106 26.6637 30.136V26.2055L30.2946 24.9946ZM24.8482 25.9268V30.2712C23.6218 30.3938 22.4109 30.5835 21.2172 30.8331V23.4487L21.9634 23.042L24.8482 25.9268ZM19.4017 24.4399V31.267C18.1663 31.5975 16.9554 31.9969 15.7708 32.4625V26.4206L19.4017 24.4399ZM3.31928 43.7058C8.02228 37.9798 14.4119 34.1319 21.5041 32.6241C18.0401 35.095 15.7708 39.1362 15.7708 43.7058C15.7708 48.2754 18.0401 52.3166 21.5041 54.7875C14.4119 53.2798 8.02228 49.4318 3.31928 43.7058ZM29.3869 55.5064C22.8802 55.5064 17.5862 50.2125 17.5862 43.7058C17.5862 37.1991 22.8802 31.9052 29.3869 31.9052C35.8936 31.9052 41.1875 37.1991 41.1875 43.7058C41.1875 50.2125 35.8936 55.5064 29.3869 55.5064ZM37.2697 54.7875C40.7336 52.3166 43.003 48.2754 43.003 43.7058C43.003 39.1362 40.7336 35.095 37.2697 32.6241C44.3619 34.1319 50.7515 37.9798 55.4545 43.7058C50.7515 49.4318 44.3619 53.2798 37.2697 54.7875Z" fill="black" stroke="black" stroke-width="0.3"/>
<path d="M29.3862 33.7209C23.8807 33.7209 19.401 38.2006 19.401 43.7061C19.401 49.2115 23.8807 53.6912 29.3862 53.6912C34.8916 53.6912 39.3713 49.2115 39.3713 43.7061C39.3713 38.2006 34.8916 33.7209 29.3862 33.7209ZM29.3862 51.8758C24.8819 51.8758 21.2165 48.2112 21.2165 43.7061C21.2165 39.201 24.8819 35.5364 29.3862 35.5364C33.8904 35.5364 37.5558 39.201 37.5558 43.7061C37.5558 48.2112 33.8904 51.8758 29.3862 51.8758Z" fill="black" stroke="black" stroke-width="0.3"/>
<path d="M21.2164 13.7506H32.1093V15.5661H21.2164V13.7506Z" fill="black" stroke="black" stroke-width="0.3"/>
<path d="M30.296 17.3809H32.1115V19.1963H30.296V17.3809Z" fill="black" stroke="black" stroke-width="0.3"/>
<path d="M26.6627 17.3809H28.4782V19.1963H26.6627V17.3809Z" fill="black" stroke="black" stroke-width="0.3"/>
<path d="M21.2164 17.3809H24.8474V19.1963H21.2164V17.3809Z" fill="black" stroke="black" stroke-width="0.3"/>
<path d="M21.2164 10.1198H32.1093V11.9352H21.2164V10.1198Z" fill="black" stroke="black" stroke-width="0.3"/>
</svg>
