<svg width="40" height="37" viewBox="0 0 40 37" fill="none" xmlns="http://www.w3.org/2000/svg">
<path d="M13.59 35.7554C12.3809 35.2718 11.6555 34.0627 11.6555 32.7328V28.743C11.6555 27.8967 11.051 27.2922 10.2047 27.2922H5.73125C3.31318 27.2922 1.25781 25.2368 1.25781 22.8187V6.13408C1.25781 3.71602 3.31318 1.66064 5.73125 1.66064H34.2644C36.6825 1.66064 38.7379 3.71602 38.7379 6.13408V22.8187C38.7379 25.2368 36.6825 27.2922 34.2644 27.2922H25.3176C24.9549 27.2922 24.5921 27.413 24.3503 27.6549L17.0961 34.9091C16.4916 35.5136 15.6453 35.8763 14.799 35.8763C14.4363 35.9972 13.9527 35.8763 13.59 35.7554ZM5.73125 3.5951C4.28041 3.5951 3.07136 4.80415 3.07136 6.25499V22.9396C3.07136 24.3905 4.28041 25.5995 5.73125 25.5995H10.2047C12.0182 25.5995 13.469 27.0503 13.469 28.8639V32.8537C13.469 33.4582 13.8317 33.9418 14.3154 34.1836C14.9199 34.4254 15.4035 34.3045 15.8871 33.8209L23.1413 26.5667C23.7458 25.9622 24.5922 25.5995 25.4385 25.5995H34.3854C35.8362 25.5995 37.0452 24.3905 37.0452 22.9396V6.25499C37.0452 4.80415 35.8362 3.5951 34.3854 3.5951H5.73125Z" fill="#58CEA5" stroke="#58CEA5" stroke-width="1.5"/>
<path d="M25.8022 14.7176C25.8022 13.2668 27.0112 12.0577 28.4621 12.0577C29.913 12.0577 31.122 13.2668 31.122 14.7176C31.122 16.1685 29.913 17.3775 28.4621 17.3775C27.0112 17.3775 25.8022 16.1685 25.8022 14.7176ZM26.6485 14.7176C26.6485 15.6848 27.4949 16.5312 28.4621 16.5312C29.4293 16.5312 30.2757 15.6848 30.2757 14.7176C30.2757 13.7504 29.4293 12.9041 28.4621 12.9041C27.4949 12.9041 26.6485 13.7504 26.6485 14.7176Z" fill="#58CEA5" stroke="#58CEA5" stroke-width="1.5"/>
<path d="M17.3405 15.2015C17.3405 13.7507 18.5495 12.5416 20.0004 12.5416C21.4512 12.5416 22.6603 13.7507 22.6603 15.2015C22.6603 16.6523 21.4512 17.8613 20.0004 17.8613C18.5495 17.8613 17.3405 16.6523 17.3405 15.2015ZM18.1868 15.2015C18.1868 16.1687 19.0331 17.015 20.0004 17.015C20.9676 17.015 21.8139 16.1687 21.8139 15.2015C21.8139 14.2343 20.9676 13.388 20.0004 13.388C19.0331 13.388 18.1868 14.2343 18.1868 15.2015Z" fill="#58CEA5" stroke="#58CEA5" stroke-width="1.5"/>
<path d="M9.24014 15.2015C9.24014 13.7507 10.4492 12.5416 11.9 12.5416C13.3509 12.5416 14.5599 13.7507 14.5599 15.2015C14.5599 16.6523 13.3509 17.8613 11.9 17.8613C10.4492 17.8613 9.24014 16.6523 9.24014 15.2015ZM10.2074 15.2015C10.2074 16.1687 11.0538 17.015 12.021 17.015C12.9882 17.015 13.8345 16.1687 13.8345 15.2015C13.8345 14.2343 12.9882 13.388 12.021 13.388C10.9328 13.388 10.2074 14.2343 10.2074 15.2015Z" fill="#58CEA5" stroke="#58CEA5" stroke-width="1.5"/>
</svg>
