<svg width="69" height="72" viewBox="0 0 69 72" fill="none" xmlns="http://www.w3.org/2000/svg">
<path d="M67.6411 68.328L38.7812 46.4551C36.2223 44.505 32.7753 44.5021 30.2193 46.4521L1.3592 68.328C0.696157 68.8291 0.567204 69.768 1.06825 70.428C1.5693 71.091 2.5112 71.214 3.1682 70.719L32.0312 48.8399C33.5102 47.721 35.4872 47.7179 36.9693 48.8429L65.8323 70.719C66.1023 70.926 66.4233 71.025 66.7383 71.025C67.1883 71.025 67.6383 70.818 67.9324 70.428C68.4331 69.768 68.3042 68.8291 67.6411 68.328Z" fill="black"/>
<path d="M68.5614 25.131C68.0664 24.471 67.1185 24.339 66.4615 24.84L37.4365 46.8061C36.7765 47.304 36.6445 48.2461 37.1455 48.906C37.4365 49.296 37.8865 49.5 38.3396 49.5C38.6575 49.5 38.9756 49.401 39.2456 49.197L68.2706 27.2309C68.9304 26.733 69.0623 25.7911 68.5614 25.131Z" fill="black"/>
<path d="M31.5631 46.803L2.53807 24.837C1.88402 24.339 0.936072 24.4619 0.438118 25.1279C-0.0629285 25.7879 0.0691185 26.7299 0.729072 27.2279L29.7541 49.1939C30.0241 49.4009 30.3451 49.4999 30.6601 49.4999C31.1101 49.4999 31.5631 49.2959 31.8542 48.903C32.3551 48.243 32.223 47.3011 31.5631 46.803Z" fill="black"/>
<path d="M67.383 23.4511L62.46 19.3501C61.827 18.822 60.882 18.903 60.348 19.5391C59.817 20.1751 59.9009 21.1201 60.537 21.6511L65.457 25.7522C65.805 26.0402 66 26.4632 66 26.9071V67.5001C66 68.3251 65.325 69.0001 64.4999 69.0001H4.5C3.67495 69.0001 2.99995 68.3251 2.99995 67.5001V26.9071C2.99995 26.4601 3.195 26.0402 3.53995 25.7522L8.46 21.6511C9.09605 21.1201 9.18295 20.1751 8.65195 19.5391C8.12095 18.9001 7.173 18.8161 6.53991 19.3471L1.61395 23.4511C0.587953 24.3122 0 25.5722 0 26.9071V67.5001C0 69.9811 2.01895 72.0001 4.5 72.0001H64.5001C66.9811 72.0001 69.0001 69.9811 69.0001 67.5001V26.9071C68.9999 25.5691 68.412 24.312 67.383 23.4511Z" fill="black"/>
<path d="M61.4994 0H7.49944C6.67144 0 5.99939 0.672047 5.99939 1.50005V30.264C5.99939 31.0921 6.67144 31.7641 7.49944 31.7641C8.32744 31.7641 8.99948 31.0921 8.99948 30.264V2.99995H59.9995V30.279C59.9995 31.107 60.6716 31.779 61.4996 31.779C62.3276 31.779 62.9996 31.107 62.9996 30.279V1.50005C62.9995 0.672047 62.3274 0 61.4994 0Z" fill="black"/>
<path d="M34.5 12C33.672 12 32.9999 12.672 32.9999 13.5V31.5C32.9999 32.328 33.672 33.0001 34.5 33.0001C35.328 33.0001 36 32.328 36 31.5V13.5C36 12.672 35.328 12 34.5 12Z" fill="black"/>
<path d="M43.4995 21H25.4995C24.6715 21 23.9995 21.672 23.9995 22.5C23.9995 23.328 24.6715 24.0001 25.4995 24.0001H43.4995C44.3275 24.0001 44.9995 23.328 44.9995 22.5C44.9995 21.672 44.3275 21 43.4995 21Z" fill="black"/>
</svg>
