<svg width="87" height="72" viewBox="0 0 87 72" fill="none" xmlns="http://www.w3.org/2000/svg">
<path d="M61.8248 38.7367L62.0094 39.0994L62.402 38.9923C63.4264 38.713 64.5022 38.5612 65.6132 38.5612H74.113C80.8504 38.5612 86.3326 44.0434 86.3326 50.7808V64.3684C86.3326 68.3004 83.1328 71.5002 79.2008 71.5002H7.63177C3.69975 71.5002 0.5 68.3004 0.5 64.3684V50.7808C0.5 44.0434 5.98216 38.5612 12.7196 38.5612H21.2194C22.3304 38.5612 23.4062 38.713 24.4305 38.9923L24.8232 39.0994L25.0077 38.7367C27.0288 34.7637 31.1537 32.0365 35.9041 32.0365H50.9285C55.6789 32.0365 59.8038 34.7637 61.8248 38.7367ZM23.1845 67.4125H23.6845V66.9125V44.2565C23.6845 43.9885 23.6964 43.7203 23.7143 43.4487L23.7411 43.0404L23.3463 42.9333C22.6682 42.7492 21.9555 42.6492 21.2194 42.6492H12.7196C8.23532 42.6492 4.58785 46.2967 4.58785 50.781V64.3686C4.58785 66.0474 5.95291 67.4125 7.63177 67.4125H23.1845ZM58.5603 67.4125H59.0603V66.9125V44.2563C59.0603 39.772 55.4128 36.1246 50.9285 36.1246H35.9041C31.4198 36.1246 27.7723 39.772 27.7723 44.2563V66.9125V67.4125H28.2723H58.5603ZM63.1481 66.9125V67.4125H63.6481H79.2008C80.8797 67.4125 82.2447 66.0474 82.2447 64.3686V50.7808C82.2447 46.2965 78.5973 42.649 74.113 42.649H65.6132C64.877 42.649 64.1643 42.7492 63.4864 42.9331L63.0914 43.0402L63.1183 43.4485C63.1362 43.7199 63.1481 43.9881 63.1481 44.2563V66.9125Z" fill="black" stroke="white"/>
<path d="M6.16757 25.3408C6.16757 19.3845 11.0141 14.538 16.9704 14.538C22.9267 14.538 27.7732 19.3845 27.7732 25.3408C27.7732 31.2971 22.9265 36.1436 16.9704 36.1436C11.0141 36.1436 6.16741 31.2971 6.16757 25.3408ZM10.2552 25.3408C10.2552 29.0439 13.2671 32.0558 16.9702 32.0558C20.6734 32.0558 23.6852 29.0439 23.6852 25.3408C23.6852 21.6377 20.6734 18.6258 16.9702 18.6258C13.2671 18.6258 10.2552 21.6377 10.2552 25.3408Z" fill="black" stroke="white"/>
<path d="M28.8156 15.1004C28.8156 7.0501 35.3657 0.5 43.416 0.5C51.4663 0.5 58.0164 7.05027 58.0164 15.1004C58.0164 23.1507 51.4663 29.7008 43.416 29.7008C35.3657 29.7008 28.8156 23.1507 28.8156 15.1004ZM32.9034 15.1004C32.9034 20.8975 37.6188 25.6129 43.416 25.6129C49.2131 25.6129 53.9285 20.8975 53.9285 15.1004C53.9285 9.30325 49.2131 4.58785 43.416 4.58785C37.6188 4.58785 32.9034 9.30343 32.9034 15.1004Z" fill="black" stroke="white"/>
<path d="M63.1489 25.3408V25.3408C63.1489 29.044 66.1609 32.0558 69.8639 32.0558C73.567 32.0558 76.5789 29.0439 76.5789 25.3408C76.5789 21.6377 73.567 18.6258 69.8639 18.6258C66.1609 18.6258 63.1491 21.6377 63.1489 25.3408ZM59.0611 25.3408C59.0611 19.3845 63.9077 14.538 69.8639 14.538C75.8202 14.538 80.6667 19.3845 80.6667 25.3408C80.6667 31.2971 75.8202 36.1436 69.8639 36.1436C63.9078 36.1436 59.0612 31.2971 59.0611 25.3408Z" fill="black" stroke="white"/>
</svg>
