<svg width="401" height="390" viewBox="0 0 401 390" fill="none" xmlns="http://www.w3.org/2000/svg">
<path d="M200.413 389.776C310.918 389.776 400.5 338.026 400.5 274.188C400.5 210.351 310.918 158.601 200.413 158.601C89.9081 158.601 0.326172 210.351 0.326172 274.188C0.326172 338.026 89.9081 389.776 200.413 389.776Z" fill="#F5F5F5"/>
<path d="M69.2815 301.557L11.7358 268.319C9.75148 267.162 9.75148 265.26 11.7358 264.103L115.831 203.994C117.815 202.836 121.122 202.836 123.106 203.994L180.652 237.231C182.636 238.389 182.636 240.291 180.652 241.448L76.5573 301.557C74.573 302.714 71.3485 302.714 69.2815 301.557Z" fill="#E0E0E0"/>
<path d="M265.235 319.168C292.999 319.168 315.505 306.175 315.505 290.147C315.505 274.119 292.999 261.126 265.235 261.126C237.472 261.126 214.966 274.119 214.966 290.147C214.966 306.175 237.472 319.168 265.235 319.168Z" fill="#E0E0E0"/>
<path d="M132.119 365.303C159.882 365.303 182.389 352.31 182.389 336.283C182.389 320.255 159.882 307.262 132.119 307.262C104.356 307.262 81.849 320.255 81.849 336.283C81.849 352.31 104.356 365.303 132.119 365.303Z" fill="#E0E0E0"/>
<path d="M106.241 12.3417C105.993 12.259 105.745 12.259 105.415 12.5071L103.844 13.7473L103.513 14.7395C103.348 15.3182 103.596 16.145 104.092 16.5584C104.34 16.8065 104.67 17.1372 104.918 17.4679C105.332 17.964 105.993 18.1294 106.489 17.716L110.21 14.9048C110.458 14.7395 110.789 14.6568 110.954 14.7395L106.241 12.3417ZM101.28 26.8935C100.536 23.7516 98.4694 22.3461 95.8236 22.7595C96.0716 23.2555 96.3197 23.8343 96.485 24.5784C97.6425 29.4566 94.9968 36.7325 90.532 40.7838C88.8784 42.2721 87.2248 43.0989 85.7366 43.3469C87.4728 46.5715 91.4415 46.6541 95.3275 43.1816C99.7922 39.1302 102.438 31.8543 101.28 26.8935ZM99.9576 5.6446C99.8749 5.6446 99.7922 5.56192 99.6269 5.56192L96.6504 5.06583C95.9889 4.98315 95.3275 5.39656 95.0794 5.97532L92.6817 11.4322C92.599 11.6803 92.351 11.9283 92.103 12.1764C91.9376 12.3417 91.8549 12.4244 91.6895 12.5071L92.7644 15.3182C93.0124 15.897 93.5912 16.145 94.17 15.8143C94.7487 15.5663 95.3275 15.3182 95.9063 15.0702C96.237 14.9875 96.5677 14.7395 96.8984 14.4914C97.1465 14.2434 97.3945 13.9953 97.4772 13.7473L99.8749 8.29037C100.123 7.71161 100.867 7.29821 101.446 7.38089L104.422 7.87697C104.505 7.87697 104.67 7.95965 104.753 7.95965L99.9576 5.6446ZM95.0794 56.8238C94.9141 56.7412 94.8314 56.5758 94.7487 56.4104L93.5085 53.1859C93.2605 52.6071 92.6817 52.3591 92.103 52.6898C91.5242 52.9379 90.9454 53.1859 90.3667 53.4339C90.2013 53.5166 90.0359 53.5993 89.7879 53.682L89.9533 54.0954C90.0359 54.3434 90.2013 54.5088 90.3667 54.5915L95.0794 56.8238ZM86.3153 9.19986C86.2326 9.11718 86.0673 9.11718 85.9846 9.11718C85.8192 9.11718 85.6539 9.19986 85.4885 9.36522L81.3545 13.0858C81.2718 13.1685 81.2718 13.1685 81.1891 13.2512C81.1064 13.2512 81.1064 13.3339 81.1064 13.4166C80.9411 13.6646 80.8584 13.9127 80.7757 14.1607C80.7757 14.2434 80.7757 14.2434 80.693 14.3261C80.6104 14.5741 80.6104 14.8221 80.6104 15.0702L81.1064 19.2042C81.1891 19.8656 80.9411 20.7751 80.5277 21.2712C79.8662 22.1807 79.2875 23.0902 78.7087 24.0824C78.5433 24.4131 78.2126 24.6611 77.7992 24.9092C77.6339 24.9918 77.5512 24.9918 77.3858 25.0745C77.3031 25.0745 77.3031 25.0745 77.2205 25.1572C77.1378 25.1572 77.0551 25.1572 76.9724 25.1572L74.1613 25.2399H74.0786C73.9959 25.2399 73.9132 25.2399 73.8306 25.2399C73.7479 25.2399 73.6652 25.2399 73.6652 25.3226C73.5825 25.3226 73.4998 25.4052 73.4172 25.4052C73.2518 25.4879 73.1691 25.5706 73.0037 25.6533C72.8384 25.8186 72.673 26.0667 72.5903 26.232L70.358 32.3504C70.1926 32.9292 70.358 33.5079 70.9367 33.756L74.1613 35.3269C74.244 35.5749 74.3266 35.823 74.244 36.1537C74.0786 37.1459 73.9959 38.0554 73.9132 39.0475C73.9132 39.709 73.4998 40.5358 73.0864 41.0319L73.0037 41.1145L69.3658 44.9178C69.2831 45.0005 69.2831 45.0832 69.2004 45.1659C69.1178 45.2486 69.1178 45.3312 69.0351 45.4139C68.787 45.8273 68.7044 46.4061 68.8697 46.8195L69.8619 51.0362C69.9446 51.2842 70.0272 51.4496 70.2753 51.615L75.0708 53.93C74.9054 53.8473 74.74 53.682 74.74 53.3513L73.7479 49.1346C73.6652 48.8865 73.6652 48.6385 73.7479 48.3077C73.8306 47.8943 73.9959 47.4809 74.244 47.1502L77.7992 43.3469L77.8819 43.2642C78.2953 42.7682 78.7087 41.9413 78.7087 41.2799C78.7914 40.3704 78.8741 39.3783 79.0394 38.3861C79.1221 37.7246 78.7914 37.0632 78.1299 36.8978L75.8149 36.071C75.2361 35.823 74.9054 35.1615 75.1534 34.5828L77.3858 28.4644C77.4685 28.2164 77.6339 28.051 77.7992 27.8857C78.1299 27.5549 78.5433 27.3896 78.9567 27.3896L81.7679 27.3069C82.0159 27.3069 82.3466 27.2242 82.5947 27.0589C83.0081 26.8935 83.3388 26.5628 83.5042 26.232C84.0829 25.2399 84.6617 24.3304 85.3232 23.4209C85.7366 22.9248 85.9846 22.0153 85.9019 21.3539L85.4058 17.2199C85.4058 16.9718 85.4058 16.7238 85.4885 16.4757C85.5712 15.9797 85.8192 15.5663 86.15 15.3182L90.284 11.5976C90.532 11.3496 90.8627 11.2669 91.1108 11.4322L86.3153 9.19986ZM82.6774 53.8473C82.8427 53.2686 82.5947 52.4418 82.0986 52.0284C81.8506 51.7803 81.5198 51.4496 81.2718 51.1189C80.8584 50.6228 80.197 50.4574 79.7009 50.8708L77.5512 52.4418L76.2283 56.9065C76.0629 57.4026 76.311 57.816 76.7244 58.064L81.5198 60.4618C81.1064 60.2137 80.9411 59.8003 81.0238 59.3043L82.6774 53.8473Z" fill="#69D8AA"/>
<path opacity="0.7" d="M106.241 12.3417C105.993 12.259 105.745 12.259 105.415 12.5071L103.844 13.7473L103.513 14.7395C103.348 15.3182 103.596 16.145 104.092 16.5584C104.34 16.8065 104.67 17.1372 104.918 17.4679C105.332 17.964 105.993 18.1294 106.489 17.716L110.21 14.9048C110.458 14.7395 110.789 14.6568 110.954 14.7395L106.241 12.3417ZM101.28 26.8935C100.536 23.7516 98.4694 22.3461 95.8236 22.7595C96.0716 23.2555 96.3197 23.8343 96.485 24.5784C97.6425 29.4566 94.9968 36.7325 90.532 40.7838C88.8784 42.2721 87.2248 43.0989 85.7366 43.3469C87.4728 46.5715 91.4415 46.6541 95.3275 43.1816C99.7922 39.1302 102.438 31.8543 101.28 26.8935ZM99.9576 5.6446C99.8749 5.6446 99.7922 5.56192 99.6269 5.56192L96.6504 5.06583C95.9889 4.98315 95.3275 5.39656 95.0794 5.97532L92.6817 11.4322C92.599 11.6803 92.351 11.9283 92.103 12.1764C91.9376 12.3417 91.8549 12.4244 91.6895 12.5071L92.7644 15.3182C93.0124 15.897 93.5912 16.145 94.17 15.8143C94.7487 15.5663 95.3275 15.3182 95.9063 15.0702C96.237 14.9875 96.5677 14.7395 96.8984 14.4914C97.1465 14.2434 97.3945 13.9953 97.4772 13.7473L99.8749 8.29037C100.123 7.71161 100.867 7.29821 101.446 7.38089L104.422 7.87697C104.505 7.87697 104.67 7.95965 104.753 7.95965L99.9576 5.6446ZM95.0794 56.8238C94.9141 56.7412 94.8314 56.5758 94.7487 56.4104L93.5085 53.1859C93.2605 52.6071 92.6817 52.3591 92.103 52.6898C91.5242 52.9379 90.9454 53.1859 90.3667 53.4339C90.2013 53.5166 90.0359 53.5993 89.7879 53.682L89.9533 54.0954C90.0359 54.3434 90.2013 54.5088 90.3667 54.5915L95.0794 56.8238ZM86.3153 9.19986C86.2326 9.11718 86.0673 9.11718 85.9846 9.11718C85.8192 9.11718 85.6539 9.19986 85.4885 9.36522L81.3545 13.0858C81.2718 13.1685 81.2718 13.1685 81.1891 13.2512C81.1064 13.2512 81.1064 13.3339 81.1064 13.4166C80.9411 13.6646 80.8584 13.9127 80.7757 14.1607C80.7757 14.2434 80.7757 14.2434 80.693 14.3261C80.6104 14.5741 80.6104 14.8221 80.6104 15.0702L81.1064 19.2042C81.1891 19.8656 80.9411 20.7751 80.5277 21.2712C79.8662 22.1807 79.2875 23.0902 78.7087 24.0824C78.5433 24.4131 78.2126 24.6611 77.7992 24.9092C77.6339 24.9918 77.5512 24.9918 77.3858 25.0745C77.3031 25.0745 77.3031 25.0745 77.2205 25.1572C77.1378 25.1572 77.0551 25.1572 76.9724 25.1572L74.1613 25.2399H74.0786C73.9959 25.2399 73.9132 25.2399 73.8306 25.2399C73.7479 25.2399 73.6652 25.2399 73.6652 25.3226C73.5825 25.3226 73.4998 25.4052 73.4172 25.4052C73.2518 25.4879 73.1691 25.5706 73.0037 25.6533C72.8384 25.8186 72.673 26.0667 72.5903 26.232L70.358 32.3504C70.1926 32.9292 70.358 33.5079 70.9367 33.756L74.1613 35.3269C74.244 35.5749 74.3266 35.823 74.244 36.1537C74.0786 37.1459 73.9959 38.0554 73.9132 39.0475C73.9132 39.709 73.4998 40.5358 73.0864 41.0319L73.0037 41.1145L69.3658 44.9178C69.2831 45.0005 69.2831 45.0832 69.2004 45.1659C69.1178 45.2486 69.1178 45.3312 69.0351 45.4139C68.787 45.8273 68.7044 46.4061 68.8697 46.8195L69.8619 51.0362C69.9446 51.2842 70.0272 51.4496 70.2753 51.615L75.0708 53.93C74.9054 53.8473 74.74 53.682 74.74 53.3513L73.7479 49.1346C73.6652 48.8865 73.6652 48.6385 73.7479 48.3077C73.8306 47.8943 73.9959 47.4809 74.244 47.1502L77.7992 43.3469L77.8819 43.2642C78.2953 42.7682 78.7087 41.9413 78.7087 41.2799C78.7914 40.3704 78.8741 39.3783 79.0394 38.3861C79.1221 37.7246 78.7914 37.0632 78.1299 36.8978L75.8149 36.071C75.2361 35.823 74.9054 35.1615 75.1534 34.5828L77.3858 28.4644C77.4685 28.2164 77.6339 28.051 77.7992 27.8857C78.1299 27.5549 78.5433 27.3896 78.9567 27.3896L81.7679 27.3069C82.0159 27.3069 82.3466 27.2242 82.5947 27.0589C83.0081 26.8935 83.3388 26.5628 83.5042 26.232C84.0829 25.2399 84.6617 24.3304 85.3232 23.4209C85.7366 22.9248 85.9846 22.0153 85.9019 21.3539L85.4058 17.2199C85.4058 16.9718 85.4058 16.7238 85.4885 16.4757C85.5712 15.9797 85.8192 15.5663 86.15 15.3182L90.284 11.5976C90.532 11.3496 90.8627 11.2669 91.1108 11.4322L86.3153 9.19986ZM82.6774 53.8473C82.8427 53.2686 82.5947 52.4418 82.0986 52.0284C81.8506 51.7803 81.5198 51.4496 81.2718 51.1189C80.8584 50.6228 80.197 50.4574 79.7009 50.8708L77.5512 52.4418L76.2283 56.9065C76.0629 57.4026 76.311 57.816 76.7244 58.064L81.5198 60.4618C81.1064 60.2137 80.9411 59.8003 81.0238 59.3043L82.6774 53.8473Z" fill="white" fill-opacity="0.8"/>
<path opacity="0.05" d="M106.241 12.3417C105.993 12.259 105.745 12.259 105.415 12.5071L103.844 13.7473L103.513 14.7395C103.348 15.3182 103.596 16.145 104.092 16.5584C104.34 16.8065 104.67 17.1372 104.918 17.4679C105.332 17.964 105.993 18.1294 106.489 17.716L110.21 14.9048C110.458 14.7395 110.789 14.6568 110.954 14.7395L106.241 12.3417ZM101.28 26.8935C100.536 23.7516 98.4694 22.3461 95.8236 22.7595C96.0716 23.2555 96.3197 23.8343 96.485 24.5784C97.6425 29.4566 94.9968 36.7325 90.532 40.7838C88.8784 42.2721 87.2248 43.0989 85.7366 43.3469C87.4728 46.5715 91.4415 46.6541 95.3275 43.1816C99.7922 39.1302 102.438 31.8543 101.28 26.8935ZM99.9576 5.6446C99.8749 5.6446 99.7922 5.56192 99.6269 5.56192L96.6504 5.06583C95.9889 4.98315 95.3275 5.39656 95.0794 5.97532L92.6817 11.4322C92.599 11.6803 92.351 11.9283 92.103 12.1764C91.9376 12.3417 91.8549 12.4244 91.6895 12.5071L92.7644 15.3182C93.0124 15.897 93.5912 16.145 94.17 15.8143C94.7487 15.5663 95.3275 15.3182 95.9063 15.0702C96.237 14.9875 96.5677 14.7395 96.8984 14.4914C97.1465 14.2434 97.3945 13.9953 97.4772 13.7473L99.8749 8.29037C100.123 7.71161 100.867 7.29821 101.446 7.38089L104.422 7.87697C104.505 7.87697 104.67 7.95965 104.753 7.95965L99.9576 5.6446ZM95.0794 56.8238C94.9141 56.7412 94.8314 56.5758 94.7487 56.4104L93.5085 53.1859C93.2605 52.6071 92.6817 52.3591 92.103 52.6898C91.5242 52.9379 90.9454 53.1859 90.3667 53.4339C90.2013 53.5166 90.0359 53.5993 89.7879 53.682L89.9533 54.0954C90.0359 54.3434 90.2013 54.5088 90.3667 54.5915L95.0794 56.8238ZM86.3153 9.19986C86.2326 9.11718 86.0673 9.11718 85.9846 9.11718C85.8192 9.11718 85.6539 9.19986 85.4885 9.36522L81.3545 13.0858C81.2718 13.1685 81.2718 13.1685 81.1891 13.2512C81.1064 13.2512 81.1064 13.3339 81.1064 13.4166C80.9411 13.6646 80.8584 13.9127 80.7757 14.1607C80.7757 14.2434 80.7757 14.2434 80.693 14.3261C80.6104 14.5741 80.6104 14.8221 80.6104 15.0702L81.1064 19.2042C81.1891 19.8656 80.9411 20.7751 80.5277 21.2712C79.8662 22.1807 79.2875 23.0902 78.7087 24.0824C78.5433 24.4131 78.2126 24.6611 77.7992 24.9092C77.6339 24.9918 77.5512 24.9918 77.3858 25.0745C77.3031 25.0745 77.3031 25.0745 77.2205 25.1572C77.1378 25.1572 77.0551 25.1572 76.9724 25.1572L74.1613 25.2399H74.0786C73.9959 25.2399 73.9132 25.2399 73.8306 25.2399C73.7479 25.2399 73.6652 25.2399 73.6652 25.3226C73.5825 25.3226 73.4998 25.4052 73.4172 25.4052C73.2518 25.4879 73.1691 25.5706 73.0037 25.6533C72.8384 25.8186 72.673 26.0667 72.5903 26.232L70.358 32.3504C70.1926 32.9292 70.358 33.5079 70.9367 33.756L74.1613 35.3269C74.244 35.5749 74.3266 35.823 74.244 36.1537C74.0786 37.1459 73.9959 38.0554 73.9132 39.0475C73.9132 39.709 73.4998 40.5358 73.0864 41.0319L73.0037 41.1145L69.3658 44.9178C69.2831 45.0005 69.2831 45.0832 69.2004 45.1659C69.1178 45.2486 69.1178 45.3312 69.0351 45.4139C68.787 45.8273 68.7044 46.4061 68.8697 46.8195L69.8619 51.0362C69.9446 51.2842 70.0272 51.4496 70.2753 51.615L75.0708 53.93C74.9054 53.8473 74.74 53.682 74.74 53.3513L73.7479 49.1346C73.6652 48.8865 73.6652 48.6385 73.7479 48.3077C73.8306 47.8943 73.9959 47.4809 74.244 47.1502L77.7992 43.3469L77.8819 43.2642C78.2953 42.7682 78.7087 41.9413 78.7087 41.2799C78.7914 40.3704 78.8741 39.3783 79.0394 38.3861C79.1221 37.7246 78.7914 37.0632 78.1299 36.8978L75.8149 36.071C75.2361 35.823 74.9054 35.1615 75.1534 34.5828L77.3858 28.4644C77.4685 28.2164 77.6339 28.051 77.7992 27.8857C78.1299 27.5549 78.5433 27.3896 78.9567 27.3896L81.7679 27.3069C82.0159 27.3069 82.3466 27.2242 82.5947 27.0589C83.0081 26.8935 83.3388 26.5628 83.5042 26.232C84.0829 25.2399 84.6617 24.3304 85.3232 23.4209C85.7366 22.9248 85.9846 22.0153 85.9019 21.3539L85.4058 17.2199C85.4058 16.9718 85.4058 16.7238 85.4885 16.4757C85.5712 15.9797 85.8192 15.5663 86.15 15.3182L90.284 11.5976C90.532 11.3496 90.8627 11.2669 91.1108 11.4322L86.3153 9.19986ZM82.6774 53.8473C82.8427 53.2686 82.5947 52.4418 82.0986 52.0284C81.8506 51.7803 81.5198 51.4496 81.2718 51.1189C80.8584 50.6228 80.197 50.4574 79.7009 50.8708L77.5512 52.4418L76.2283 56.9065C76.0629 57.4026 76.311 57.816 76.7244 58.064L81.5198 60.4618C81.1064 60.2137 80.9411 59.8003 81.0238 59.3043L82.6774 53.8473Z" fill="black"/>
<path d="M77.8841 43.3456L74.3288 47.1489C74.0808 47.3969 73.9154 47.893 73.8327 48.3064L69.0373 45.9913C69.0373 45.7433 69.1199 45.5779 69.2026 45.3299C69.2026 45.2472 69.2853 45.1645 69.368 45.0819C69.4507 44.9992 69.4507 44.9165 69.5333 44.8338L73.1713 41.0305L77.8841 43.3456Z" fill="#69D8AA"/>
<path d="M82.5951 27.2223C82.347 27.3876 82.0163 27.4703 81.7682 27.4703L78.9571 27.553C78.5437 27.553 78.1303 27.801 77.7996 28.0491L73.0868 25.6513C73.1695 25.5687 73.3348 25.486 73.5002 25.4033C73.5829 25.3206 73.6656 25.3206 73.7482 25.3206C73.8309 25.3206 73.9136 25.2379 73.9136 25.2379C73.9963 25.2379 74.079 25.2379 74.1616 25.2379H74.2443L77.0555 25.1553C77.1381 25.1553 77.2208 25.1553 77.3035 25.1553C77.3862 25.1553 77.3862 25.1553 77.4689 25.0726C77.5515 25.0726 77.7169 24.9899 77.7996 24.9072L82.5951 27.2223Z" fill="#69D8AA"/>
<path d="M111.036 14.6559C110.788 14.5732 110.54 14.5732 110.292 14.8213L106.572 17.6324C106.076 18.0458 105.414 17.8805 105.001 17.3844C104.753 17.0537 104.505 16.8056 104.174 16.4749C103.678 16.0615 103.43 15.2347 103.595 14.6559L103.926 13.6638L105.497 12.4235C105.745 12.1755 106.076 12.1755 106.324 12.2582L111.036 14.6559Z" fill="#69D8AA"/>
<path d="M104.671 8.04111C104.588 8.04111 104.505 7.95843 104.34 7.95843L101.363 7.46235C100.702 7.37967 100.04 7.79307 99.7924 8.37183L97.3947 13.8287C97.312 14.0768 97.0639 14.3248 96.8159 14.5729L92.0204 12.1751C92.2685 11.9271 92.4338 11.6791 92.5992 11.431L94.9969 5.9741C95.245 5.39533 95.9891 4.98193 96.5678 5.06461L99.5443 5.5607C99.627 5.5607 99.7924 5.64338 99.8751 5.64338L104.671 8.04111Z" fill="#69D8AA"/>
<path d="M91.1137 11.5965C90.8656 11.4311 90.5349 11.5138 90.2869 11.7619L86.1528 15.4825C85.8221 15.7305 85.5741 16.2266 85.4914 16.64L80.6959 14.325C80.6959 14.2423 80.6959 14.2423 80.7786 14.1596C80.8613 13.9116 80.944 13.6635 81.1093 13.4155C81.1093 13.3328 81.192 13.3328 81.192 13.2501C81.2747 13.1674 81.2747 13.1674 81.3574 13.0848L85.4914 9.36413C85.6568 9.19877 85.8221 9.11609 85.9875 9.11609C86.0702 9.11609 86.2355 9.11609 86.3182 9.19877L91.1137 11.5965Z" fill="#69D8AA"/>
<path opacity="0.9" d="M77.8841 43.3456L74.3288 47.1489C74.0808 47.3969 73.9154 47.893 73.8327 48.3064L69.0373 45.9913C69.0373 45.7433 69.1199 45.5779 69.2026 45.3299C69.2026 45.2472 69.2853 45.1645 69.368 45.0819C69.4507 44.9992 69.4507 44.9165 69.5333 44.8338L73.1713 41.0305L77.8841 43.3456Z" fill="white" fill-opacity="0.8"/>
<path opacity="0.9" d="M82.5951 27.2223C82.347 27.3876 82.0163 27.4703 81.7682 27.4703L78.9571 27.553C78.5437 27.553 78.1303 27.801 77.7996 28.0491L73.0868 25.6513C73.1695 25.5687 73.3348 25.486 73.5002 25.4033C73.5829 25.3206 73.6656 25.3206 73.7482 25.3206C73.8309 25.3206 73.9136 25.2379 73.9136 25.2379C73.9963 25.2379 74.079 25.2379 74.1616 25.2379H74.2443L77.0555 25.1553C77.1381 25.1553 77.2208 25.1553 77.3035 25.1553C77.3862 25.1553 77.3862 25.1553 77.4689 25.0726C77.5515 25.0726 77.7169 24.9899 77.7996 24.9072L82.5951 27.2223Z" fill="white" fill-opacity="0.8"/>
<path opacity="0.9" d="M111.036 14.6559C110.788 14.5732 110.54 14.5732 110.292 14.8213L106.572 17.6324C106.076 18.0458 105.414 17.8805 105.001 17.3844C104.753 17.0537 104.505 16.8056 104.174 16.4749C103.678 16.0615 103.43 15.2347 103.595 14.6559L103.926 13.6638L105.497 12.4235C105.745 12.1755 106.076 12.1755 106.324 12.2582L111.036 14.6559Z" fill="white" fill-opacity="0.8"/>
<path opacity="0.9" d="M104.671 8.04111C104.588 8.04111 104.505 7.95843 104.34 7.95843L101.363 7.46235C100.702 7.37967 100.04 7.79307 99.7924 8.37183L97.3947 13.8287C97.312 14.0768 97.0639 14.3248 96.8159 14.5729L92.0204 12.1751C92.2685 11.9271 92.4338 11.6791 92.5992 11.431L94.9969 5.9741C95.245 5.39533 95.9891 4.98193 96.5678 5.06461L99.5443 5.5607C99.627 5.5607 99.7924 5.64338 99.8751 5.64338L104.671 8.04111Z" fill="white" fill-opacity="0.8"/>
<path opacity="0.9" d="M91.1137 11.5965C90.8656 11.4311 90.5349 11.5138 90.2869 11.7619L86.1528 15.4825C85.8221 15.7305 85.5741 16.2266 85.4914 16.64L80.6959 14.325C80.6959 14.2423 80.6959 14.2423 80.7786 14.1596C80.8613 13.9116 80.944 13.6635 81.1093 13.4155C81.1093 13.3328 81.192 13.3328 81.192 13.2501C81.2747 13.1674 81.2747 13.1674 81.3574 13.0848L85.4914 9.36413C85.6568 9.19877 85.8221 9.11609 85.9875 9.11609C86.0702 9.11609 86.2355 9.11609 86.3182 9.19877L91.1137 11.5965Z" fill="white" fill-opacity="0.8"/>
<path d="M112.445 19.3686L111.453 15.1519C111.288 14.5731 110.792 14.3251 110.296 14.7385L106.575 17.5496C106.079 17.963 105.418 17.7977 105.004 17.3016C104.756 16.9709 104.508 16.7228 104.177 16.3921C103.681 15.9787 103.433 15.1519 103.599 14.5731L105.252 9.11621C105.417 8.53745 105.087 7.95868 104.425 7.876L101.449 7.37992C100.787 7.29724 100.126 7.71064 99.8779 8.2894L97.4802 13.6636C97.2321 14.2424 96.488 14.8212 95.9092 14.9865C95.3305 15.1519 94.7517 15.3999 94.173 15.7307C93.5942 15.9787 93.0154 15.8133 92.7674 15.1519L91.5272 11.9273C91.2791 11.3486 90.7004 11.1832 90.287 11.5966L86.1529 15.3172C85.6569 15.7307 85.3261 16.5575 85.4088 17.2189L85.9049 21.3529C85.9876 22.0144 85.7395 22.9239 85.3261 23.4199C84.6647 24.3294 84.0859 25.2389 83.5072 26.2311C83.1764 26.8098 82.4323 27.2232 81.7709 27.2232L78.9597 27.3059C78.2983 27.3059 77.6368 27.802 77.3888 28.3808L75.1564 34.4991C74.9084 35.0779 75.2391 35.7393 75.8179 35.9874L78.1329 36.8142C78.7117 37.0622 79.1251 37.7237 79.0424 38.3024C78.8771 39.2946 78.7944 40.2041 78.7117 41.1963C78.7117 41.8577 78.2983 42.6845 77.8849 43.1806L74.2469 46.9839C73.8335 47.48 73.5855 48.3068 73.7509 48.9682L74.743 53.1849C74.9084 53.7637 75.4045 54.0117 75.9006 53.5983L79.6212 50.7872C80.1173 50.3738 80.7787 50.5392 81.1921 51.0352C81.4402 51.366 81.6882 51.614 82.0189 51.9447C82.515 52.3581 82.763 53.1849 82.5977 53.7637L80.9441 59.2206C80.7787 59.7994 81.1094 60.3781 81.7709 60.4608L84.7474 60.9569C85.4088 61.0396 86.0703 60.6262 86.3183 60.0474L88.7987 54.7559C89.0468 54.1771 89.7909 53.5983 90.3696 53.433C90.9484 53.2676 91.5272 53.0196 92.1059 52.6889C92.6847 52.4408 93.2635 52.6062 93.5115 53.2676L94.7517 56.4922C94.9998 57.0709 95.5785 57.2363 95.9919 56.8229L100.126 53.1023C100.622 52.6889 100.953 51.862 100.87 51.2006L100.374 47.0666C100.291 46.4051 100.539 45.4956 100.953 44.9996C101.614 44.0901 102.193 43.1806 102.772 42.1884C103.102 41.6097 103.847 41.1963 104.508 41.1963L107.319 41.1136C107.981 41.1136 108.642 40.6175 108.89 40.0387L111.122 33.9204C111.37 33.3416 111.04 32.6802 110.461 32.4321L108.146 31.6053C107.567 31.3573 107.154 30.6958 107.236 30.1171C107.402 29.1249 107.485 28.2154 107.567 27.2232C107.567 26.5618 107.981 25.735 108.394 25.2389L112.032 21.4356C112.363 20.8568 112.611 20.03 112.445 19.3686ZM95.2478 43.1806C90.7831 47.2319 86.1529 46.4878 84.9954 41.6097C83.8379 36.6488 86.4837 29.4556 90.9484 25.4043C95.4132 21.3529 100.043 22.0971 101.201 26.9752C102.441 31.8534 99.7952 39.1292 95.2478 43.1806Z" fill="#69D8AA"/>
<path opacity="0.75" d="M112.445 19.3686L111.453 15.1519C111.288 14.5731 110.792 14.3251 110.296 14.7385L106.575 17.5496C106.079 17.963 105.418 17.7977 105.004 17.3016C104.756 16.9709 104.508 16.7228 104.177 16.3921C103.681 15.9787 103.433 15.1519 103.599 14.5731L105.252 9.11621C105.417 8.53745 105.087 7.95868 104.425 7.876L101.449 7.37992C100.787 7.29724 100.126 7.71064 99.8779 8.2894L97.4802 13.6636C97.2321 14.2424 96.488 14.8212 95.9092 14.9865C95.3305 15.1519 94.7517 15.3999 94.173 15.7307C93.5942 15.9787 93.0154 15.8133 92.7674 15.1519L91.5272 11.9273C91.2791 11.3486 90.7004 11.1832 90.287 11.5966L86.1529 15.3172C85.6569 15.7307 85.3261 16.5575 85.4088 17.2189L85.9049 21.3529C85.9876 22.0144 85.7395 22.9239 85.3261 23.4199C84.6647 24.3294 84.0859 25.2389 83.5072 26.2311C83.1764 26.8098 82.4323 27.2232 81.7709 27.2232L78.9597 27.3059C78.2983 27.3059 77.6368 27.802 77.3888 28.3808L75.1564 34.4991C74.9084 35.0779 75.2391 35.7393 75.8179 35.9874L78.1329 36.8142C78.7117 37.0622 79.1251 37.7237 79.0424 38.3024C78.8771 39.2946 78.7944 40.2041 78.7117 41.1963C78.7117 41.8577 78.2983 42.6845 77.8849 43.1806L74.2469 46.9839C73.8335 47.48 73.5855 48.3068 73.7509 48.9682L74.743 53.1849C74.9084 53.7637 75.4045 54.0117 75.9006 53.5983L79.6212 50.7872C80.1173 50.3738 80.7787 50.5392 81.1921 51.0352C81.4402 51.366 81.6882 51.614 82.0189 51.9447C82.515 52.3581 82.763 53.1849 82.5977 53.7637L80.9441 59.2206C80.7787 59.7994 81.1094 60.3781 81.7709 60.4608L84.7474 60.9569C85.4088 61.0396 86.0703 60.6262 86.3183 60.0474L88.7987 54.7559C89.0468 54.1771 89.7909 53.5983 90.3696 53.433C90.9484 53.2676 91.5272 53.0196 92.1059 52.6889C92.6847 52.4408 93.2635 52.6062 93.5115 53.2676L94.7517 56.4922C94.9998 57.0709 95.5785 57.2363 95.9919 56.8229L100.126 53.1023C100.622 52.6889 100.953 51.862 100.87 51.2006L100.374 47.0666C100.291 46.4051 100.539 45.4956 100.953 44.9996C101.614 44.0901 102.193 43.1806 102.772 42.1884C103.102 41.6097 103.847 41.1963 104.508 41.1963L107.319 41.1136C107.981 41.1136 108.642 40.6175 108.89 40.0387L111.122 33.9204C111.37 33.3416 111.04 32.6802 110.461 32.4321L108.146 31.6053C107.567 31.3573 107.154 30.6958 107.236 30.1171C107.402 29.1249 107.485 28.2154 107.567 27.2232C107.567 26.5618 107.981 25.735 108.394 25.2389L112.032 21.4356C112.363 20.8568 112.611 20.03 112.445 19.3686ZM95.2478 43.1806C90.7831 47.2319 86.1529 46.4878 84.9954 41.6097C83.8379 36.6488 86.4837 29.4556 90.9484 25.4043C95.4132 21.3529 100.043 22.0971 101.201 26.9752C102.441 31.8534 99.7952 39.1292 95.2478 43.1806Z" fill="white" fill-opacity="0.8"/>
<path d="M65.559 58.2289C65.2283 58.0636 64.8149 58.1462 64.4842 58.3943L62.3345 60.0479L61.9211 61.4535C61.673 62.2803 62.0864 63.3551 62.7479 63.9339C63.1613 64.2646 63.492 64.678 63.9054 65.1741C64.4842 65.8355 65.3937 66.0009 66.0551 65.5048L71.1813 61.6188C71.5947 61.3708 71.9254 61.2881 72.2561 61.4535L65.559 58.2289ZM58.6965 78.3203C57.6217 74.0209 54.7279 72.0366 51.1726 72.6153C51.5033 73.2768 51.834 74.1036 52.0821 75.0957C53.7357 81.8755 50.0151 91.8799 43.814 97.4195C41.499 99.4865 39.2666 100.644 37.1996 100.892C39.68 105.357 45.0542 105.439 50.4285 100.644C56.6295 95.1044 60.2675 85.1001 58.6965 78.3203ZM56.8776 49.0514C56.7122 48.9687 56.5468 48.9687 56.3815 48.886L52.3301 48.2246C51.5033 48.0592 50.5112 48.638 50.0978 49.4648L46.7905 56.906C46.6252 57.2367 46.3771 57.5675 46.0464 57.8982C45.881 58.0636 45.633 58.2289 45.4676 58.3943L46.8732 62.2803C47.2039 63.1071 48.0307 63.4378 48.8575 63.0244C49.6844 62.611 50.5112 62.2803 51.2553 62.0322C51.7514 61.8669 52.2475 61.5361 52.6609 61.2054C52.9916 60.8747 53.3223 60.544 53.4877 60.2132L56.7949 52.772C57.1256 51.9452 58.1178 51.4491 59.0273 51.5318L63.0786 52.1932C63.244 52.1932 63.4093 52.2759 63.492 52.2759L56.8776 49.0514ZM50.1804 119.578C50.0151 119.412 49.8497 119.247 49.767 118.999L48.1134 114.617C47.7827 113.79 46.9559 113.46 46.1291 113.873C45.3023 114.286 44.4755 114.617 43.7314 114.865C43.4833 114.948 43.2353 115.113 42.9872 115.278L43.2353 115.857C43.4006 116.188 43.566 116.436 43.814 116.519L50.1804 119.578ZM38.0264 53.9295C37.861 53.8468 37.6957 53.8468 37.613 53.8468C37.365 53.8468 37.1169 53.9295 36.8689 54.1776L31.1639 59.3038C31.0812 59.3864 30.9986 59.4691 30.9159 59.5518C30.9159 59.6345 30.8332 59.7172 30.8332 59.7172C30.6678 59.9652 30.5025 60.3786 30.3371 60.7093C30.3371 60.792 30.2544 60.8747 30.2544 60.9574C30.1718 61.2881 30.0891 61.6188 30.1717 61.9495L30.9159 67.6545C30.9986 68.564 30.6678 69.8042 30.1717 70.4656C29.2623 71.7058 28.4355 73.0287 27.6087 74.3516C27.3606 74.765 26.8645 75.1784 26.3684 75.4265C26.2031 75.5091 26.0377 75.5918 25.8724 75.5918C25.7897 75.5918 25.707 75.6745 25.6243 75.6745C25.5416 75.6745 25.3763 75.7572 25.2936 75.7572L21.4076 75.8399H21.3249C21.2423 75.8399 21.0769 75.8399 20.9942 75.9225C20.9115 75.9225 20.8289 76.0052 20.7462 76.0052C20.6635 76.0052 20.5808 76.0879 20.4154 76.1706C20.2501 76.2533 20.002 76.4186 19.9194 76.584C19.6713 76.832 19.506 77.0801 19.3406 77.4108L16.2814 85.8442C16.0334 86.5883 16.3641 87.4151 17.0255 87.7459L21.4903 89.9782C21.6557 90.309 21.7383 90.7224 21.6557 91.0531C21.4076 92.376 21.3249 93.6989 21.2423 95.0217C21.2423 95.9312 20.7462 97.0888 20.0847 97.7502L20.002 97.8329L15.0412 103.042C14.9585 103.124 14.8759 103.207 14.7932 103.372C14.7932 103.372 14.7932 103.372 14.7932 103.455C14.7105 103.538 14.6278 103.703 14.6278 103.786C14.2971 104.365 14.2144 105.191 14.3798 105.77L15.7853 111.558C15.868 111.889 16.0334 112.137 16.2814 112.302L22.8132 115.527C22.5651 115.361 22.3998 115.113 22.3171 114.782L20.9115 108.995C20.8289 108.664 20.8289 108.251 20.9115 107.837C20.9942 107.258 21.2423 106.68 21.6557 106.266L26.6165 101.057L26.6992 100.975C27.2779 100.313 27.774 99.0731 27.8567 98.2463C27.9394 96.9234 28.0221 95.6005 28.2701 94.2776C28.4355 93.4508 27.8567 92.4587 27.0299 92.2106L23.8054 91.0531C22.9785 90.7224 22.5651 89.8956 22.8959 89.0688L25.955 80.6353C26.0377 80.3046 26.2858 80.0566 26.5338 79.8085C26.9472 79.3951 27.526 79.1471 28.1047 79.1471L31.9907 79.0644C32.3214 79.0644 32.7348 78.9817 33.0656 78.7337C33.5617 78.4856 34.0577 78.0722 34.3058 77.6588C35.1326 76.3359 35.9594 75.0131 36.8689 73.7729C37.365 73.1114 37.6957 71.7885 37.613 70.9617L36.8689 65.2568C36.8689 64.926 36.8689 64.5953 36.9516 64.2646C37.1169 63.6031 37.4476 63.0244 37.861 62.611L43.566 57.4848C43.9794 57.1541 44.3928 57.0714 44.7235 57.2367L38.0264 53.9295ZM33.0656 115.361C33.3136 114.534 32.9002 113.46 32.2388 112.881C31.8254 112.55 31.4946 112.137 31.0812 111.641C30.5025 110.979 29.593 110.814 28.9315 111.31L26.0377 113.542L24.2188 119.661C24.0534 120.322 24.3014 120.983 24.8802 121.231L31.4946 124.456C30.9159 124.125 30.6678 123.547 30.8332 122.885L33.0656 115.361Z" fill="#69D8AA"/>
<path opacity="0.7" d="M65.559 58.2289C65.2283 58.0636 64.8149 58.1462 64.4842 58.3943L62.3345 60.0479L61.9211 61.4535C61.673 62.2803 62.0864 63.3551 62.7479 63.9339C63.1613 64.2646 63.492 64.678 63.9054 65.1741C64.4842 65.8355 65.3937 66.0009 66.0551 65.5048L71.1813 61.6188C71.5947 61.3708 71.9254 61.2881 72.2561 61.4535L65.559 58.2289ZM58.6965 78.3203C57.6217 74.0209 54.7279 72.0366 51.1726 72.6153C51.5033 73.2768 51.834 74.1036 52.0821 75.0957C53.7357 81.8755 50.0151 91.8799 43.814 97.4195C41.499 99.4865 39.2666 100.644 37.1996 100.892C39.68 105.357 45.0542 105.439 50.4285 100.644C56.6295 95.1044 60.2675 85.1001 58.6965 78.3203ZM56.8776 49.0514C56.7122 48.9687 56.5468 48.9687 56.3815 48.886L52.3301 48.2246C51.5033 48.0592 50.5112 48.638 50.0978 49.4648L46.7905 56.906C46.6252 57.2367 46.3771 57.5675 46.0464 57.8982C45.881 58.0636 45.633 58.2289 45.4676 58.3943L46.8732 62.2803C47.2039 63.1071 48.0307 63.4378 48.8575 63.0244C49.6844 62.611 50.5112 62.2803 51.2553 62.0322C51.7514 61.8669 52.2475 61.5361 52.6609 61.2054C52.9916 60.8747 53.3223 60.544 53.4877 60.2132L56.7949 52.772C57.1256 51.9452 58.1178 51.4491 59.0273 51.5318L63.0786 52.1932C63.244 52.1932 63.4093 52.2759 63.492 52.2759L56.8776 49.0514ZM50.1804 119.578C50.0151 119.412 49.8497 119.247 49.767 118.999L48.1134 114.617C47.7827 113.79 46.9559 113.46 46.1291 113.873C45.3023 114.286 44.4755 114.617 43.7314 114.865C43.4833 114.948 43.2353 115.113 42.9872 115.278L43.2353 115.857C43.4006 116.188 43.566 116.436 43.814 116.519L50.1804 119.578ZM38.0264 53.9295C37.861 53.8468 37.6957 53.8468 37.613 53.8468C37.365 53.8468 37.1169 53.9295 36.8689 54.1776L31.1639 59.3038C31.0812 59.3864 30.9986 59.4691 30.9159 59.5518C30.9159 59.6345 30.8332 59.7172 30.8332 59.7172C30.6678 59.9652 30.5025 60.3786 30.3371 60.7093C30.3371 60.792 30.2544 60.8747 30.2544 60.9574C30.1718 61.2881 30.0891 61.6188 30.1717 61.9495L30.9159 67.6545C30.9986 68.564 30.6678 69.8042 30.1717 70.4656C29.2623 71.7058 28.4355 73.0287 27.6087 74.3516C27.3606 74.765 26.8645 75.1784 26.3684 75.4265C26.2031 75.5091 26.0377 75.5918 25.8724 75.5918C25.7897 75.5918 25.707 75.6745 25.6243 75.6745C25.5416 75.6745 25.3763 75.7572 25.2936 75.7572L21.4076 75.8399H21.3249C21.2423 75.8399 21.0769 75.8399 20.9942 75.9225C20.9115 75.9225 20.8289 76.0052 20.7462 76.0052C20.6635 76.0052 20.5808 76.0879 20.4154 76.1706C20.2501 76.2533 20.002 76.4186 19.9194 76.584C19.6713 76.832 19.506 77.0801 19.3406 77.4108L16.2814 85.8442C16.0334 86.5883 16.3641 87.4151 17.0255 87.7459L21.4903 89.9782C21.6557 90.309 21.7383 90.7224 21.6557 91.0531C21.4076 92.376 21.3249 93.6989 21.2423 95.0217C21.2423 95.9312 20.7462 97.0888 20.0847 97.7502L20.002 97.8329L15.0412 103.042C14.9585 103.124 14.8759 103.207 14.7932 103.372C14.7932 103.372 14.7932 103.372 14.7932 103.455C14.7105 103.538 14.6278 103.703 14.6278 103.786C14.2971 104.365 14.2144 105.191 14.3798 105.77L15.7853 111.558C15.868 111.889 16.0334 112.137 16.2814 112.302L22.8132 115.527C22.5651 115.361 22.3998 115.113 22.3171 114.782L20.9115 108.995C20.8289 108.664 20.8289 108.251 20.9115 107.837C20.9942 107.258 21.2423 106.68 21.6557 106.266L26.6165 101.057L26.6992 100.975C27.2779 100.313 27.774 99.0731 27.8567 98.2463C27.9394 96.9234 28.0221 95.6005 28.2701 94.2776C28.4355 93.4508 27.8567 92.4587 27.0299 92.2106L23.8054 91.0531C22.9785 90.7224 22.5651 89.8956 22.8959 89.0688L25.955 80.6353C26.0377 80.3046 26.2858 80.0566 26.5338 79.8085C26.9472 79.3951 27.526 79.1471 28.1047 79.1471L31.9907 79.0644C32.3214 79.0644 32.7348 78.9817 33.0656 78.7337C33.5617 78.4856 34.0577 78.0722 34.3058 77.6588C35.1326 76.3359 35.9594 75.0131 36.8689 73.7729C37.365 73.1114 37.6957 71.7885 37.613 70.9617L36.8689 65.2568C36.8689 64.926 36.8689 64.5953 36.9516 64.2646C37.1169 63.6031 37.4476 63.0244 37.861 62.611L43.566 57.4848C43.9794 57.1541 44.3928 57.0714 44.7235 57.2367L38.0264 53.9295ZM33.0656 115.361C33.3136 114.534 32.9002 113.46 32.2388 112.881C31.8254 112.55 31.4946 112.137 31.0812 111.641C30.5025 110.979 29.593 110.814 28.9315 111.31L26.0377 113.542L24.2188 119.661C24.0534 120.322 24.3014 120.983 24.8802 121.231L31.4946 124.456C30.9159 124.125 30.6678 123.547 30.8332 122.885L33.0656 115.361Z" fill="white" fill-opacity="0.8"/>
<path opacity="0.05" d="M65.559 58.2289C65.2283 58.0636 64.8149 58.1462 64.4842 58.3943L62.3345 60.0479L61.9211 61.4535C61.673 62.2803 62.0864 63.3551 62.7479 63.9339C63.1613 64.2646 63.492 64.678 63.9054 65.1741C64.4842 65.8355 65.3937 66.0009 66.0551 65.5048L71.1813 61.6188C71.5947 61.3708 71.9254 61.2881 72.2561 61.4535L65.559 58.2289ZM58.6965 78.3203C57.6217 74.0209 54.7279 72.0366 51.1726 72.6153C51.5033 73.2768 51.834 74.1036 52.0821 75.0957C53.7357 81.8755 50.0151 91.8799 43.814 97.4195C41.499 99.4865 39.2666 100.644 37.1996 100.892C39.68 105.357 45.0542 105.439 50.4285 100.644C56.6295 95.1044 60.2675 85.1001 58.6965 78.3203ZM56.8776 49.0514C56.7122 48.9687 56.5468 48.9687 56.3815 48.886L52.3301 48.2246C51.5033 48.0592 50.5112 48.638 50.0978 49.4648L46.7905 56.906C46.6252 57.2367 46.3771 57.5675 46.0464 57.8982C45.881 58.0636 45.633 58.2289 45.4676 58.3943L46.8732 62.2803C47.2039 63.1071 48.0307 63.4378 48.8575 63.0244C49.6844 62.611 50.5112 62.2803 51.2553 62.0322C51.7514 61.8669 52.2475 61.5361 52.6609 61.2054C52.9916 60.8747 53.3223 60.544 53.4877 60.2132L56.7949 52.772C57.1256 51.9452 58.1178 51.4491 59.0273 51.5318L63.0786 52.1932C63.244 52.1932 63.4093 52.2759 63.492 52.2759L56.8776 49.0514ZM50.1804 119.578C50.0151 119.412 49.8497 119.247 49.767 118.999L48.1134 114.617C47.7827 113.79 46.9559 113.46 46.1291 113.873C45.3023 114.286 44.4755 114.617 43.7314 114.865C43.4833 114.948 43.2353 115.113 42.9872 115.278L43.2353 115.857C43.4006 116.188 43.566 116.436 43.814 116.519L50.1804 119.578ZM38.0264 53.9295C37.861 53.8468 37.6957 53.8468 37.613 53.8468C37.365 53.8468 37.1169 53.9295 36.8689 54.1776L31.1639 59.3038C31.0812 59.3864 30.9986 59.4691 30.9159 59.5518C30.9159 59.6345 30.8332 59.7172 30.8332 59.7172C30.6678 59.9652 30.5025 60.3786 30.3371 60.7093C30.3371 60.792 30.2544 60.8747 30.2544 60.9574C30.1718 61.2881 30.0891 61.6188 30.1717 61.9495L30.9159 67.6545C30.9986 68.564 30.6678 69.8042 30.1717 70.4656C29.2623 71.7058 28.4355 73.0287 27.6087 74.3516C27.3606 74.765 26.8645 75.1784 26.3684 75.4265C26.2031 75.5091 26.0377 75.5918 25.8724 75.5918C25.7897 75.5918 25.707 75.6745 25.6243 75.6745C25.5416 75.6745 25.3763 75.7572 25.2936 75.7572L21.4076 75.8399H21.3249C21.2423 75.8399 21.0769 75.8399 20.9942 75.9225C20.9115 75.9225 20.8289 76.0052 20.7462 76.0052C20.6635 76.0052 20.5808 76.0879 20.4154 76.1706C20.2501 76.2533 20.002 76.4186 19.9194 76.584C19.6713 76.832 19.506 77.0801 19.3406 77.4108L16.2814 85.8442C16.0334 86.5883 16.3641 87.4151 17.0255 87.7459L21.4903 89.9782C21.6557 90.309 21.7383 90.7224 21.6557 91.0531C21.4076 92.376 21.3249 93.6989 21.2423 95.0217C21.2423 95.9312 20.7462 97.0888 20.0847 97.7502L20.002 97.8329L15.0412 103.042C14.9585 103.124 14.8759 103.207 14.7932 103.372C14.7932 103.372 14.7932 103.372 14.7932 103.455C14.7105 103.538 14.6278 103.703 14.6278 103.786C14.2971 104.365 14.2144 105.191 14.3798 105.77L15.7853 111.558C15.868 111.889 16.0334 112.137 16.2814 112.302L22.8132 115.527C22.5651 115.361 22.3998 115.113 22.3171 114.782L20.9115 108.995C20.8289 108.664 20.8289 108.251 20.9115 107.837C20.9942 107.258 21.2423 106.68 21.6557 106.266L26.6165 101.057L26.6992 100.975C27.2779 100.313 27.774 99.0731 27.8567 98.2463C27.9394 96.9234 28.0221 95.6005 28.2701 94.2776C28.4355 93.4508 27.8567 92.4587 27.0299 92.2106L23.8054 91.0531C22.9785 90.7224 22.5651 89.8956 22.8959 89.0688L25.955 80.6353C26.0377 80.3046 26.2858 80.0566 26.5338 79.8085C26.9472 79.3951 27.526 79.1471 28.1047 79.1471L31.9907 79.0644C32.3214 79.0644 32.7348 78.9817 33.0656 78.7337C33.5617 78.4856 34.0577 78.0722 34.3058 77.6588C35.1326 76.3359 35.9594 75.0131 36.8689 73.7729C37.365 73.1114 37.6957 71.7885 37.613 70.9617L36.8689 65.2568C36.8689 64.926 36.8689 64.5953 36.9516 64.2646C37.1169 63.6031 37.4476 63.0244 37.861 62.611L43.566 57.4848C43.9794 57.1541 44.3928 57.0714 44.7235 57.2367L38.0264 53.9295ZM33.0656 115.361C33.3136 114.534 32.9002 113.46 32.2388 112.881C31.8254 112.55 31.4946 112.137 31.0812 111.641C30.5025 110.979 29.593 110.814 28.9315 111.31L26.0377 113.542L24.2188 119.661C24.0534 120.322 24.3014 120.983 24.8802 121.231L31.4946 124.456C30.9159 124.125 30.6678 123.547 30.8332 122.885L33.0656 115.361Z" fill="black"/>
<path d="M26.5338 100.974L21.573 106.183C21.2423 106.596 20.9115 107.175 20.8288 107.754L14.2971 104.529C14.3798 104.198 14.4625 103.95 14.5451 103.702C14.6278 103.537 14.6278 103.454 14.7105 103.372C14.7105 103.372 14.7105 103.372 14.7105 103.289C14.7932 103.206 14.8759 103.041 14.9585 102.958L19.9194 97.7493L26.5338 100.974Z" fill="#69D8AA"/>
<path d="M32.9831 78.7324C32.6524 78.8978 32.239 79.0631 31.9082 79.0631L28.0223 79.1458C27.4435 79.1458 26.8647 79.3938 26.4513 79.8072L19.8369 76.5827C20.0022 76.4173 20.1676 76.3347 20.333 76.1693C20.4156 76.0866 20.4983 76.0866 20.6637 76.0039C20.7464 76.0039 20.8291 75.9213 20.9117 75.9213C20.9944 75.9213 21.1598 75.8386 21.2425 75.8386H21.3251L25.2111 75.7559C25.2938 75.7559 25.4592 75.7559 25.5418 75.6732C25.6245 75.6732 25.7072 75.6732 25.7899 75.5905C25.9552 75.5078 26.1206 75.4252 26.286 75.4252L32.9831 78.7324Z" fill="#69D8AA"/>
<path d="M72.1719 61.4519C71.8411 61.2866 71.5104 61.3693 71.097 61.6173L65.9708 65.5033C65.3094 65.9994 64.3172 65.834 63.8211 65.1726C63.4904 64.7592 63.077 64.3458 62.6636 63.9323C62.0022 63.3536 61.5888 62.2787 61.8368 61.4519L62.2502 60.0464L64.3999 58.3928C64.8133 58.062 65.2267 58.062 65.4747 58.2274L72.1719 61.4519Z" fill="#69D8AA"/>
<path d="M63.4102 52.2736C63.3275 52.191 63.1621 52.191 62.9968 52.191L58.9454 51.5295C58.1186 51.3642 57.1264 51.9429 56.713 52.7697L53.4058 60.211C53.2405 60.5417 52.9924 60.9551 52.579 61.2031L45.9646 57.9786C46.2953 57.6479 46.626 57.3171 46.7087 56.9864L50.0159 49.5452C50.3466 48.7184 51.3388 48.2223 52.2483 48.305L56.2996 48.9664C56.465 48.9664 56.6304 49.0491 56.713 49.1318L63.4102 52.2736Z" fill="#69D8AA"/>
<path d="M44.6407 57.1523C44.31 56.987 43.8139 57.0696 43.4832 57.4004L37.7783 62.5265C37.3649 62.94 37.0341 63.5187 36.8688 64.1802L30.2543 60.9556C30.2543 60.8729 30.337 60.7903 30.337 60.7076C30.4197 60.3769 30.5851 60.0461 30.8331 59.7154C30.9158 59.6327 30.9158 59.5501 30.9985 59.5501C31.0811 59.4674 31.1638 59.3847 31.2465 59.302L36.9515 54.1758C37.1995 53.9278 37.4475 53.8451 37.6956 53.8451C37.8609 53.8451 38.0263 53.8451 38.109 53.9278L44.6407 57.1523Z" fill="#69D8AA"/>
<path opacity="0.9" d="M26.5338 100.974L21.573 106.183C21.2423 106.596 20.9115 107.175 20.8288 107.754L14.2971 104.529C14.3798 104.198 14.4625 103.95 14.5451 103.702C14.6278 103.537 14.6278 103.454 14.7105 103.372C14.7105 103.372 14.7105 103.372 14.7105 103.289C14.7932 103.206 14.8759 103.041 14.9585 102.958L19.9194 97.7493L26.5338 100.974Z" fill="white" fill-opacity="0.8"/>
<path opacity="0.9" d="M32.9831 78.7324C32.6524 78.8978 32.239 79.0631 31.9082 79.0631L28.0223 79.1458C27.4435 79.1458 26.8647 79.3938 26.4513 79.8072L19.8369 76.5827C20.0022 76.4173 20.1676 76.3347 20.333 76.1693C20.4156 76.0866 20.4983 76.0866 20.6637 76.0039C20.7464 76.0039 20.8291 75.9213 20.9117 75.9213C20.9944 75.9213 21.1598 75.8386 21.2425 75.8386H21.3251L25.2111 75.7559C25.2938 75.7559 25.4592 75.7559 25.5418 75.6732C25.6245 75.6732 25.7072 75.6732 25.7899 75.5905C25.9552 75.5078 26.1206 75.4252 26.286 75.4252L32.9831 78.7324Z" fill="white" fill-opacity="0.8"/>
<path opacity="0.9" d="M72.1719 61.4519C71.8411 61.2866 71.5104 61.3693 71.097 61.6173L65.9708 65.5033C65.3094 65.9994 64.3172 65.834 63.8211 65.1726C63.4904 64.7592 63.077 64.3458 62.6636 63.9323C62.0022 63.3536 61.5888 62.2787 61.8368 61.4519L62.2502 60.0464L64.3999 58.3928C64.8133 58.062 65.2267 58.062 65.4747 58.2274L72.1719 61.4519Z" fill="white" fill-opacity="0.8"/>
<path opacity="0.9" d="M63.4102 52.2736C63.3275 52.191 63.1621 52.191 62.9968 52.191L58.9454 51.5295C58.1186 51.3642 57.1264 51.9429 56.713 52.7697L53.4058 60.211C53.2405 60.5417 52.9924 60.9551 52.579 61.2031L45.9646 57.9786C46.2953 57.6479 46.626 57.3171 46.7087 56.9864L50.0159 49.5452C50.3466 48.7184 51.3388 48.2223 52.2483 48.305L56.2996 48.9664C56.465 48.9664 56.6304 49.0491 56.713 49.1318L63.4102 52.2736Z" fill="white" fill-opacity="0.8"/>
<path opacity="0.9" d="M44.6407 57.1523C44.31 56.987 43.8139 57.0696 43.4832 57.4004L37.7783 62.5265C37.3649 62.94 37.0341 63.5187 36.8688 64.1802L30.2543 60.9556C30.2543 60.8729 30.337 60.7903 30.337 60.7076C30.4197 60.3769 30.5851 60.0461 30.8331 59.7154C30.9158 59.6327 30.9158 59.5501 30.9985 59.5501C31.0811 59.4674 31.1638 59.3847 31.2465 59.302L36.9515 54.1758C37.1995 53.9278 37.4475 53.8451 37.6956 53.8451C37.8609 53.8451 38.0263 53.8451 38.109 53.9278L44.6407 57.1523Z" fill="white" fill-opacity="0.8"/>
<path d="M74.0756 67.9834L72.6701 62.1958C72.5047 61.369 71.7606 61.1209 71.0165 61.617L65.973 65.503C65.3115 65.9991 64.3193 65.8337 63.8233 65.1723C63.4925 64.7589 63.0791 64.3455 62.6657 63.9321C62.0043 63.3533 61.5909 62.2785 61.8389 61.4517L64.0713 53.9277C64.3193 53.1009 63.8233 52.2741 62.9965 52.1914L58.9451 51.53C58.1183 51.3646 57.1261 51.9434 56.7127 52.7702L53.4055 60.2114C53.0748 61.0382 52.0826 61.7824 51.2558 62.1131C50.429 62.3611 49.6849 62.6919 48.8581 63.1053C48.0313 63.5187 47.2045 63.1879 46.8738 62.3611L45.2201 57.9791C44.8894 57.1523 44.1453 56.9869 43.4839 57.5657L37.7789 62.6919C37.1175 63.2706 36.704 64.4282 36.7867 65.3376L37.5309 71.0426C37.6135 71.8694 37.2828 73.1923 36.7867 73.8537C35.8772 75.0939 35.0504 76.4168 34.2236 77.7397C33.8102 78.4838 32.7354 79.1453 31.8259 79.1453L27.9399 79.228C27.0304 79.228 26.1209 79.8894 25.7902 80.7162L22.6484 89.1496C22.3176 89.9764 22.731 90.8859 23.5578 91.134L26.7824 92.2915C27.6092 92.6222 28.1053 93.5317 28.0226 94.3585C27.7746 95.6814 27.6919 97.0043 27.6092 98.3272C27.5265 99.2367 27.1131 100.394 26.4517 101.056L21.4082 106.347C20.8294 107.009 20.4987 108.166 20.664 109.076L22.0696 114.863C22.235 115.69 22.9791 115.938 23.7232 115.442L28.8494 111.556C29.5108 111.06 30.503 111.225 30.9991 111.887C31.3298 112.3 31.7432 112.714 32.1566 113.127C32.8181 113.706 33.2315 114.781 32.9834 115.607L30.7511 123.131C30.503 123.958 30.9991 124.785 31.8259 124.868L35.8772 125.529C36.7041 125.694 37.6962 125.116 38.1096 124.289L41.4168 116.848C41.7476 116.021 42.7397 115.277 43.5665 114.946C44.3933 114.698 45.1375 114.367 45.9643 113.954C46.7911 113.54 47.6179 113.871 47.9486 114.698L49.6022 119.08C49.9329 119.907 50.6771 120.072 51.3385 119.493L57.0435 114.367C57.7049 113.788 58.1183 112.631 58.0356 111.721L57.2915 106.016C57.2088 105.19 57.5395 103.867 58.0356 103.205C58.9451 101.965 59.7719 100.642 60.5987 99.3193C61.0121 98.5752 62.087 97.9138 62.9965 97.9138L66.8824 97.8311C67.7919 97.8311 68.7014 97.1696 69.0321 96.3428L72.174 87.9094C72.5047 87.0826 72.0913 86.1731 71.2645 85.9251L68.04 84.7676C67.2132 84.4368 66.7171 83.5274 66.7998 82.7006C67.0478 81.3777 67.1305 80.0548 67.2132 78.7319C67.2958 77.8224 67.7092 76.6649 68.3707 76.0034L73.4142 70.7119C73.993 70.0504 74.3237 68.8102 74.0756 67.9834ZM50.429 100.642C44.228 106.182 37.8616 105.19 36.2906 98.4099C34.637 91.6301 38.3577 81.6257 44.5587 76.0861C50.7597 70.5465 57.1261 71.5387 58.6971 78.3185C60.268 85.0983 56.6301 95.1026 50.429 100.642Z" fill="#69D8AA"/>
<path opacity="0.75" d="M74.0756 67.9834L72.6701 62.1958C72.5047 61.369 71.7606 61.1209 71.0165 61.617L65.973 65.503C65.3115 65.9991 64.3193 65.8337 63.8233 65.1723C63.4925 64.7589 63.0791 64.3455 62.6657 63.9321C62.0043 63.3533 61.5909 62.2785 61.8389 61.4517L64.0713 53.9277C64.3193 53.1009 63.8233 52.2741 62.9965 52.1914L58.9451 51.53C58.1183 51.3646 57.1261 51.9434 56.7127 52.7702L53.4055 60.2114C53.0748 61.0382 52.0826 61.7824 51.2558 62.1131C50.429 62.3611 49.6849 62.6919 48.8581 63.1053C48.0313 63.5187 47.2045 63.1879 46.8738 62.3611L45.2201 57.9791C44.8894 57.1523 44.1453 56.9869 43.4839 57.5657L37.7789 62.6919C37.1175 63.2706 36.704 64.4282 36.7867 65.3376L37.5309 71.0426C37.6135 71.8694 37.2828 73.1923 36.7867 73.8537C35.8772 75.0939 35.0504 76.4168 34.2236 77.7397C33.8102 78.4838 32.7354 79.1453 31.8259 79.1453L27.9399 79.228C27.0304 79.228 26.1209 79.8894 25.7902 80.7162L22.6484 89.1496C22.3176 89.9764 22.731 90.8859 23.5578 91.134L26.7824 92.2915C27.6092 92.6222 28.1053 93.5317 28.0226 94.3585C27.7746 95.6814 27.6919 97.0043 27.6092 98.3272C27.5265 99.2367 27.1131 100.394 26.4517 101.056L21.4082 106.347C20.8294 107.009 20.4987 108.166 20.664 109.076L22.0696 114.863C22.235 115.69 22.9791 115.938 23.7232 115.442L28.8494 111.556C29.5108 111.06 30.503 111.225 30.9991 111.887C31.3298 112.3 31.7432 112.714 32.1566 113.127C32.8181 113.706 33.2315 114.781 32.9834 115.607L30.7511 123.131C30.503 123.958 30.9991 124.785 31.8259 124.868L35.8772 125.529C36.7041 125.694 37.6962 125.116 38.1096 124.289L41.4168 116.848C41.7476 116.021 42.7397 115.277 43.5665 114.946C44.3933 114.698 45.1375 114.367 45.9643 113.954C46.7911 113.54 47.6179 113.871 47.9486 114.698L49.6022 119.08C49.9329 119.907 50.6771 120.072 51.3385 119.493L57.0435 114.367C57.7049 113.788 58.1183 112.631 58.0356 111.721L57.2915 106.016C57.2088 105.19 57.5395 103.867 58.0356 103.205C58.9451 101.965 59.7719 100.642 60.5987 99.3193C61.0121 98.5752 62.087 97.9138 62.9965 97.9138L66.8824 97.8311C67.7919 97.8311 68.7014 97.1696 69.0321 96.3428L72.174 87.9094C72.5047 87.0826 72.0913 86.1731 71.2645 85.9251L68.04 84.7676C67.2132 84.4368 66.7171 83.5274 66.7998 82.7006C67.0478 81.3777 67.1305 80.0548 67.2132 78.7319C67.2958 77.8224 67.7092 76.6649 68.3707 76.0034L73.4142 70.7119C73.993 70.0504 74.3237 68.8102 74.0756 67.9834ZM50.429 100.642C44.228 106.182 37.8616 105.19 36.2906 98.4099C34.637 91.6301 38.3577 81.6257 44.5587 76.0861C50.7597 70.5465 57.1261 71.5387 58.6971 78.3185C60.268 85.0983 56.6301 95.1026 50.429 100.642Z" fill="white" fill-opacity="0.8"/>
<path d="M64.2385 260.547C63.4117 248.227 62.0888 244.01 54.3995 234.668C49.9348 229.211 43.6511 225.49 38.5249 223.836C33.3987 222.183 28.9339 222.431 25.7094 224.911C23.5597 226.565 22.6502 229.955 24.0558 233.014C25.3787 235.742 31.9104 239.711 37.6981 242.77C46.5449 247.483 58.2028 254.015 63.1637 269.559L64.2385 277.827V260.547Z" fill="#69A495"/>
<path opacity="0.2" d="M64.2385 260.547C63.4117 248.227 62.0888 244.01 54.3995 234.668C49.9348 229.211 43.6511 225.49 38.5249 223.836C33.3987 222.183 28.9339 222.431 25.7094 224.911C23.5597 226.565 22.6502 229.955 24.0558 233.014C25.3787 235.742 31.9104 239.711 37.6981 242.77C46.5449 247.483 58.2028 254.015 63.1637 269.559L64.2385 277.827V260.547Z" fill="black"/>
<path d="M63.744 267.326C63.496 267.326 63.3306 267.161 63.3306 266.913C61.429 245.003 43.1566 231.195 30.6718 229.624C30.4238 229.624 30.2584 229.376 30.3411 229.128C30.3411 228.88 30.5891 228.714 30.8372 228.797C43.57 230.368 62.2558 244.506 64.2401 266.83C64.1574 267.161 63.9921 267.326 63.744 267.326C63.8267 267.326 63.744 267.326 63.744 267.326Z" fill="white"/>
<path d="M63.4982 291.056C63.2501 291.221 63.0021 291.469 62.8367 291.635C59.6122 294.198 54.8167 294.942 50.8481 295.025C48.2023 295.107 44.647 295.107 42.4146 293.536C41.3398 292.709 40.513 291.304 40.8437 290.064C41.2571 288.658 42.828 287.583 42.6627 286.178C39.6862 285.682 36.4616 287.005 33.7332 285.847C31.6662 285.02 30.3433 282.953 29.1031 281.052C28.359 279.894 27.6975 278.571 28.0282 277.331C28.4416 275.843 30.2606 275.181 31.7489 274.685C32.1623 274.52 32.5757 274.437 32.8237 274.106C33.1544 273.858 33.3198 273.362 33.1544 272.949C32.9891 272.453 32.4103 272.287 31.9142 272.205C30.8394 272.039 29.6818 272.039 28.607 271.791C27.5322 271.543 26.4573 271.13 25.7132 270.303C24.8864 269.311 24.721 267.905 24.6383 266.582C24.473 264.35 24.3076 262.118 24.473 259.968C24.473 259.472 24.2249 254.18 24.0596 254.263C29.1858 252.196 35.0561 251.617 40.513 251.865C43.5722 251.948 48.1196 252.609 49.9386 255.503C50.4347 256.33 50.6827 257.24 50.7654 258.232C50.7654 258.562 50.5173 260.381 50.7654 260.464C50.9307 260.547 51.1788 260.464 51.2615 260.381C51.4268 260.216 51.4268 260.051 51.5095 259.885C51.7575 258.976 52.2536 258.149 52.5017 257.24C52.7497 256.413 52.7497 255.421 53.3285 254.676C53.9072 254.015 54.8167 253.767 55.7262 253.85C58.9508 253.932 61.6792 256.578 62.9194 259.555C64.1596 262.531 64.1596 265.921 64.1596 269.146C64.6557 268.071 65.2345 266.996 65.7306 266.004C67.5495 262.283 69.5339 269.146 69.8646 270.468C70.6914 273.858 70.6914 277.496 69.7819 280.803C68.7897 284.772 66.5574 288.327 63.4982 291.056Z" fill="#69A495"/>
<path d="M63.8261 291.881C63.6607 291.881 63.4954 291.716 63.4954 291.55C59.0306 277.66 37.7817 259.305 29.679 256.576C29.431 256.494 29.3483 256.246 29.431 255.998C29.5137 255.75 29.7617 255.667 30.0098 255.75C38.2778 258.561 59.8574 277.246 64.4049 291.302C64.4875 291.55 64.3222 291.798 64.1568 291.881C63.9088 291.881 63.8261 291.881 63.8261 291.881Z" fill="white"/>
<path d="M38.0303 279.149C37.8649 279.149 37.7822 279.066 37.6996 278.901C37.6169 278.736 37.6996 278.487 37.8649 278.322C37.9476 278.322 45.4715 274.271 54.9798 276.834C54.0703 269.889 55.5585 264.432 56.468 261.042V260.959C56.5507 260.711 56.7987 260.629 56.9641 260.711C57.2122 260.794 57.2948 260.959 57.2122 261.207V261.29C56.3027 264.68 54.7317 270.302 55.8066 277.33C55.8066 277.495 55.8066 277.578 55.6412 277.743C55.5585 277.826 55.3932 277.909 55.2278 277.826C45.8022 275.015 38.1956 279.066 38.113 279.066C38.1956 279.149 38.113 279.149 38.0303 279.149Z" fill="white"/>
<path d="M289.629 261.455C289.629 261.455 290.125 251.864 294.342 244.174C298.558 236.485 304.759 231.442 310.795 230.615C316.831 229.705 322.122 234.997 315.839 239.214C309.637 243.43 298.31 248.143 294.011 262.778L289.629 261.455Z" fill="#69A495"/>
<g opacity="0.1">
<path opacity="0.1" d="M289.629 261.455C289.629 261.455 290.125 251.864 294.342 244.174C298.558 236.485 304.759 231.442 310.795 230.615C316.831 229.705 322.122 234.997 315.839 239.214C309.637 243.43 298.31 248.143 294.011 262.778L289.629 261.455Z" fill="black"/>
</g>
<path d="M291.283 258.891C291.283 258.891 291.2 258.891 291.283 258.891C291.035 258.808 290.952 258.642 291.035 258.477C296.409 242.272 308.149 234.913 313.606 233.26C313.772 233.177 313.937 233.342 314.02 233.508C314.102 233.673 313.937 233.838 313.772 233.921C308.397 235.492 296.905 242.768 291.613 258.725C291.531 258.808 291.448 258.891 291.283 258.891Z" fill="white"/>
<path d="M323.857 257.569C323.361 258.892 321.956 259.719 320.633 260.298C319.31 260.959 317.904 261.62 317.243 262.861C315.92 265.506 318.566 268.814 317.16 271.377C316.581 272.452 315.424 273.03 314.184 273.361C313.191 273.609 312.199 273.692 311.207 273.857C310.711 273.857 310.215 273.857 309.802 273.857C308.396 273.774 306.908 273.774 305.668 274.601C303.766 275.841 303.27 278.405 302.195 280.472C300.872 282.869 298.392 284.606 295.746 285.102C294.836 285.267 293.183 285.515 292.273 285.102C292.191 285.102 292.108 285.019 292.108 285.019C291.943 284.854 291.777 284.688 291.695 284.606C291.695 284.606 291.695 284.606 291.695 284.523C291.281 283.283 291.777 281.877 291.695 280.472C291.695 280.389 291.695 280.306 291.695 280.224C291.529 278.653 291.364 277.082 291.281 275.593C291.033 272.7 290.785 269.889 290.62 266.995C290.537 265.093 290.124 263.109 290.868 261.29C291.612 259.305 293.762 259.14 294.506 257.156C294.754 256.412 294.919 255.585 295.167 254.758C295.994 252.443 298.144 250.707 300.624 250.376C304.427 249.962 307.983 252.774 311.786 252.278C312.778 252.112 313.688 251.781 314.68 251.533C317.739 250.789 321.294 251.368 323.196 253.848C323.94 254.923 324.353 256.329 323.857 257.569Z" fill="#69A495"/>
<path d="M291.032 278.487C290.867 278.487 290.701 278.239 290.784 278.074C294.753 258.065 315.257 253.849 320.136 253.849C320.301 253.849 320.466 254.014 320.466 254.179C320.466 254.345 320.301 254.51 320.136 254.51C315.34 254.51 295.249 258.561 291.445 278.157C291.363 278.405 291.197 278.57 291.032 278.487Z" fill="white"/>
<path d="M313.44 267.079C313.357 267.079 313.275 267.079 313.275 266.996C313.192 266.914 307.57 262.118 298.888 263.937C298.723 263.937 298.558 263.854 298.475 263.689C298.475 263.524 298.558 263.358 298.723 263.276C307.735 261.374 313.605 266.417 313.688 266.5C313.853 266.583 313.853 266.831 313.688 266.996C313.605 266.996 313.523 267.079 313.44 267.079Z" fill="white"/>
<path d="M150.392 37.5574L66.5543 85.9255C63.8258 87.4964 62.1722 90.2249 62.0069 93.4494V288.327C62.0069 291.387 63.9085 294.942 66.2236 296.347C68.5386 297.753 72.59 297.588 75.2358 296.017L158.743 247.814C161.389 246.326 163.539 242.522 163.539 239.463V45.2466C163.539 42.1875 161.637 38.6322 159.322 37.2266C157.089 35.8211 153.038 35.9864 150.392 37.5574Z" fill="#58CEA5"/>
<path opacity="0.4" d="M74.2451 296.513C71.682 297.505 68.3748 297.505 66.3905 296.265C64.0754 294.942 62.1738 291.304 62.1738 288.245V93.3667C62.1738 92.2092 62.5045 90.8863 63.414 89.2327L71.1859 93.6147C69.7804 95.4337 68.9536 97.3354 68.9536 99.237V292.131C68.7882 295.851 71.1859 297.67 74.2451 296.513Z" fill="black" fill-opacity="0.58"/>
<path d="M73.0864 91.9626C70.7713 93.2855 68.8697 96.5928 68.8697 99.3212V292.215C68.8697 296.349 71.8462 298.085 75.4014 296.018L158.909 247.815C161.555 246.327 163.704 242.524 163.704 239.465V45.2482C163.704 42.189 161.555 40.9488 158.909 42.437L73.0864 91.9626Z" fill="#58CEA5"/>
<path opacity="0.2" d="M73.0864 91.9626C70.7713 93.2855 68.8697 96.5928 68.8697 99.3212V292.215C68.8697 296.349 71.8462 298.085 75.4014 296.018L158.909 247.815C161.555 246.327 163.704 242.524 163.704 239.465V45.2482C163.704 42.189 161.555 40.9488 158.909 42.437L73.0864 91.9626Z" fill="black" fill-opacity="0.58"/>
<path opacity="0.2" d="M77.3857 103.866C74.8226 105.355 72.8382 108.91 72.8382 111.804V277.744C72.8382 280.637 74.9052 281.878 77.3857 280.389L155.932 234.998C158.413 233.51 160.48 229.954 160.48 227.06V61.1207C160.48 58.2268 158.413 56.9866 155.932 58.4749L77.3857 103.866Z" fill="black" fill-opacity="0.58"/>
<path d="M154.775 223.257V59.1365L77.3857 103.784C74.8226 105.272 72.8382 108.827 72.8382 111.721V275.842L150.227 231.195C152.708 229.706 154.775 226.151 154.775 223.257Z" fill="#58CEA5"/>
<path opacity="0.7" d="M154.775 223.257V59.1365L77.3857 103.784C74.8226 105.272 72.8382 108.827 72.8382 111.721V275.842L150.227 231.195C152.708 229.706 154.775 226.151 154.775 223.257Z" fill="white"/>
<path d="M110.127 76.8299L124.017 68.8099C124.844 68.3138 125.506 68.6445 125.506 69.554C125.506 70.4635 124.844 71.5384 124.017 72.0344L110.127 80.0545C109.3 80.5505 108.639 80.2198 108.639 79.3103C108.639 78.4835 109.3 77.326 110.127 76.8299Z" fill="#455A64"/>
<path d="M134.022 63.0217C134.766 62.6083 135.427 62.939 135.427 63.8485C135.427 64.758 134.766 65.8328 134.022 66.3289C133.278 66.7423 132.616 66.4116 132.616 65.5021C132.616 64.5926 133.278 63.5178 134.022 63.0217Z" fill="#455A64"/>
<path d="M139.728 59.7972C140.472 59.3838 141.133 59.7145 141.133 60.624C141.133 61.5335 140.472 62.6083 139.728 63.1044C138.983 63.5178 138.322 63.1871 138.322 62.2776C138.322 61.2854 138.901 60.2106 139.728 59.7972Z" fill="#455A64"/>
<path d="M94.5001 85.8419C95.2442 85.4285 95.9057 85.7592 95.9057 86.6687C95.9057 87.5782 95.2442 88.653 94.5001 89.1491C93.756 89.5625 93.0945 89.2318 93.0945 88.3223C93.0945 87.4128 93.756 86.3379 94.5001 85.8419Z" fill="#455A64"/>
<path d="M100.204 82.6164C100.948 82.203 101.609 82.5337 101.609 83.4432C101.609 84.3527 100.948 85.4275 100.204 85.9236C99.4598 86.337 98.7983 86.0063 98.7983 85.0968C98.7983 84.1046 99.3771 83.0298 100.204 82.6164Z" fill="#455A64"/>
<path opacity="0.3" d="M163.706 44.8326C163.541 42.1042 161.474 41.0293 158.911 42.4349L73.0883 91.9605C72.7576 92.1259 71.7654 92.7873 71.1039 93.6968L63.332 89.3148C63.9934 88.1572 64.9029 87.0824 66.2258 86.1729L150.477 37.5567C153.123 35.9858 157.174 35.9031 159.489 37.226C161.722 38.4662 163.541 41.8561 163.706 44.8326Z" fill="black" fill-opacity="0.58"/>
<path d="M269.699 57.3175C269.616 57.2348 269.534 57.1521 269.451 57.0694L266.474 51.9432V49.1321L275.156 45.7422V48.5533L274.081 51.6125L279.29 48.636L279.621 50.3723L276.562 60.4593C276.396 60.8727 275.983 61.0381 275.652 60.79C275.569 60.7074 270.03 57.4828 269.699 57.3175Z" fill="#58CEA5"/>
<path opacity="0.3" d="M269.699 57.3175C269.616 57.2348 269.534 57.1521 269.451 57.0694L266.474 51.9432V49.1321L275.156 45.7422V48.5533L274.081 51.6125L279.29 48.636L279.621 50.3723L276.562 60.4593C276.396 60.8727 275.983 61.0381 275.652 60.79C275.569 60.7074 270.03 57.4828 269.699 57.3175Z" fill="black" fill-opacity="0.53"/>
<path d="M279.371 48.6366L279.702 50.3729L276.643 60.4599C276.477 60.956 275.733 61.0387 275.485 60.5426L272.178 54.755L272.591 52.6053L279.371 48.6366Z" fill="#58CEA5"/>
<path opacity="0.2" d="M279.371 48.6366L279.702 50.3729L276.643 60.4599C276.477 60.956 275.733 61.0387 275.485 60.5426L272.178 54.755L272.591 52.6053L279.371 48.6366Z" fill="black" fill-opacity="0.53"/>
<path d="M291.359 5.56026C291.359 3.74129 290.119 1.5916 288.548 0.682114C286.977 -0.227371 284.497 -0.227371 282.926 0.682114L256.468 15.8127C254.897 16.7221 253.657 18.8718 253.657 20.6908V55.6647C253.657 57.4836 254.897 59.6333 256.468 60.5428C258.039 61.4523 260.519 61.4523 262.09 60.5428L288.796 45.1642C291.359 43.7587 291.359 42.2704 291.359 40.4514V5.56026Z" fill="#58CEA5"/>
<path opacity="0.2" d="M291.359 5.56026C291.359 3.74129 290.119 1.5916 288.548 0.682114C286.977 -0.227371 284.497 -0.227371 282.926 0.682114L256.468 15.8127C254.897 16.7221 253.657 18.8718 253.657 20.6908V55.6647C253.657 57.4836 254.897 59.6333 256.468 60.5428C258.039 61.4523 260.519 61.4523 262.09 60.5428L288.796 45.1642C291.359 43.7587 291.359 42.2704 291.359 40.4514V5.56026Z" fill="black" fill-opacity="0.53"/>
<path opacity="0.2" d="M253.658 55.6643C253.658 57.4832 254.898 59.6329 256.469 60.5424C257.874 61.3692 260.107 61.4519 261.595 60.7905C260.272 61.2866 259.28 60.5424 259.28 58.8888V23.915C259.28 23.0055 259.611 22.0133 260.107 21.1038L254.484 17.8793C253.988 18.7888 253.658 19.7809 253.658 20.6904V55.6643Z" fill="black" fill-opacity="0.53"/>
<path d="M291.279 4.81647C290.948 3.65894 289.873 3.24554 288.55 3.98966L262.092 19.1202C261.348 19.5336 260.604 20.3604 260.108 21.1872L254.486 17.9627C254.982 17.0532 255.726 16.3091 256.47 15.8957L282.928 0.765122C284.499 -0.144364 287.062 -0.144364 288.55 0.765122C289.873 1.42657 291.031 3.16286 291.279 4.81647Z" fill="#58CEA5"/>
<path d="M275.402 17.1353C276.394 16.5565 277.386 16.2258 278.295 16.1431C279.205 16.0604 280.032 16.2258 280.693 16.6392C281.355 17.0526 281.933 17.6314 282.264 18.4582C282.677 19.285 282.843 20.3598 282.843 21.6C282.843 22.5922 282.76 23.5844 282.512 24.4938C282.264 25.4033 282.016 26.2301 281.685 27.0569C281.355 27.8837 280.941 28.6279 280.528 29.372C280.114 30.1161 279.701 30.7776 279.37 31.5217C278.957 32.1831 278.626 32.9273 278.378 33.5887C278.047 34.2501 277.882 34.9943 277.717 35.6557C277.634 35.9864 277.551 36.3172 277.469 36.6479C277.386 36.9786 277.221 37.144 276.972 37.3093L273.583 39.2937C273.417 39.3763 273.169 39.3763 273.086 39.2937C272.921 39.1283 272.838 38.9629 272.838 38.6322C272.838 37.7227 273.004 36.8132 273.252 35.9038C273.5 34.9943 273.831 34.1675 274.161 33.3407C274.492 32.5138 274.905 31.687 275.402 30.9429C275.815 30.1988 276.228 29.4547 276.642 28.7932C276.972 28.1318 277.303 27.4703 277.551 26.8089C277.799 26.1475 277.965 25.5687 277.965 24.9899C277.965 24.1631 277.799 23.667 277.386 23.419C276.972 23.171 276.394 23.3363 275.484 23.8324C274.657 24.3285 274.079 24.8246 273.665 25.4033C273.335 25.9821 273.004 26.5609 272.838 27.1396C272.673 27.7184 272.508 28.2145 272.425 28.6279C272.342 29.0413 272.094 29.372 271.681 29.62L268.291 31.6044C268.126 31.687 267.96 31.687 267.878 31.6044C267.795 31.5217 267.712 31.2736 267.712 31.0256C267.712 30.0334 267.878 28.8759 268.291 27.553C268.622 26.2301 269.118 24.9899 269.779 23.667C270.441 22.3441 271.268 21.1866 272.177 20.0291C273.169 18.7062 274.244 17.7967 275.402 17.1353ZM277.882 44.8333C277.882 45.164 277.799 45.4947 277.634 45.7427C277.469 46.0735 277.303 46.2388 277.138 46.4042L273.665 48.3885C273.5 48.4712 273.252 48.4712 273.169 48.3885C273.004 48.2232 272.921 48.0578 272.921 47.7271V43.4277C272.921 43.097 273.004 42.7662 273.169 42.5182C273.335 42.1875 273.5 42.0221 273.665 41.8568L277.138 39.8724C277.303 39.7897 277.551 39.7897 277.634 39.8724C277.799 40.0378 277.882 40.2031 277.882 40.5339V44.8333Z" fill="#FAFAFA"/>
<path d="M284.005 115.03C291.116 113.211 295.994 116.022 298.143 123.132C300.128 129.83 304.179 146.2 305.254 150.582C305.75 152.484 290.785 169.433 291.364 169.185C291.529 169.103 286.651 160.752 286.651 160.752L293.927 149.838L289.627 137.85L284.005 115.03Z" fill="#FFA8A7"/>
<path d="M269.367 110.647L270.69 124.62L283.175 123.876L282.182 108.415L269.367 110.647Z" fill="#FFA8A7"/>
<path d="M260.105 95.4332C260.105 95.4332 257.376 99.5673 257.707 99.9807C258.038 100.394 259.857 100.89 259.857 100.89L260.105 95.4332Z" fill="#F28F8F"/>
<path d="M289.788 83.1961C289.788 82.7827 289.705 82.452 289.622 82.0386C289.374 81.2945 288.878 80.633 288.3 80.0542C287.225 78.8967 285.902 78.0699 284.414 77.4912C282.181 76.5817 279.701 76.2509 277.303 76.2509C274.988 76.3336 272.838 76.747 270.441 76.3336C268.704 76.0029 266.968 75.5068 265.149 75.5068C263.33 75.4241 261.428 75.9202 260.271 77.2431C259.361 78.2353 259.031 79.5582 258.948 80.7984C258.948 82.1213 259.361 83.3615 259.857 84.519C258.121 85.7592 257.708 88.3223 258.452 90.3066C259.444 93.0351 262.09 94.6887 264.24 96.5077C265.893 97.9132 267.547 99.4015 269.035 100.972C269.779 101.717 270.523 102.461 271.185 103.287C271.267 103.37 271.267 103.37 271.267 103.453C270.358 103.618 269.531 103.287 269.531 103.287C269.531 103.287 269.2 109.489 273.582 111.473C273.582 111.473 277.716 112.382 282.181 110.977C284.992 108.91 287.638 105.768 289.788 102.13C294.253 95.0194 293.508 87.4128 289.788 83.1961Z" fill="#263238"/>
<path d="M273.666 102.213C273.087 103.04 272.343 103.37 271.433 103.536C270.524 103.701 269.697 103.37 269.697 103.37C269.697 103.37 269.449 108.083 272.26 110.564C271.681 110.812 271.185 110.977 270.689 111.142C268.209 111.887 263.331 111.556 262.421 110.729C261.016 109.406 258.783 105.934 260.023 96.0119C260.519 91.9605 261.594 89.1494 262.917 87.165C263.083 88.5706 264.075 89.8935 265.398 90.3896C264.653 91.3817 264.405 92.7046 264.736 93.8622C265.067 95.2677 266.142 96.3426 267.217 97.4174C267.299 97.5001 267.382 97.5828 267.465 97.5828C267.63 97.6655 268.291 97.5828 268.374 97.4174C269.284 96.0945 270.441 94.6063 272.839 95.4331C275.567 96.3426 275.402 99.6498 273.666 102.213Z" fill="#FFA8A7"/>
<path d="M262.748 110.894C263.905 111.555 267.047 111.803 269.445 111.39L269.362 109.571C269.362 109.571 268.039 110.15 266.22 110.646C264.319 111.059 262.748 110.894 262.748 110.894Z" fill="#F28F8F"/>
<path d="M267.048 100.89C265.808 100.477 265.229 99.1536 265.643 97.9134C266.056 96.6732 267.462 96.0944 268.702 96.5078L267.048 100.89Z" fill="#263238"/>
<path d="M294.748 73.7714C293.342 73.4406 292.019 73.5233 290.779 73.9367C290.2 73.1926 289.291 72.5312 288.299 72.2831C285.901 71.7043 283.421 73.1926 282.842 75.673C282.346 77.9054 283.503 80.1378 285.57 80.8819C285.488 84.1064 287.555 87.0829 290.696 88.0751C290.779 90.0594 292.102 91.7957 294.169 92.2918C296.567 92.8706 299.047 91.3823 299.626 88.9019C299.957 87.6617 299.626 86.4215 299.047 85.4293C299.626 84.6025 300.039 83.693 300.287 82.7009C301.28 78.7322 298.799 74.7635 294.748 73.7714Z" fill="#263238"/>
<path d="M270.279 291.056C270.279 291.056 271.024 293.289 271.52 295.19C271.85 296.761 272.346 299.324 271.85 300.482C271.354 301.639 269.039 302.466 265.815 302.962C263.252 303.376 261.102 304.533 257.795 305.856C255.314 306.848 253.165 307.592 248.782 307.344C244.566 307.096 242.747 305.112 242.251 303.954C241.755 302.797 241.341 301.143 249.113 298.415C249.196 298.415 258.539 295.108 261.846 291.387L270.279 291.056Z" fill="#263238"/>
<path d="M270.279 291.222L268.791 291.056L261.846 291.304C258.622 295.025 249.196 298.332 249.113 298.332C248.7 298.497 248.286 298.663 247.873 298.745C246.55 299.903 247.708 301.722 251.015 301.97C254.239 302.218 264.326 298.58 266.559 297.505C268.709 296.43 270.362 294.198 270.279 291.222Z" fill="#FFA8A7"/>
<path d="M270.197 288.247C270.197 288.247 270.197 290.148 270.28 291.223C270.28 292.298 269.04 293.952 265.733 293.869C263.418 293.869 261.764 293.208 261.847 291.306L261.764 288.578L270.197 288.247Z" fill="#FFA8A7"/>
<path d="M292.272 277.745C292.768 277.827 292.851 278.406 293.264 281.135C293.512 282.871 293.925 285.186 292.272 286.343C290.039 287.914 286.567 287.418 285.244 285.765C283.673 283.698 282.598 281.961 280.283 279.398C278.299 277.249 275.736 275.264 274.826 272.288C273.751 268.981 274.744 267.41 277.059 267.162C278.96 266.996 281.275 267.658 283.425 269.394C284.334 269.89 285.161 270.386 285.74 270.551C287.311 271.13 291.61 277.662 292.272 277.745Z" fill="#263238"/>
<path d="M292.273 276.009V278.82C292.273 278.82 290.454 282.541 285.163 278.986C285.08 278.738 284.501 273.281 284.501 273.281L292.273 276.009Z" fill="#FFA8A7"/>
<path d="M285.576 270.634C284.997 270.468 284.17 269.972 283.26 269.476C281.111 268.815 276.729 269.724 278.796 272.701C281.028 275.925 283.26 277.579 285.162 278.984C287.56 280.059 288.304 278.654 288.304 278.654L287.312 272.122C286.733 271.378 286.072 270.799 285.576 270.634Z" fill="#FFA8A7"/>
<path d="M295.332 237.231C294.091 228.054 292.024 222.845 292.024 222.845C292.024 222.845 293.513 210.443 294.67 198.619C297.399 170.756 295.166 170.342 291.115 160.752C291.115 160.752 255.397 156.866 254.157 171.748C252.668 190.268 254.239 226.069 254.653 232.601C255.066 239.133 255.645 242.109 257.877 255.751C259.531 266.169 261.433 288.989 261.433 288.989C266.145 291.552 270.61 288.328 270.61 288.328C270.61 288.328 274.496 260.134 274.248 252.61C273.917 243.432 271.52 236.156 271.52 236.156C271.52 236.156 274 205.978 274.661 201.182C274.661 201.182 275.736 210.773 276.15 217.305C276.563 223.837 278.465 230.12 280.284 242.275C281.855 252.858 284.5 274.851 284.5 274.851C289.213 277.414 292.438 276.174 292.438 276.174C292.438 276.174 296.489 246.409 295.332 237.231Z" fill="#58CEA5"/>
<g opacity="0.4">
<path opacity="0.4" d="M295.332 237.231C294.091 228.054 292.024 222.845 292.024 222.845C292.024 222.845 293.513 210.443 294.67 198.619C297.399 170.756 295.166 170.342 291.115 160.752C291.115 160.752 255.397 156.866 254.157 171.748C252.668 190.268 254.239 226.069 254.653 232.601C255.066 239.133 255.645 242.109 257.877 255.751C259.531 266.169 261.433 288.989 261.433 288.989C266.145 291.552 270.61 288.328 270.61 288.328C270.61 288.328 274.496 260.134 274.248 252.61C273.917 243.432 271.52 236.156 271.52 236.156C271.52 236.156 274 205.978 274.661 201.182C274.661 201.182 275.736 210.773 276.15 217.305C276.563 223.837 278.465 230.12 280.284 242.275C281.855 252.858 284.5 274.851 284.5 274.851C289.213 277.414 292.438 276.174 292.438 276.174C292.438 276.174 296.489 246.409 295.332 237.231Z" fill="black"/>
</g>
<path opacity="0.15" d="M274.661 201.101L276.149 188.037C276.149 188.037 283.26 188.368 289.874 182.911C289.874 182.911 287.642 187.706 278.216 189.939L276.645 203.333L276.232 218.05C275.736 212.428 275.239 206.723 274.661 201.101Z" fill="black"/>
<path d="M292.767 120.238C291.527 116.683 288.137 114.202 283.921 115.112L282.598 115.36C282.184 117.344 275.735 119.081 269.948 117.014L264.491 117.923C259.364 120.321 255.644 126.439 252.915 132.475C251.014 136.774 251.84 141.156 255.726 144.546C255.726 144.546 255.23 151.822 254.982 155.873C254.652 161.992 254.238 168.027 253.825 174.146C253.825 174.146 262.92 179.024 277.223 177.122C290.039 175.469 295.744 167.862 295.33 168.854C295.33 168.854 292.685 159.594 287.972 150.168C294.752 133.55 294.586 125.53 292.767 120.238Z" fill="#37474F"/>
<path d="M232.079 148.432C228.938 145.868 225.878 143.14 222.819 140.494C220.339 138.345 217.941 136.278 215.461 134.211C214.882 133.714 214.221 133.136 213.642 132.64C213.063 132.226 212.319 131.895 211.74 131.482C210.335 130.655 208.929 129.911 207.523 129.084C206.614 128.588 205.87 128.175 205.043 127.596C204.216 126.935 203.389 126.191 202.645 125.446C202.066 124.868 201.488 124.206 201.24 123.379C201.074 122.801 201.074 122.305 201.074 121.726C201.074 121.23 201.074 120.651 201.322 120.155C201.653 119.328 202.48 119.08 202.893 118.419C203.307 117.84 202.976 116.93 203.555 116.352C203.885 116.021 204.299 115.855 204.712 115.69C205.539 115.359 205.622 114.863 205.291 114.202C204.96 113.458 204.547 112.796 204.216 112.135C203.059 109.985 202.645 108.332 203.637 107.753C205.043 107.009 206.366 109.158 208.019 111.639C209.756 114.202 211.161 116.682 213.559 118.667C213.724 117.344 213.972 115.938 214.138 114.615C214.221 114.119 214.303 113.54 214.634 113.127C214.965 112.714 215.543 112.466 216.039 112.714C216.453 112.962 216.536 113.458 216.701 113.871C217.032 115.194 217.28 116.517 217.61 117.757C217.941 119.328 218.355 120.816 219.099 122.222C220.174 124.123 221.91 125.612 223.563 126.935C228.524 130.821 233.733 134.293 238.942 137.683C238.942 137.683 251.509 125.777 254.982 122.47C258.455 119.245 260.604 117.922 265.813 117.426C265.813 117.426 269.947 126.852 264.077 134.128C264.077 134.128 245.06 148.597 241.422 150.251C237.95 151.904 235.304 151.077 232.079 148.432Z" fill="#FFA8A7"/>
<path d="M270.111 177.537C272.261 177.537 274.658 177.454 277.221 177.123C288.879 175.552 294.832 169.186 295.328 168.772C295.163 167.946 292.435 159.181 288.053 150.169C291.443 141.819 293.096 135.617 293.675 130.822C293.096 134.295 287.97 147.772 281.273 151.823C281.273 151.823 285.076 152.402 288.301 156.866C291.443 161.331 288.797 176.627 270.111 177.537Z" fill="#37474F"/>
<path d="M59.3592 163.232C59.3592 161.991 59.5246 160.668 59.7726 159.428C60.0207 158.271 60.5168 157.03 61.3436 156.369C61.757 156.038 62.005 156.038 62.005 156.038V160.503C62.5011 161.909 63.5759 162.983 64.8988 163.728C65.1469 163.893 65.3949 163.976 65.6429 164.058C65.891 164.141 66.2217 164.058 66.3871 163.893C66.8005 163.562 66.6351 163.149 66.4697 162.735C66.0563 161.495 65.891 160.172 65.9737 158.849C65.9737 158.519 66.0563 158.188 66.3044 157.857C66.4697 157.609 66.8832 157.444 67.2139 157.527C67.4619 157.609 67.5446 157.857 67.71 158.105C68.3714 159.511 68.9502 161.082 69.8596 162.322C71.7613 164.72 71.6786 166.704 73.4976 168.936C74.159 169.763 81.8483 176.378 87.8013 181.091C99.1286 169.681 105.578 161.495 109.96 163.314C114.838 164.306 117.732 169.929 111.696 175.882C106.818 180.677 95.7386 189.524 91.8527 192.004C88.7935 193.989 85.9824 195.642 82.0964 191.756C77.1355 186.713 74.3244 182.992 72.2574 180.594C70.6038 178.693 68.6194 177.122 66.5524 175.716C65.6429 175.138 64.7335 174.559 63.824 173.897C62.9972 173.319 62.4184 172.657 61.8396 171.83C60.7648 170.259 60.0207 168.523 59.6899 166.621C59.4419 165.712 59.3592 164.472 59.3592 163.232Z" fill="#FFA8A7"/>
<path d="M87.803 181.255C86.2321 182.495 84.7438 185.968 84.7438 185.968C84.7438 185.968 84.7438 182.743 86.6455 180.346L87.803 181.255Z" fill="#F28F8F"/>
<path d="M114.259 164.718C111.448 162.569 107.231 161.577 102.931 165.297C98.9627 168.687 90.1986 177.534 90.1986 177.534C90.1986 177.534 90.0332 181.006 92.5963 184.81C95.1594 188.613 97.3091 189.109 97.3091 189.109L111.365 177.699L114.259 164.718Z" fill="#58CEA5"/>
<path d="M159.4 350.997C159.814 353.064 159.07 354.056 156.424 355.627C153.778 357.115 149.727 357.694 145.345 356.371C141.045 355.131 138.978 353.229 137.159 352.816C135.34 352.402 130.958 352.32 129.139 351.824C127.403 351.327 127.403 350.418 127.403 348.268L159.4 350.997Z" fill="#455A64"/>
<path d="M129.224 337.933C129.224 337.933 128.397 340.496 127.901 342.729C127.57 344.465 126.991 347.442 127.653 348.847C128.314 350.17 130.712 351.08 134.433 350.997C136.83 350.997 140.634 352.65 143.28 354.056C145.925 355.544 148.902 355.544 151.713 355.214C155.103 354.8 158.493 352.899 159.072 351.493C159.65 350.087 159.733 349.095 151.878 345.705C151.796 345.705 142.701 342.315 138.897 338.099L129.224 337.933Z" fill="#58CEA5"/>
<g opacity="0.3">
<path opacity="0.3" d="M129.224 337.933C129.224 337.933 128.397 340.496 127.901 342.729C127.57 344.465 126.991 347.442 127.653 348.847C128.314 350.17 130.712 351.08 134.433 350.997C136.83 350.997 140.634 352.65 143.28 354.056C145.925 355.544 148.902 355.544 151.713 355.214C155.103 354.8 158.493 352.899 159.072 351.493C159.65 350.087 159.733 349.095 151.878 345.705C151.796 345.705 142.701 342.315 138.897 338.099L129.224 337.933Z" fill="black"/>
</g>
<path d="M144.35 354.552C144.35 354.552 145.012 347.772 150.551 345.871C155.512 344.134 159.894 347.772 159.398 350.997C159.067 353.146 153.032 358.107 144.35 354.552Z" fill="#FAFAFA"/>
<path d="M149.146 344.631C149.146 344.631 147.409 344.631 145.425 346.284C143.854 347.607 143.772 348.517 143.772 348.517C143.441 349.095 142.283 348.765 142.366 347.855C142.366 347.855 142.697 344.465 147.244 343.721C147.244 343.721 148.484 343.39 149.146 344.631Z" fill="#FAFAFA"/>
<path d="M146.005 343.06C146.005 343.06 144.186 342.895 142.202 344.549C140.631 345.872 140.631 346.946 140.631 346.946C140.3 347.525 139.143 347.194 139.226 346.285C139.226 346.285 139.556 342.895 144.104 342.151C144.104 342.151 145.344 341.903 146.005 343.06Z" fill="#FAFAFA"/>
<path d="M142.863 341.323C142.863 341.323 141.044 341.075 138.977 342.563C137.324 343.804 137.241 344.796 137.241 344.796C136.828 345.292 135.67 344.961 135.836 344.052C135.836 344.052 136.414 340.662 140.962 340.248C141.044 340.248 142.285 340.083 142.863 341.323Z" fill="#FAFAFA"/>
<path d="M129.224 332.146C129.224 332.146 129.224 336.858 129.224 338.181C129.224 339.421 130.712 341.323 134.516 341.158C137.161 341.075 139.063 340.331 138.98 338.099V332.642L129.224 332.146Z" fill="#FFA8A7"/>
<path d="M125.254 315.612C125.419 317.349 125.584 318.837 124.923 320.739C123.931 323.467 121.946 324.707 120.789 325.782C119.631 326.857 118.309 328.428 117.316 329.999C116.49 331.404 115.497 332.975 113.678 334.546C112.521 335.538 109.379 335.621 107.808 334.96C106.237 334.298 105.741 333.719 105.824 331.322C105.906 328.924 113.348 328.014 113.348 328.014L125.254 315.612Z" fill="#455A64"/>
<path d="M106.899 323.964C106.237 324.212 106.072 325.369 105.989 327.767C105.907 329.586 105.163 332.232 107.643 333.389C109.627 334.299 112.852 333.72 114.257 331.984C115.994 329.834 117.069 328.015 119.549 325.369C121.616 323.137 123.848 322.393 124.758 317.846C125.337 314.952 124.923 313.712 122.939 312.885C120.293 311.727 116.076 315.448 113.927 316.027C112.19 316.605 107.56 323.716 106.899 323.964Z" fill="#58CEA5"/>
<path opacity="0.3" d="M106.899 323.964C106.237 324.212 106.072 325.369 105.989 327.767C105.907 329.586 105.163 332.232 107.643 333.389C109.627 334.299 112.852 333.72 114.257 331.984C115.994 329.834 117.069 328.015 119.549 325.369C121.616 323.137 123.848 322.393 124.758 317.846C125.337 314.952 124.923 313.712 122.939 312.885C120.293 311.727 116.076 315.448 113.927 316.027C112.19 316.605 107.56 323.716 106.899 323.964Z" fill="black"/>
<path d="M113.928 316.109C114.011 316.109 114.176 316.026 114.259 316.026C118.145 316.357 119.716 319.003 120.047 319.83C120.377 320.656 119.303 321.235 118.641 320.656C117.153 317.68 114.094 317.019 112.853 316.853C113.35 316.44 113.68 316.192 113.928 316.109Z" fill="#FAFAFA"/>
<path d="M112.192 317.515C115.747 318.011 117.235 320.491 117.566 321.318C117.897 322.145 116.822 322.724 116.16 322.145C115.003 319.747 112.77 318.838 111.282 318.507C111.696 318.093 111.944 317.763 112.192 317.515Z" fill="#FAFAFA"/>
<path d="M106.569 319.665L106.899 324.708C106.899 324.708 109.958 327.023 114.34 324.874C114.506 324.626 114.837 320.078 114.837 320.078L106.569 319.665Z" fill="#FFA8A7"/>
<path d="M123.518 321.235C123.518 321.235 123.27 315.861 116.077 315.117L115.664 315.365C115.664 315.365 116.821 313.298 119.219 312.637C121.617 311.975 123.518 312.636 124.841 314.207C126.082 315.778 124.841 320.16 123.518 321.235Z" fill="#FAFAFA"/>
<path d="M104.421 286.011C105.496 277.165 107.315 271.873 107.315 271.873C107.315 271.873 106.075 259.802 105.331 248.309C105 243.266 104.835 237.643 104.752 232.6C104.587 225.241 105.414 219.123 105.992 215.898C105.992 215.898 141.545 207.548 142.537 221.851C143.695 237.974 143.777 274.271 143.529 278.736C143.199 285.019 143.199 291.634 142.124 301.886C141.049 311.973 139.313 334.793 139.313 334.793C134.186 336.612 128.647 334.793 128.647 334.793C128.647 334.793 125.67 307.343 125.836 300.067C126.001 291.22 128.233 284.11 128.233 284.11L123.438 244.175C123.438 244.175 122.942 261.951 122.611 268.235C122.28 274.519 121.454 278.405 119.883 290.146C118.56 300.315 115.005 320.903 115.005 320.903C110.292 322.804 106.488 320.903 106.488 320.903C106.488 320.903 103.429 294.858 104.421 286.011Z" fill="#37474F"/>
<path d="M109.547 235.741C109.547 235.741 114.177 242.025 120.213 244.671C120.213 244.671 122.776 266.664 122.776 266.251L123.437 244.092C123.437 244.092 114.508 239.958 109.547 235.741Z" fill="#263238"/>
<path d="M128.316 158.518L127.655 171.582L114.674 170.92L115.087 155.625L128.316 158.518Z" fill="#FFA8A7"/>
<path d="M102.686 171.168C103.761 167.613 108.06 162.735 112.607 163.479C113.682 163.644 113.848 163.81 114.84 163.975C115.419 166.207 122.116 167.034 127.903 165.629C129.64 166.125 135.593 168.192 136.998 168.688C141.132 170.093 141.876 174.145 142.538 187.704C142.538 187.704 143.199 215.237 143.282 226.399C131.459 231.856 122.529 230.533 116.493 229.375C104.009 226.977 104.67 224.91 104.67 224.91C105.166 217.469 104.918 211.516 104.67 204.158C104.505 198.618 104.009 194.649 102.768 188.531C101.115 180.346 101.942 173.649 102.686 171.168Z" fill="#455A64"/>
<path d="M200.162 200.188C200.162 199.692 199.749 199.361 199.335 199.113C198.922 198.948 198.426 198.865 197.93 198.865C195.118 198.617 192.39 198.121 189.744 197.377C189 197.129 188.256 196.798 188.008 196.136C187.76 195.31 188.587 194.565 189.165 193.821C189.827 193.077 190.24 192.085 190.323 191.093C190.406 190.514 190.24 189.274 189.248 189.853C188.835 190.101 187.595 191.01 184.866 192.25C182.055 193.408 180.897 194.814 178.169 195.888C177.177 196.302 167.669 198.865 160.145 200.105C150.14 188.364 142.782 170.754 138.069 170.175C133.273 168.686 130.049 179.022 133.439 186.215C136.333 192.416 148.073 204.983 150.554 207.794C153.034 210.523 154.77 213.83 160.062 212.259C166.842 210.275 171.058 208.29 174.035 207.133C175.937 206.389 178.169 205.397 180.236 205.149C181.393 205.066 182.303 204.983 183.378 205.231C184.535 205.479 185.776 205.81 186.933 206.058C188.752 206.554 190.571 206.72 192.39 206.802C193.299 206.802 194.209 206.802 194.953 206.389C195.532 206.058 195.945 205.562 196.359 205.066C196.689 204.653 197.185 204.322 197.516 203.908C198.012 203.33 198.343 202.42 198.095 201.676C198.508 201.593 199.004 201.511 199.418 201.263C199.914 201.097 200.162 200.684 200.162 200.188Z" fill="#FFA8A7"/>
<path d="M137.078 168.686C141.377 169.513 141.956 171.249 144.767 176.045C147.578 180.84 153.945 191.754 153.945 191.754C153.945 191.754 152.126 198.203 144.106 201.262C144.106 201.262 136.582 192.664 133.357 186.876C130.133 181.088 130.629 171.745 137.078 168.686Z" fill="#58CEA5"/>
<path d="M136.998 142.395C136.998 142.395 140.057 147.107 139.726 147.521C139.395 148.017 137.08 148.43 137.08 148.43L136.998 142.395Z" fill="#F28F8F"/>
<path d="M128.481 129.412C134.765 130.735 136.583 133.463 137.162 143.468C137.741 153.886 136.749 157.11 135.343 158.516C134.434 159.425 129.308 159.59 126.745 158.929C123.52 158.02 116.161 155.456 112.771 150.248C108.72 144.129 107.728 135.778 112.027 132.306C117.98 127.51 125.918 128.916 128.481 129.412Z" fill="#FFA8A7"/>
<path d="M128.15 159.178C128.15 159.178 126.414 158.848 124.843 158.352C124.843 158.352 125.752 159.592 127.985 160.171L128.15 159.178Z" fill="#F28F8F"/>
<path d="M138.403 133.299C137.907 133.795 137.411 134.209 136.832 134.54C136.005 135.118 135.096 135.532 134.187 136.028C133.36 136.441 132.45 136.689 131.623 137.185C130.466 138.012 130.301 139.087 130.301 140.41C130.301 141.237 130.301 142.312 130.301 143.469C130.301 145.205 129.143 146.528 128.647 144.213C128.647 144.213 127.655 140.41 124.43 140.823C121.206 141.319 120.875 144.957 122.446 147.851C123.355 149.587 125.918 149.174 125.918 149.174C125.918 149.174 126.497 153.969 122.529 157.855C122.529 157.855 119.965 159.178 114.839 158.104C111.367 153.308 109.134 150.993 107.315 146.859C103.347 138.095 105.248 132.638 108.308 130.24C108.886 126.189 112.111 124.37 115.749 123.543C121.206 122.303 126.249 125.527 131.623 124.287C132.533 124.122 133.36 123.874 134.269 123.626C134.6 123.543 135.013 123.378 135.344 123.543C135.757 123.708 135.84 124.287 135.84 124.701C135.757 125.775 135.179 126.685 134.269 127.264C134.352 127.181 134.931 127.346 135.013 127.346C135.344 127.346 135.592 127.346 135.923 127.346C136.502 127.346 137.08 127.264 137.659 127.181C138.072 127.181 138.486 127.098 138.899 127.181C139.809 127.429 140.305 128.421 140.305 129.413C140.305 130.323 139.809 131.232 139.313 131.976C139.147 132.307 138.899 132.638 138.651 132.886C138.486 133.134 138.403 133.217 138.403 133.299Z" fill="#263238"/>
<path d="M108.143 131.564L104.422 129.331C105.001 128.257 106.407 127.926 107.399 128.587C108.474 129.166 108.804 130.489 108.143 131.564Z" fill="#263238"/>
</svg>
