<svg width="58" height="58" viewBox="0 0 58 58" fill="none" xmlns="http://www.w3.org/2000/svg">
<path d="M50.9427 11.354H52.6969C53.3088 11.354 53.805 10.8578 53.805 10.2458C53.805 9.63393 53.3088 9.1377 52.6969 9.1377H48.486C47.874 9.1377 47.3778 9.63393 47.3778 10.2458V14.4568C47.3778 15.0687 47.874 15.5649 48.486 15.5649C49.0979 15.5649 49.5941 15.0687 49.5941 14.4568V13.2375C52.9564 17.7388 54.784 23.2005 54.784 28.881C54.784 43.3116 43.044 55.0516 28.6134 55.0516C14.1829 55.0516 2.44283 43.3116 2.44283 28.881C2.44283 14.4504 14.1829 2.71041 28.6134 2.71041C29.6807 2.71041 30.7548 2.77524 31.8062 2.903C32.4129 2.97636 32.9662 2.5443 33.04 1.93671C33.1139 1.32923 32.6813 0.776715 32.0737 0.702913C30.9339 0.564396 29.7698 0.494141 28.6134 0.494141C21.031 0.494141 13.9024 3.44688 8.5409 8.80848C3.1793 14.17 0.226562 21.2986 0.226562 28.881C0.226562 36.4634 3.1793 43.5921 8.5409 48.9536C13.9024 54.3152 21.031 57.2679 28.6134 57.2679C36.1959 57.2679 43.3245 54.3152 48.686 48.9536C54.0476 43.5921 57.0003 36.4634 57.0003 28.881C57.0003 22.4825 54.8627 16.3399 50.9427 11.354Z" fill="black" stroke="black" stroke-width="0.3"/>
<path d="M12.2496 17.2279C11.7324 16.9006 11.0479 17.0546 10.7204 17.5715C8.19067 21.5669 7.07079 26.372 7.56713 31.1017C8.07078 35.9014 10.2311 40.4277 13.6501 43.8469C17.7763 47.973 23.1963 50.0361 28.6164 50.0361C34.0365 50.0361 39.4564 47.9731 43.5826 43.8469C51.835 35.5945 51.835 22.1668 43.5826 13.9145C40.1688 10.5008 35.6499 8.34124 30.8581 7.83372C26.1373 7.33339 21.3374 8.44452 17.3435 10.9619C16.8257 11.2882 16.6707 11.9725 16.9969 12.4902C17.3233 13.008 18.0075 13.1631 18.5253 12.8368C26.0537 8.0918 35.713 9.17921 42.0154 15.4816C49.4037 22.8699 49.4037 34.8914 42.0154 42.2796C34.6272 49.668 22.6055 49.668 15.2174 42.2796C9.00205 36.0643 7.89835 26.1717 12.5931 18.7572C12.9203 18.24 12.7666 17.5554 12.2496 17.2279Z" fill="black" stroke="black" stroke-width="0.3"/>
<path d="M43.0199 30.0067H44.3864C44.9983 30.0067 45.4945 29.5105 45.4945 28.8985C45.4945 28.2866 44.9983 27.7904 44.3864 27.7904H43.0199C42.4079 27.7904 41.9117 28.2866 41.9117 28.8985C41.9117 29.5105 42.4078 30.0067 43.0199 30.0067Z" fill="black" stroke="black" stroke-width="0.3"/>
<path d="M11.732 28.8626C11.732 29.4745 12.2282 29.9707 12.8401 29.9707H14.2067C14.8186 29.9707 15.3148 29.4745 15.3148 28.8626C15.3148 28.2507 14.8186 27.7545 14.2067 27.7545H12.8401C12.2282 27.7545 11.732 28.2506 11.732 28.8626Z" fill="black" stroke="black" stroke-width="0.3"/>
<path d="M29.7387 14.4752V13.1087C29.7387 12.4968 29.2424 12.0005 28.6305 12.0005C28.0186 12.0005 27.5224 12.4968 27.5224 13.1087V14.4752C27.5224 15.0871 28.0186 15.5834 28.6305 15.5834C29.2424 15.5834 29.7387 15.0871 29.7387 14.4752Z" fill="black" stroke="black" stroke-width="0.3"/>
<path d="M27.4889 43.2867V44.6532C27.4889 45.2651 27.9851 45.7613 28.597 45.7613C29.2089 45.7613 29.7051 45.2651 29.7051 44.6532V43.2867C29.7051 42.6748 29.2089 42.1785 28.597 42.1785C27.9851 42.1785 27.4889 42.6746 27.4889 43.2867Z" fill="black" stroke="black" stroke-width="0.3"/>
<path d="M23.0602 21.7594C22.6273 21.3268 21.9259 21.3268 21.4929 21.7594C21.0602 22.1921 21.0602 22.8938 21.4929 23.3266L25.2485 27.0822C24.9607 27.6185 24.7971 28.231 24.7971 28.881C24.7971 30.986 26.5096 32.6985 28.6146 32.6985C30.7196 32.6985 32.4321 30.986 32.4321 28.881C32.4321 28.231 32.2683 27.6185 31.9806 27.0822L39.5584 19.5044C39.9911 19.0717 39.9911 18.37 39.5584 17.9372C39.1256 17.5046 38.4241 17.5046 37.9912 17.9372L30.4134 25.515C29.8771 25.2272 29.2646 25.0635 28.6146 25.0635C27.9645 25.0635 27.3521 25.2273 26.8157 25.515L23.0602 21.7594ZM30.2158 28.881C30.2158 29.764 29.4975 30.4823 28.6146 30.4823C27.7316 30.4823 27.0133 29.764 27.0133 28.881C27.0133 27.9981 27.7316 27.2798 28.6146 27.2798C29.4975 27.2798 30.2158 27.9981 30.2158 28.881Z" fill="black" stroke="black" stroke-width="0.3"/>
<path d="M15.2115 15.4819C15.4187 15.2757 15.5371 14.9898 15.5371 14.6984C15.5371 14.407 15.4187 14.1222 15.2115 13.915C15.0053 13.709 14.7204 13.5903 14.428 13.5903C14.1366 13.5903 13.8507 13.7088 13.6446 13.915C13.4386 14.1211 13.3199 14.407 13.3199 14.6984C13.3199 14.991 13.4384 15.2757 13.6446 15.4819C13.8507 15.6879 14.1366 15.8065 14.428 15.8065C14.7204 15.8065 15.0053 15.6879 15.2115 15.4819Z" fill="black" stroke="black" stroke-width="0.3"/>
<path d="M36.2898 3.80501C36.5825 3.80501 36.8684 3.68744 37.0744 3.48033C37.2805 3.27422 37.3992 2.98932 37.3992 2.69688C37.3992 2.40544 37.2806 2.11954 37.0744 1.91343C36.8684 1.70743 36.5825 1.58875 36.2898 1.58875C35.9984 1.58875 35.7125 1.70732 35.5065 1.91343C35.3004 2.11954 35.1817 2.40544 35.1817 2.69688C35.1817 2.98943 35.3003 3.27422 35.5065 3.48033C35.7125 3.68744 35.9984 3.80501 36.2898 3.80501Z" fill="black" stroke="black" stroke-width="0.3"/>
</svg>
